<mxfile host="app.diagrams.net" agent="Mozilla/5.0 (Windows NT 10.0; Win64; x64) AppleWebKit/537.36 (KHTML, like Gecko) Chrome/136.0.0.0 Safari/537.36" version="27.1.5" pages="15">
  <diagram name="第 1 页" id="0qMLAzxB9j7ZInEhVMJu">
    <mxGraphModel dx="3351" dy="640" grid="1" gridSize="10" guides="1" tooltips="1" connect="1" arrows="1" fold="1" page="1" pageScale="1" pageWidth="827" pageHeight="1169" math="0" shadow="0">
      <root>
        <mxCell id="0" />
        <mxCell id="1" parent="0" />
        <mxCell id="X7OF4kSchoy8XItyaT_Y-3" value="" style="edgeStyle=orthogonalEdgeStyle;rounded=0;orthogonalLoop=1;jettySize=auto;html=1;" parent="1" source="X7OF4kSchoy8XItyaT_Y-1" target="X7OF4kSchoy8XItyaT_Y-2" edge="1">
          <mxGeometry relative="1" as="geometry" />
        </mxCell>
        <mxCell id="X7OF4kSchoy8XItyaT_Y-1" value="BaseConditionMgr" style="rounded=1;whiteSpace=wrap;html=1;" parent="1" vertex="1">
          <mxGeometry x="340" y="315" width="120" height="60" as="geometry" />
        </mxCell>
        <mxCell id="X7OF4kSchoy8XItyaT_Y-7" value="" style="edgeStyle=orthogonalEdgeStyle;rounded=0;orthogonalLoop=1;jettySize=auto;html=1;" parent="1" source="X7OF4kSchoy8XItyaT_Y-2" target="X7OF4kSchoy8XItyaT_Y-6" edge="1">
          <mxGeometry relative="1" as="geometry" />
        </mxCell>
        <mxCell id="X7OF4kSchoy8XItyaT_Y-2" value="InitMgr" style="whiteSpace=wrap;html=1;rounded=1;" parent="1" vertex="1">
          <mxGeometry x="340" y="415" width="120" height="60" as="geometry" />
        </mxCell>
        <mxCell id="X7OF4kSchoy8XItyaT_Y-5" value="" style="edgeStyle=orthogonalEdgeStyle;rounded=0;orthogonalLoop=1;jettySize=auto;html=1;" parent="1" source="X7OF4kSchoy8XItyaT_Y-4" target="X7OF4kSchoy8XItyaT_Y-1" edge="1">
          <mxGeometry relative="1" as="geometry" />
        </mxCell>
        <mxCell id="X7OF4kSchoy8XItyaT_Y-4" value="REGISTER_MGR" style="rounded=1;whiteSpace=wrap;html=1;" parent="1" vertex="1">
          <mxGeometry x="340" y="225" width="120" height="60" as="geometry" />
        </mxCell>
        <mxCell id="X7OF4kSchoy8XItyaT_Y-9" value="" style="edgeStyle=orthogonalEdgeStyle;rounded=0;orthogonalLoop=1;jettySize=auto;html=1;" parent="1" source="X7OF4kSchoy8XItyaT_Y-6" target="X7OF4kSchoy8XItyaT_Y-8" edge="1">
          <mxGeometry relative="1" as="geometry" />
        </mxCell>
        <mxCell id="X7OF4kSchoy8XItyaT_Y-10" value="true" style="edgeLabel;html=1;align=center;verticalAlign=middle;resizable=0;points=[];" parent="X7OF4kSchoy8XItyaT_Y-9" vertex="1" connectable="0">
          <mxGeometry x="-0.2276" y="1" relative="1" as="geometry">
            <mxPoint as="offset" />
          </mxGeometry>
        </mxCell>
        <mxCell id="X7OF4kSchoy8XItyaT_Y-13" style="edgeStyle=orthogonalEdgeStyle;rounded=0;orthogonalLoop=1;jettySize=auto;html=1;exitX=1;exitY=0.5;exitDx=0;exitDy=0;entryX=1;entryY=0.5;entryDx=0;entryDy=0;" parent="1" source="X7OF4kSchoy8XItyaT_Y-6" target="X7OF4kSchoy8XItyaT_Y-11" edge="1">
          <mxGeometry relative="1" as="geometry">
            <Array as="points">
              <mxPoint x="560" y="555" />
              <mxPoint x="560" y="775" />
            </Array>
          </mxGeometry>
        </mxCell>
        <mxCell id="X7OF4kSchoy8XItyaT_Y-14" value="false" style="edgeLabel;html=1;align=center;verticalAlign=middle;resizable=0;points=[];" parent="X7OF4kSchoy8XItyaT_Y-13" vertex="1" connectable="0">
          <mxGeometry x="0.0082" y="3" relative="1" as="geometry">
            <mxPoint as="offset" />
          </mxGeometry>
        </mxCell>
        <mxCell id="X7OF4kSchoy8XItyaT_Y-6" value="IsLocalProcess" style="rhombus;whiteSpace=wrap;html=1;" parent="1" vertex="1">
          <mxGeometry x="340" y="515" width="120" height="80" as="geometry" />
        </mxCell>
        <mxCell id="X7OF4kSchoy8XItyaT_Y-12" value="" style="edgeStyle=orthogonalEdgeStyle;rounded=0;orthogonalLoop=1;jettySize=auto;html=1;" parent="1" source="X7OF4kSchoy8XItyaT_Y-8" target="X7OF4kSchoy8XItyaT_Y-11" edge="1">
          <mxGeometry relative="1" as="geometry" />
        </mxCell>
        <mxCell id="X7OF4kSchoy8XItyaT_Y-8" value="Init，这里一般会注册一个事件监听connect，用于条件进度更新" style="whiteSpace=wrap;html=1;" parent="1" vertex="1">
          <mxGeometry x="310" y="645" width="180" height="60" as="geometry" />
        </mxCell>
        <mxCell id="X7OF4kSchoy8XItyaT_Y-11" value="return true" style="rounded=1;whiteSpace=wrap;html=1;" parent="1" vertex="1">
          <mxGeometry x="340" y="745" width="120" height="60" as="geometry" />
        </mxCell>
        <mxCell id="X7OF4kSchoy8XItyaT_Y-17" style="edgeStyle=orthogonalEdgeStyle;rounded=0;orthogonalLoop=1;jettySize=auto;html=1;entryX=0.5;entryY=0;entryDx=0;entryDy=0;" parent="1" source="X7OF4kSchoy8XItyaT_Y-16" target="X7OF4kSchoy8XItyaT_Y-4" edge="1">
          <mxGeometry relative="1" as="geometry" />
        </mxCell>
        <mxCell id="X7OF4kSchoy8XItyaT_Y-16" value="world and actor process" style="rounded=1;whiteSpace=wrap;html=1;" parent="1" vertex="1">
          <mxGeometry x="340" y="135" width="120" height="60" as="geometry" />
        </mxCell>
        <mxCell id="X7OF4kSchoy8XItyaT_Y-20" value="" style="edgeStyle=orthogonalEdgeStyle;rounded=0;orthogonalLoop=1;jettySize=auto;html=1;" parent="1" source="X7OF4kSchoy8XItyaT_Y-18" target="X7OF4kSchoy8XItyaT_Y-19" edge="1">
          <mxGeometry relative="1" as="geometry" />
        </mxCell>
        <mxCell id="X7OF4kSchoy8XItyaT_Y-18" value="actor" style="rounded=1;whiteSpace=wrap;html=1;" parent="1" vertex="1">
          <mxGeometry x="700" y="140" width="120" height="60" as="geometry" />
        </mxCell>
        <mxCell id="X7OF4kSchoy8XItyaT_Y-22" value="" style="edgeStyle=orthogonalEdgeStyle;rounded=0;orthogonalLoop=1;jettySize=auto;html=1;" parent="1" source="X7OF4kSchoy8XItyaT_Y-19" target="X7OF4kSchoy8XItyaT_Y-21" edge="1">
          <mxGeometry relative="1" as="geometry" />
        </mxCell>
        <mxCell id="X7OF4kSchoy8XItyaT_Y-19" value="遍历 CHAPTER_TASKINFO" style="rounded=1;whiteSpace=wrap;html=1;" parent="1" vertex="1">
          <mxGeometry x="700" y="230" width="120" height="60" as="geometry" />
        </mxCell>
        <mxCell id="X7OF4kSchoy8XItyaT_Y-24" value="" style="edgeStyle=orthogonalEdgeStyle;rounded=0;orthogonalLoop=1;jettySize=auto;html=1;" parent="1" source="X7OF4kSchoy8XItyaT_Y-21" target="X7OF4kSchoy8XItyaT_Y-23" edge="1">
          <mxGeometry relative="1" as="geometry" />
        </mxCell>
        <mxCell id="X7OF4kSchoy8XItyaT_Y-21" value="MakeCondition(E_COND_MODULE_TYPE_CHAPTER_TASK, task_id);" style="whiteSpace=wrap;html=1;rounded=1;" parent="1" vertex="1">
          <mxGeometry x="560" y="340" width="400" height="60" as="geometry" />
        </mxCell>
        <mxCell id="X7OF4kSchoy8XItyaT_Y-26" value="" style="edgeStyle=orthogonalEdgeStyle;rounded=0;orthogonalLoop=1;jettySize=auto;html=1;" parent="1" source="X7OF4kSchoy8XItyaT_Y-23" target="X7OF4kSchoy8XItyaT_Y-25" edge="1">
          <mxGeometry relative="1" as="geometry" />
        </mxCell>
        <mxCell id="X7OF4kSchoy8XItyaT_Y-23" value="AddConditionRegisterTask" style="whiteSpace=wrap;html=1;rounded=1;" parent="1" vertex="1">
          <mxGeometry x="660" y="440" width="200" height="60" as="geometry" />
        </mxCell>
        <mxCell id="X7OF4kSchoy8XItyaT_Y-25" value="DoAddAsyncCondProcTask" style="whiteSpace=wrap;html=1;rounded=1;" parent="1" vertex="1">
          <mxGeometry x="675" y="540" width="170" height="60" as="geometry" />
        </mxCell>
        <mxCell id="X7OF4kSchoy8XItyaT_Y-28" value="如果创建的条件归属的ConditionMgr的归属不是当前进程，&lt;div&gt;就会发起一个跨进程的协议去寻找ConditionMgr所归属的进程，来创建一个条件。&lt;/div&gt;" style="text;html=1;align=center;verticalAlign=middle;resizable=0;points=[];autosize=1;strokeColor=none;fillColor=none;" parent="1" vertex="1">
          <mxGeometry x="1045" y="90" width="450" height="40" as="geometry" />
        </mxCell>
        <mxCell id="X7OF4kSchoy8XItyaT_Y-31" value="" style="edgeStyle=orthogonalEdgeStyle;rounded=0;orthogonalLoop=1;jettySize=auto;html=1;" parent="1" source="X7OF4kSchoy8XItyaT_Y-29" target="X7OF4kSchoy8XItyaT_Y-30" edge="1">
          <mxGeometry relative="1" as="geometry" />
        </mxCell>
        <mxCell id="X7OF4kSchoy8XItyaT_Y-47" value="" style="edgeStyle=orthogonalEdgeStyle;rounded=0;orthogonalLoop=1;jettySize=auto;html=1;" parent="1" source="X7OF4kSchoy8XItyaT_Y-29" target="X7OF4kSchoy8XItyaT_Y-46" edge="1">
          <mxGeometry relative="1" as="geometry" />
        </mxCell>
        <mxCell id="X7OF4kSchoy8XItyaT_Y-29" value="DoCondTickFunction" style="rounded=1;whiteSpace=wrap;html=1;" parent="1" vertex="1">
          <mxGeometry x="1210" y="160" width="120" height="60" as="geometry" />
        </mxCell>
        <mxCell id="X7OF4kSchoy8XItyaT_Y-33" value="" style="edgeStyle=orthogonalEdgeStyle;rounded=0;orthogonalLoop=1;jettySize=auto;html=1;" parent="1" source="X7OF4kSchoy8XItyaT_Y-30" target="X7OF4kSchoy8XItyaT_Y-32" edge="1">
          <mxGeometry relative="1" as="geometry" />
        </mxCell>
        <mxCell id="X7OF4kSchoy8XItyaT_Y-30" value="CondRegisterProc" style="whiteSpace=wrap;html=1;rounded=1;" parent="1" vertex="1">
          <mxGeometry x="1030" y="280" width="120" height="60" as="geometry" />
        </mxCell>
        <mxCell id="X7OF4kSchoy8XItyaT_Y-42" value="" style="edgeStyle=orthogonalEdgeStyle;rounded=0;orthogonalLoop=1;jettySize=auto;html=1;" parent="1" source="X7OF4kSchoy8XItyaT_Y-32" target="X7OF4kSchoy8XItyaT_Y-41" edge="1">
          <mxGeometry relative="1" as="geometry" />
        </mxCell>
        <mxCell id="X7OF4kSchoy8XItyaT_Y-32" value="DoAddCondition" style="whiteSpace=wrap;html=1;rounded=1;" parent="1" vertex="1">
          <mxGeometry x="1030" y="370" width="120" height="60" as="geometry" />
        </mxCell>
        <mxCell id="X7OF4kSchoy8XItyaT_Y-37" value="" style="edgeStyle=orthogonalEdgeStyle;rounded=0;orthogonalLoop=1;jettySize=auto;html=1;" parent="1" source="X7OF4kSchoy8XItyaT_Y-34" target="X7OF4kSchoy8XItyaT_Y-36" edge="1">
          <mxGeometry relative="1" as="geometry" />
        </mxCell>
        <mxCell id="X7OF4kSchoy8XItyaT_Y-44" value="false" style="edgeLabel;html=1;align=center;verticalAlign=middle;resizable=0;points=[];" parent="X7OF4kSchoy8XItyaT_Y-37" vertex="1" connectable="0">
          <mxGeometry x="-0.2" y="1" relative="1" as="geometry">
            <mxPoint as="offset" />
          </mxGeometry>
        </mxCell>
        <mxCell id="X7OF4kSchoy8XItyaT_Y-40" style="edgeStyle=orthogonalEdgeStyle;rounded=0;orthogonalLoop=1;jettySize=auto;html=1;entryX=1;entryY=0.5;entryDx=0;entryDy=0;exitX=0.94;exitY=0.538;exitDx=0;exitDy=0;exitPerimeter=0;" parent="1" source="X7OF4kSchoy8XItyaT_Y-34" target="X7OF4kSchoy8XItyaT_Y-38" edge="1">
          <mxGeometry relative="1" as="geometry">
            <Array as="points">
              <mxPoint x="1156" y="610" />
              <mxPoint x="1250" y="610" />
              <mxPoint x="1250" y="820" />
            </Array>
          </mxGeometry>
        </mxCell>
        <mxCell id="X7OF4kSchoy8XItyaT_Y-45" value="yes" style="edgeLabel;html=1;align=center;verticalAlign=middle;resizable=0;points=[];" parent="X7OF4kSchoy8XItyaT_Y-40" vertex="1" connectable="0">
          <mxGeometry x="-0.0908" relative="1" as="geometry">
            <mxPoint as="offset" />
          </mxGeometry>
        </mxCell>
        <mxCell id="X7OF4kSchoy8XItyaT_Y-34" value="IsLocalProcess" style="rhombus;whiteSpace=wrap;html=1;rounded=1;" parent="1" vertex="1">
          <mxGeometry x="1015" y="570" width="150" height="80" as="geometry" />
        </mxCell>
        <mxCell id="X7OF4kSchoy8XItyaT_Y-39" value="" style="edgeStyle=orthogonalEdgeStyle;rounded=0;orthogonalLoop=1;jettySize=auto;html=1;" parent="1" source="X7OF4kSchoy8XItyaT_Y-36" target="X7OF4kSchoy8XItyaT_Y-38" edge="1">
          <mxGeometry relative="1" as="geometry" />
        </mxCell>
        <mxCell id="X7OF4kSchoy8XItyaT_Y-131" style="edgeStyle=orthogonalEdgeStyle;rounded=0;orthogonalLoop=1;jettySize=auto;html=1;exitX=0;exitY=0.5;exitDx=0;exitDy=0;entryX=0;entryY=0.5;entryDx=0;entryDy=0;dashed=1;" parent="1" source="X7OF4kSchoy8XItyaT_Y-36" target="X7OF4kSchoy8XItyaT_Y-64" edge="1">
          <mxGeometry relative="1" as="geometry" />
        </mxCell>
        <mxCell id="X7OF4kSchoy8XItyaT_Y-133" value="异步" style="edgeLabel;html=1;align=center;verticalAlign=middle;resizable=0;points=[];" parent="X7OF4kSchoy8XItyaT_Y-131" vertex="1" connectable="0">
          <mxGeometry x="-0.2965" y="-2" relative="1" as="geometry">
            <mxPoint as="offset" />
          </mxGeometry>
        </mxCell>
        <mxCell id="X7OF4kSchoy8XItyaT_Y-36" value="&lt;b&gt;AddRegisterRemoteCondTask&lt;/b&gt;" style="whiteSpace=wrap;html=1;rounded=1;" parent="1" vertex="1">
          <mxGeometry x="980" y="690" width="220" height="60" as="geometry" />
        </mxCell>
        <mxCell id="X7OF4kSchoy8XItyaT_Y-38" value="return" style="whiteSpace=wrap;html=1;rounded=1;" parent="1" vertex="1">
          <mxGeometry x="1030" y="790" width="120" height="60" as="geometry" />
        </mxCell>
        <mxCell id="X7OF4kSchoy8XItyaT_Y-43" value="" style="edgeStyle=orthogonalEdgeStyle;rounded=0;orthogonalLoop=1;jettySize=auto;html=1;" parent="1" source="X7OF4kSchoy8XItyaT_Y-41" target="X7OF4kSchoy8XItyaT_Y-34" edge="1">
          <mxGeometry relative="1" as="geometry" />
        </mxCell>
        <mxCell id="X7OF4kSchoy8XItyaT_Y-41" value="&lt;b&gt;CreateCondition，这一步是根据cond_id创建了实际的条件实例&lt;/b&gt;" style="whiteSpace=wrap;html=1;rounded=1;" parent="1" vertex="1">
          <mxGeometry x="1030" y="470" width="120" height="60" as="geometry" />
        </mxCell>
        <mxCell id="X7OF4kSchoy8XItyaT_Y-49" value="" style="edgeStyle=orthogonalEdgeStyle;rounded=0;orthogonalLoop=1;jettySize=auto;html=1;" parent="1" source="X7OF4kSchoy8XItyaT_Y-46" target="X7OF4kSchoy8XItyaT_Y-48" edge="1">
          <mxGeometry relative="1" as="geometry" />
        </mxCell>
        <mxCell id="X7OF4kSchoy8XItyaT_Y-46" value="CondProgressProc" style="whiteSpace=wrap;html=1;rounded=1;" parent="1" vertex="1">
          <mxGeometry x="1380" y="280" width="120" height="60" as="geometry" />
        </mxCell>
        <mxCell id="X7OF4kSchoy8XItyaT_Y-51" value="" style="edgeStyle=orthogonalEdgeStyle;rounded=0;orthogonalLoop=1;jettySize=auto;html=1;" parent="1" source="X7OF4kSchoy8XItyaT_Y-48" target="X7OF4kSchoy8XItyaT_Y-50" edge="1">
          <mxGeometry relative="1" as="geometry" />
        </mxCell>
        <mxCell id="X7OF4kSchoy8XItyaT_Y-48" value="CondProgressProc" style="whiteSpace=wrap;html=1;rounded=1;" parent="1" vertex="1">
          <mxGeometry x="1380" y="370" width="120" height="60" as="geometry" />
        </mxCell>
        <mxCell id="X7OF4kSchoy8XItyaT_Y-53" value="" style="edgeStyle=orthogonalEdgeStyle;rounded=0;orthogonalLoop=1;jettySize=auto;html=1;" parent="1" source="X7OF4kSchoy8XItyaT_Y-50" target="X7OF4kSchoy8XItyaT_Y-52" edge="1">
          <mxGeometry relative="1" as="geometry" />
        </mxCell>
        <mxCell id="X7OF4kSchoy8XItyaT_Y-61" value="true" style="edgeLabel;html=1;align=center;verticalAlign=middle;resizable=0;points=[];" parent="X7OF4kSchoy8XItyaT_Y-53" vertex="1" connectable="0">
          <mxGeometry x="0.4194" y="-2" relative="1" as="geometry">
            <mxPoint as="offset" />
          </mxGeometry>
        </mxCell>
        <mxCell id="X7OF4kSchoy8XItyaT_Y-56" value="" style="edgeStyle=orthogonalEdgeStyle;rounded=0;orthogonalLoop=1;jettySize=auto;html=1;" parent="1" source="X7OF4kSchoy8XItyaT_Y-50" target="X7OF4kSchoy8XItyaT_Y-55" edge="1">
          <mxGeometry relative="1" as="geometry" />
        </mxCell>
        <mxCell id="X7OF4kSchoy8XItyaT_Y-60" value="false" style="edgeLabel;html=1;align=center;verticalAlign=middle;resizable=0;points=[];" parent="X7OF4kSchoy8XItyaT_Y-56" vertex="1" connectable="0">
          <mxGeometry x="-0.1778" y="2" relative="1" as="geometry">
            <mxPoint as="offset" />
          </mxGeometry>
        </mxCell>
        <mxCell id="X7OF4kSchoy8XItyaT_Y-50" value="IsRemote" style="rhombus;whiteSpace=wrap;html=1;rounded=1;" parent="1" vertex="1">
          <mxGeometry x="1400" y="460" width="80" height="80" as="geometry" />
        </mxCell>
        <mxCell id="X7OF4kSchoy8XItyaT_Y-59" style="edgeStyle=orthogonalEdgeStyle;rounded=0;orthogonalLoop=1;jettySize=auto;html=1;entryX=1;entryY=0.5;entryDx=0;entryDy=0;" parent="1" source="X7OF4kSchoy8XItyaT_Y-52" target="X7OF4kSchoy8XItyaT_Y-57" edge="1">
          <mxGeometry relative="1" as="geometry">
            <Array as="points">
              <mxPoint x="1660" y="800" />
            </Array>
          </mxGeometry>
        </mxCell>
        <mxCell id="X7OF4kSchoy8XItyaT_Y-134" style="edgeStyle=orthogonalEdgeStyle;rounded=0;orthogonalLoop=1;jettySize=auto;html=1;exitX=1;exitY=0.5;exitDx=0;exitDy=0;entryX=1;entryY=0.5;entryDx=0;entryDy=0;dashed=1;" parent="1" source="X7OF4kSchoy8XItyaT_Y-52" target="X7OF4kSchoy8XItyaT_Y-64" edge="1">
          <mxGeometry relative="1" as="geometry" />
        </mxCell>
        <mxCell id="X7OF4kSchoy8XItyaT_Y-135" value="异步" style="edgeLabel;html=1;align=center;verticalAlign=middle;resizable=0;points=[];" parent="X7OF4kSchoy8XItyaT_Y-134" vertex="1" connectable="0">
          <mxGeometry x="-0.2658" y="5" relative="1" as="geometry">
            <mxPoint as="offset" />
          </mxGeometry>
        </mxCell>
        <mxCell id="X7OF4kSchoy8XItyaT_Y-52" value="&lt;b&gt;DoUpdateRemoteCondition&lt;/b&gt;" style="whiteSpace=wrap;html=1;rounded=1;" parent="1" vertex="1">
          <mxGeometry x="1580" y="630" width="160" height="60" as="geometry" />
        </mxCell>
        <mxCell id="X7OF4kSchoy8XItyaT_Y-58" value="" style="edgeStyle=orthogonalEdgeStyle;rounded=0;orthogonalLoop=1;jettySize=auto;html=1;" parent="1" source="X7OF4kSchoy8XItyaT_Y-55" target="X7OF4kSchoy8XItyaT_Y-57" edge="1">
          <mxGeometry relative="1" as="geometry" />
        </mxCell>
        <mxCell id="X7OF4kSchoy8XItyaT_Y-55" value="CallCondCompleteFunction" style="whiteSpace=wrap;html=1;rounded=1;" parent="1" vertex="1">
          <mxGeometry x="1355" y="630" width="170" height="60" as="geometry" />
        </mxCell>
        <mxCell id="X7OF4kSchoy8XItyaT_Y-57" value="return" style="whiteSpace=wrap;html=1;rounded=1;" parent="1" vertex="1">
          <mxGeometry x="1380" y="770" width="120" height="60" as="geometry" />
        </mxCell>
        <mxCell id="X7OF4kSchoy8XItyaT_Y-62" value="条件管理类的归属进程是在构造函数的参数中设置的" style="text;html=1;align=center;verticalAlign=middle;whiteSpace=wrap;rounded=0;" parent="1" vertex="1">
          <mxGeometry x="230" y="85" width="330" height="30" as="geometry" />
        </mxCell>
        <mxCell id="X7OF4kSchoy8XItyaT_Y-63" value="actor遍历主线任务的配置，设置任务条件" style="text;html=1;align=center;verticalAlign=middle;whiteSpace=wrap;rounded=0;" parent="1" vertex="1">
          <mxGeometry x="630" y="90" width="237" height="30" as="geometry" />
        </mxCell>
        <mxCell id="X7OF4kSchoy8XItyaT_Y-89" value="" style="edgeStyle=orthogonalEdgeStyle;rounded=0;orthogonalLoop=1;jettySize=auto;html=1;" parent="1" source="X7OF4kSchoy8XItyaT_Y-64" target="X7OF4kSchoy8XItyaT_Y-88" edge="1">
          <mxGeometry relative="1" as="geometry" />
        </mxCell>
        <mxCell id="X7OF4kSchoy8XItyaT_Y-64" value="DoSendRegisterRemoteCondReq" style="rounded=1;whiteSpace=wrap;html=1;" parent="1" vertex="1">
          <mxGeometry x="1229" y="980" width="220" height="60" as="geometry" />
        </mxCell>
        <mxCell id="X7OF4kSchoy8XItyaT_Y-68" value="" style="edgeStyle=orthogonalEdgeStyle;rounded=0;orthogonalLoop=1;jettySize=auto;html=1;" parent="1" source="X7OF4kSchoy8XItyaT_Y-65" target="X7OF4kSchoy8XItyaT_Y-67" edge="1">
          <mxGeometry relative="1" as="geometry" />
        </mxCell>
        <mxCell id="acaYQ1tCma_x3v5Xgvzq-1" value="异步注册" style="edgeLabel;html=1;align=center;verticalAlign=middle;resizable=0;points=[];" parent="X7OF4kSchoy8XItyaT_Y-68" vertex="1" connectable="0">
          <mxGeometry x="0.0127" y="-2" relative="1" as="geometry">
            <mxPoint as="offset" />
          </mxGeometry>
        </mxCell>
        <mxCell id="X7OF4kSchoy8XItyaT_Y-70" value="" style="edgeStyle=orthogonalEdgeStyle;rounded=0;orthogonalLoop=1;jettySize=auto;html=1;" parent="1" source="X7OF4kSchoy8XItyaT_Y-65" target="X7OF4kSchoy8XItyaT_Y-69" edge="1">
          <mxGeometry relative="1" as="geometry" />
        </mxCell>
        <mxCell id="acaYQ1tCma_x3v5Xgvzq-2" value="异步更新条件进度" style="edgeLabel;html=1;align=center;verticalAlign=middle;resizable=0;points=[];" parent="X7OF4kSchoy8XItyaT_Y-70" vertex="1" connectable="0">
          <mxGeometry x="-0.1789" y="-2" relative="1" as="geometry">
            <mxPoint as="offset" />
          </mxGeometry>
        </mxCell>
        <mxCell id="X7OF4kSchoy8XItyaT_Y-65" value="ConditionRegisterRemoteReq" style="whiteSpace=wrap;html=1;rounded=1;" parent="1" vertex="1">
          <mxGeometry x="1251" y="1245" width="176" height="60" as="geometry" />
        </mxCell>
        <mxCell id="X7OF4kSchoy8XItyaT_Y-72" value="" style="edgeStyle=orthogonalEdgeStyle;rounded=0;orthogonalLoop=1;jettySize=auto;html=1;" parent="1" source="X7OF4kSchoy8XItyaT_Y-67" target="X7OF4kSchoy8XItyaT_Y-71" edge="1">
          <mxGeometry relative="1" as="geometry" />
        </mxCell>
        <mxCell id="X7OF4kSchoy8XItyaT_Y-67" value="ConditionRegisterProc" style="whiteSpace=wrap;html=1;rounded=1;" parent="1" vertex="1">
          <mxGeometry x="1015" y="1315" width="140" height="60" as="geometry" />
        </mxCell>
        <mxCell id="X7OF4kSchoy8XItyaT_Y-81" value="" style="edgeStyle=orthogonalEdgeStyle;rounded=0;orthogonalLoop=1;jettySize=auto;html=1;" parent="1" source="X7OF4kSchoy8XItyaT_Y-69" target="X7OF4kSchoy8XItyaT_Y-80" edge="1">
          <mxGeometry relative="1" as="geometry" />
        </mxCell>
        <mxCell id="X7OF4kSchoy8XItyaT_Y-69" value="ConditionProgressSyncProc" style="whiteSpace=wrap;html=1;rounded=1;" parent="1" vertex="1">
          <mxGeometry x="1475" y="1330" width="170" height="60" as="geometry" />
        </mxCell>
        <mxCell id="X7OF4kSchoy8XItyaT_Y-74" value="" style="edgeStyle=orthogonalEdgeStyle;rounded=0;orthogonalLoop=1;jettySize=auto;html=1;" parent="1" source="X7OF4kSchoy8XItyaT_Y-71" target="X7OF4kSchoy8XItyaT_Y-73" edge="1">
          <mxGeometry relative="1" as="geometry" />
        </mxCell>
        <mxCell id="X7OF4kSchoy8XItyaT_Y-71" value="AddRemoteCondition" style="whiteSpace=wrap;html=1;rounded=1;" parent="1" vertex="1">
          <mxGeometry x="1025" y="1405" width="120" height="60" as="geometry" />
        </mxCell>
        <mxCell id="X7OF4kSchoy8XItyaT_Y-76" value="" style="edgeStyle=orthogonalEdgeStyle;rounded=0;orthogonalLoop=1;jettySize=auto;html=1;" parent="1" source="X7OF4kSchoy8XItyaT_Y-73" target="X7OF4kSchoy8XItyaT_Y-75" edge="1">
          <mxGeometry relative="1" as="geometry" />
        </mxCell>
        <mxCell id="X7OF4kSchoy8XItyaT_Y-73" value="DoAddCondition" style="whiteSpace=wrap;html=1;rounded=1;" parent="1" vertex="1">
          <mxGeometry x="1025" y="1495" width="120" height="60" as="geometry" />
        </mxCell>
        <mxCell id="X7OF4kSchoy8XItyaT_Y-78" value="" style="edgeStyle=orthogonalEdgeStyle;rounded=0;orthogonalLoop=1;jettySize=auto;html=1;" parent="1" source="X7OF4kSchoy8XItyaT_Y-75" target="X7OF4kSchoy8XItyaT_Y-77" edge="1">
          <mxGeometry relative="1" as="geometry" />
        </mxCell>
        <mxCell id="X7OF4kSchoy8XItyaT_Y-75" value="CreateCondition 创建一个条件实例。" style="whiteSpace=wrap;html=1;rounded=1;" parent="1" vertex="1">
          <mxGeometry x="1025" y="1585" width="120" height="60" as="geometry" />
        </mxCell>
        <mxCell id="X7OF4kSchoy8XItyaT_Y-77" value="..." style="whiteSpace=wrap;html=1;rounded=1;" parent="1" vertex="1">
          <mxGeometry x="1025" y="1685" width="120" height="60" as="geometry" />
        </mxCell>
        <mxCell id="X7OF4kSchoy8XItyaT_Y-79" value="远程条件的注册和更新" style="text;html=1;align=center;verticalAlign=middle;whiteSpace=wrap;rounded=0;" parent="1" vertex="1">
          <mxGeometry x="1256.25" y="930" width="160" height="30" as="geometry" />
        </mxCell>
        <mxCell id="X7OF4kSchoy8XItyaT_Y-83" value="" style="edgeStyle=orthogonalEdgeStyle;rounded=0;orthogonalLoop=1;jettySize=auto;html=1;" parent="1" source="X7OF4kSchoy8XItyaT_Y-80" target="X7OF4kSchoy8XItyaT_Y-82" edge="1">
          <mxGeometry relative="1" as="geometry" />
        </mxCell>
        <mxCell id="X7OF4kSchoy8XItyaT_Y-80" value="UpdateProgressInfoFromRemote" style="whiteSpace=wrap;html=1;rounded=1;" parent="1" vertex="1">
          <mxGeometry x="1462.5" y="1425" width="195" height="60" as="geometry" />
        </mxCell>
        <mxCell id="X7OF4kSchoy8XItyaT_Y-82" value="CheckFinishAndUpdate，直接更新进度值" style="whiteSpace=wrap;html=1;rounded=1;" parent="1" vertex="1">
          <mxGeometry x="1466" y="1515" width="190" height="60" as="geometry" />
        </mxCell>
        <mxCell id="X7OF4kSchoy8XItyaT_Y-84" value="例如：章节task_id=9165的完成条件类型是&lt;br&gt;&lt;table border=&quot;0&quot; cellpadding=&quot;0&quot; cellspacing=&quot;0&quot; width=&quot;537&quot; style=&quot;border-collapse:&lt;br/&gt; collapse;width:403pt&quot;&gt;&lt;tbody&gt;&lt;tr height=&quot;19&quot; style=&quot;height:14.25pt&quot;&gt;  &lt;td height=&quot;19&quot; class=&quot;xl64&quot; width=&quot;537&quot; style=&quot;height:14.25pt;width:403pt&quot;&gt;E_TASK_CONDITION_MAP_OCCUPY_BLOCK_PLAYER_BC；&lt;br&gt;由于章节任务是在actor注册的，但是这个类型的条件管理类的归属是world，因此在actor注册该条件实例时，会向world发起注册条件的请求，使得world上创建一个该条件的实例。相对于actor来说，这个条件就是远程条件。&lt;/td&gt;&lt;/tr&gt;&lt;/tbody&gt;&lt;/table&gt;&lt;div&gt;条件实例会被id_src进行标记，id_src非0时，表示当前条件实例的注册来源不是当前进程，而是进程id=id_src的进程。&lt;/div&gt;" style="text;html=1;align=center;verticalAlign=middle;whiteSpace=wrap;rounded=0;fontStyle=1;fontColor=#FF3333;" parent="1" vertex="1">
          <mxGeometry x="1236.25" y="1615" width="460" height="139" as="geometry" />
        </mxCell>
        <mxCell id="X7OF4kSchoy8XItyaT_Y-90" value="" style="edgeStyle=orthogonalEdgeStyle;rounded=0;orthogonalLoop=1;jettySize=auto;html=1;dashed=1;" parent="1" source="X7OF4kSchoy8XItyaT_Y-88" target="X7OF4kSchoy8XItyaT_Y-65" edge="1">
          <mxGeometry relative="1" as="geometry" />
        </mxCell>
        <mxCell id="X7OF4kSchoy8XItyaT_Y-136" value="跨进程协议" style="edgeLabel;html=1;align=center;verticalAlign=middle;resizable=0;points=[];" parent="X7OF4kSchoy8XItyaT_Y-90" vertex="1" connectable="0">
          <mxGeometry x="-0.1051" y="3" relative="1" as="geometry">
            <mxPoint as="offset" />
          </mxGeometry>
        </mxCell>
        <mxCell id="X7OF4kSchoy8XItyaT_Y-88" value="&lt;span style=&quot;background-color: rgb(218, 153, 11);&quot;&gt;head.id_src = ns_bus_local_func()，&lt;/span&gt;&lt;div&gt;&lt;span style=&quot;background-color: rgb(218, 153, 11);&quot;&gt;id_src被设置后，即被标记为远程条件&lt;/span&gt;&lt;/div&gt;" style="whiteSpace=wrap;html=1;rounded=1;" parent="1" vertex="1">
          <mxGeometry x="1159" y="1080" width="360" height="60" as="geometry" />
        </mxCell>
        <mxCell id="X7OF4kSchoy8XItyaT_Y-93" value="如果条件管理的归属不在当前进程，就不会注册监听connect，而是由远程条件发起的请求进行进度更新" style="text;html=1;align=center;verticalAlign=middle;whiteSpace=wrap;rounded=0;" parent="1" vertex="1">
          <mxGeometry x="270" y="830" width="320" height="30" as="geometry" />
        </mxCell>
        <mxCell id="X7OF4kSchoy8XItyaT_Y-96" value="" style="edgeStyle=orthogonalEdgeStyle;rounded=0;orthogonalLoop=1;jettySize=auto;html=1;" parent="1" source="X7OF4kSchoy8XItyaT_Y-94" target="X7OF4kSchoy8XItyaT_Y-95" edge="1">
          <mxGeometry relative="1" as="geometry" />
        </mxCell>
        <mxCell id="X7OF4kSchoy8XItyaT_Y-94" value="事件触发notify" style="rounded=1;whiteSpace=wrap;html=1;" parent="1" vertex="1">
          <mxGeometry x="305" y="1040" width="120" height="60" as="geometry" />
        </mxCell>
        <mxCell id="X7OF4kSchoy8XItyaT_Y-98" value="" style="edgeStyle=orthogonalEdgeStyle;rounded=0;orthogonalLoop=1;jettySize=auto;html=1;" parent="1" source="X7OF4kSchoy8XItyaT_Y-95" target="X7OF4kSchoy8XItyaT_Y-97" edge="1">
          <mxGeometry relative="1" as="geometry" />
        </mxCell>
        <mxCell id="X7OF4kSchoy8XItyaT_Y-95" value="条件实例内的 connect 监听，进度值更新" style="rounded=1;whiteSpace=wrap;html=1;" parent="1" vertex="1">
          <mxGeometry x="285" y="1130" width="160" height="60" as="geometry" />
        </mxCell>
        <mxCell id="X7OF4kSchoy8XItyaT_Y-119" value="" style="edgeStyle=orthogonalEdgeStyle;rounded=0;orthogonalLoop=1;jettySize=auto;html=1;dashed=1;" parent="1" source="X7OF4kSchoy8XItyaT_Y-97" target="X7OF4kSchoy8XItyaT_Y-118" edge="1">
          <mxGeometry relative="1" as="geometry" />
        </mxCell>
        <mxCell id="X7OF4kSchoy8XItyaT_Y-121" value="异步" style="edgeLabel;html=1;align=center;verticalAlign=middle;resizable=0;points=[];" parent="X7OF4kSchoy8XItyaT_Y-119" vertex="1" connectable="0">
          <mxGeometry x="-0.2405" y="2" relative="1" as="geometry">
            <mxPoint as="offset" />
          </mxGeometry>
        </mxCell>
        <mxCell id="X7OF4kSchoy8XItyaT_Y-97" value="添加当前条件到异步处理列表，处理类型为条件进度更新处理DoAddAsyncCondProcTask" style="whiteSpace=wrap;html=1;rounded=1;" parent="1" vertex="1">
          <mxGeometry x="280" y="1220" width="170" height="60" as="geometry" />
        </mxCell>
        <mxCell id="X7OF4kSchoy8XItyaT_Y-102" value="" style="edgeStyle=orthogonalEdgeStyle;rounded=0;orthogonalLoop=1;jettySize=auto;html=1;" parent="1" source="X7OF4kSchoy8XItyaT_Y-99" target="X7OF4kSchoy8XItyaT_Y-101" edge="1">
          <mxGeometry relative="1" as="geometry" />
        </mxCell>
        <mxCell id="X7OF4kSchoy8XItyaT_Y-105" value="false" style="edgeLabel;html=1;align=center;verticalAlign=middle;resizable=0;points=[];" parent="X7OF4kSchoy8XItyaT_Y-102" vertex="1" connectable="0">
          <mxGeometry x="0.0035" y="1" relative="1" as="geometry">
            <mxPoint as="offset" />
          </mxGeometry>
        </mxCell>
        <mxCell id="X7OF4kSchoy8XItyaT_Y-104" value="" style="edgeStyle=orthogonalEdgeStyle;rounded=0;orthogonalLoop=1;jettySize=auto;html=1;" parent="1" source="X7OF4kSchoy8XItyaT_Y-99" target="X7OF4kSchoy8XItyaT_Y-103" edge="1">
          <mxGeometry relative="1" as="geometry" />
        </mxCell>
        <mxCell id="X7OF4kSchoy8XItyaT_Y-106" value="yes" style="edgeLabel;html=1;align=center;verticalAlign=middle;resizable=0;points=[];" parent="X7OF4kSchoy8XItyaT_Y-104" vertex="1" connectable="0">
          <mxGeometry x="-0.0394" y="-2" relative="1" as="geometry">
            <mxPoint as="offset" />
          </mxGeometry>
        </mxCell>
        <mxCell id="X7OF4kSchoy8XItyaT_Y-99" value="IsRemote，&lt;div&gt;是否是远程条件&lt;/div&gt;" style="rhombus;whiteSpace=wrap;html=1;rounded=1;" parent="1" vertex="1">
          <mxGeometry x="300" y="1412" width="130" height="80" as="geometry" />
        </mxCell>
        <mxCell id="X7OF4kSchoy8XItyaT_Y-101" value="判断任务是否完成，完成则&amp;nbsp;CallCondCompleteFunction" style="whiteSpace=wrap;html=1;rounded=1;" parent="1" vertex="1">
          <mxGeometry x="230" y="1542" width="270" height="60" as="geometry" />
        </mxCell>
        <mxCell id="X7OF4kSchoy8XItyaT_Y-123" value="" style="edgeStyle=orthogonalEdgeStyle;rounded=0;orthogonalLoop=1;jettySize=auto;html=1;dashed=1;" parent="1" source="X7OF4kSchoy8XItyaT_Y-103" target="X7OF4kSchoy8XItyaT_Y-122" edge="1">
          <mxGeometry relative="1" as="geometry" />
        </mxCell>
        <mxCell id="X7OF4kSchoy8XItyaT_Y-124" value="异步" style="edgeLabel;html=1;align=center;verticalAlign=middle;resizable=0;points=[];" parent="X7OF4kSchoy8XItyaT_Y-123" vertex="1" connectable="0">
          <mxGeometry y="2" relative="1" as="geometry">
            <mxPoint as="offset" />
          </mxGeometry>
        </mxCell>
        <mxCell id="X7OF4kSchoy8XItyaT_Y-103" value="DoAddSyncCondTask添加到条件请求列表，等待发起协议请求到归属的进程" style="whiteSpace=wrap;html=1;rounded=1;" parent="1" vertex="1">
          <mxGeometry x="555" y="1422" width="120" height="60" as="geometry" />
        </mxCell>
        <mxCell id="X7OF4kSchoy8XItyaT_Y-109" style="edgeStyle=orthogonalEdgeStyle;rounded=0;orthogonalLoop=1;jettySize=auto;html=1;exitX=0.5;exitY=0;exitDx=0;exitDy=0;entryX=1;entryY=0.5;entryDx=0;entryDy=0;" parent="1" source="X7OF4kSchoy8XItyaT_Y-107" target="X7OF4kSchoy8XItyaT_Y-97" edge="1">
          <mxGeometry relative="1" as="geometry">
            <Array as="points">
              <mxPoint x="830" y="1250" />
            </Array>
          </mxGeometry>
        </mxCell>
        <mxCell id="X7OF4kSchoy8XItyaT_Y-107" value="条件归属类收到后，处理进度值更新，&lt;div&gt;CheckFinishAndUpdate&lt;br&gt;&lt;/div&gt;" style="whiteSpace=wrap;html=1;rounded=1;" parent="1" vertex="1">
          <mxGeometry x="760" y="1660" width="140" height="60" as="geometry" />
        </mxCell>
        <mxCell id="X7OF4kSchoy8XItyaT_Y-110" value="回到了条件的源进程，再次进入这个逻辑，就可以走IsRemote=false的分支了" style="text;html=1;align=center;verticalAlign=middle;whiteSpace=wrap;rounded=0;" parent="1" vertex="1">
          <mxGeometry x="557" y="1260" width="270" height="30" as="geometry" />
        </mxCell>
        <mxCell id="X7OF4kSchoy8XItyaT_Y-120" value="" style="edgeStyle=orthogonalEdgeStyle;rounded=0;orthogonalLoop=1;jettySize=auto;html=1;entryX=0.5;entryY=0;entryDx=0;entryDy=0;" parent="1" target="X7OF4kSchoy8XItyaT_Y-99" edge="1">
          <mxGeometry relative="1" as="geometry">
            <mxPoint x="364.48" y="1392" as="sourcePoint" />
            <mxPoint x="364.48" y="1412" as="targetPoint" />
          </mxGeometry>
        </mxCell>
        <mxCell id="X7OF4kSchoy8XItyaT_Y-118" value="CondProgressProc" style="whiteSpace=wrap;html=1;rounded=1;" parent="1" vertex="1">
          <mxGeometry x="305" y="1332" width="120" height="60" as="geometry" />
        </mxCell>
        <mxCell id="X7OF4kSchoy8XItyaT_Y-126" value="" style="edgeStyle=orthogonalEdgeStyle;rounded=0;orthogonalLoop=1;jettySize=auto;html=1;dashed=1;" parent="1" source="X7OF4kSchoy8XItyaT_Y-122" target="X7OF4kSchoy8XItyaT_Y-125" edge="1">
          <mxGeometry relative="1" as="geometry" />
        </mxCell>
        <mxCell id="X7OF4kSchoy8XItyaT_Y-127" value="跨进程协议" style="edgeLabel;html=1;align=center;verticalAlign=middle;resizable=0;points=[];" parent="X7OF4kSchoy8XItyaT_Y-126" vertex="1" connectable="0">
          <mxGeometry x="-0.05" y="4" relative="1" as="geometry">
            <mxPoint as="offset" />
          </mxGeometry>
        </mxCell>
        <mxCell id="X7OF4kSchoy8XItyaT_Y-122" value="DoSendRegisterRemoteCondReq" style="whiteSpace=wrap;html=1;rounded=1;" parent="1" vertex="1">
          <mxGeometry x="520" y="1542" width="190" height="60" as="geometry" />
        </mxCell>
        <mxCell id="X7OF4kSchoy8XItyaT_Y-128" value="" style="edgeStyle=orthogonalEdgeStyle;rounded=0;orthogonalLoop=1;jettySize=auto;html=1;" parent="1" source="X7OF4kSchoy8XItyaT_Y-125" target="X7OF4kSchoy8XItyaT_Y-107" edge="1">
          <mxGeometry relative="1" as="geometry" />
        </mxCell>
        <mxCell id="X7OF4kSchoy8XItyaT_Y-125" value="ConditionProgressSyncProc" style="whiteSpace=wrap;html=1;rounded=1;" parent="1" vertex="1">
          <mxGeometry x="522.5" y="1660" width="185" height="60" as="geometry" />
        </mxCell>
        <mxCell id="X7OF4kSchoy8XItyaT_Y-129" value="远程条件所在的进程" style="text;html=1;align=center;verticalAlign=middle;whiteSpace=wrap;rounded=0;" parent="1" vertex="1">
          <mxGeometry x="40" y="1260" width="110" height="30" as="geometry" />
        </mxCell>
        <mxCell id="X7OF4kSchoy8XItyaT_Y-130" value="条件任务注册所在的进程" style="text;html=1;align=center;verticalAlign=middle;whiteSpace=wrap;rounded=0;" parent="1" vertex="1">
          <mxGeometry x="544" y="1724" width="137" height="30" as="geometry" />
        </mxCell>
        <mxCell id="X7OF4kSchoy8XItyaT_Y-139" value="标记远程条件的id_src，只有在跨进程&lt;b&gt;注册条件&lt;/b&gt;时才会使用" style="text;html=1;align=center;verticalAlign=middle;whiteSpace=wrap;rounded=0;" parent="1" vertex="1">
          <mxGeometry x="960" y="1200" width="315" height="30" as="geometry" />
        </mxCell>
        <mxCell id="X7OF4kSchoy8XItyaT_Y-140" value="标记远程条件的id_src，在跨进程&lt;b&gt;条件进度更新时，无效&lt;/b&gt;" style="text;html=1;align=center;verticalAlign=middle;whiteSpace=wrap;rounded=0;" parent="1" vertex="1">
          <mxGeometry x="1416.25" y="1200" width="363.75" height="30" as="geometry" />
        </mxCell>
        <mxCell id="e6TLS5AYR3saVivaQgb9-1" value="对于在接任务之前就已经完成目标的任务，该如何接取和设置" style="text;html=1;align=center;verticalAlign=middle;whiteSpace=wrap;rounded=0;fontColor=#FF3333;" parent="1" vertex="1">
          <mxGeometry x="-320" y="85" width="210" height="30" as="geometry" />
        </mxCell>
        <mxCell id="e6TLS5AYR3saVivaQgb9-4" value="" style="edgeStyle=orthogonalEdgeStyle;rounded=0;orthogonalLoop=1;jettySize=auto;html=1;" parent="1" source="e6TLS5AYR3saVivaQgb9-2" target="e6TLS5AYR3saVivaQgb9-3" edge="1">
          <mxGeometry relative="1" as="geometry" />
        </mxCell>
        <mxCell id="e6TLS5AYR3saVivaQgb9-2" value="DoCondTickFunction" style="rounded=1;whiteSpace=wrap;html=1;" parent="1" vertex="1">
          <mxGeometry x="-1010" y="260" width="120" height="60" as="geometry" />
        </mxCell>
        <mxCell id="e6TLS5AYR3saVivaQgb9-6" value="" style="edgeStyle=orthogonalEdgeStyle;rounded=0;orthogonalLoop=1;jettySize=auto;html=1;" parent="1" source="e6TLS5AYR3saVivaQgb9-3" target="e6TLS5AYR3saVivaQgb9-5" edge="1">
          <mxGeometry relative="1" as="geometry" />
        </mxCell>
        <mxCell id="e6TLS5AYR3saVivaQgb9-3" value="CondRegisterProc" style="rounded=1;whiteSpace=wrap;html=1;" parent="1" vertex="1">
          <mxGeometry x="-1010" y="355" width="120" height="60" as="geometry" />
        </mxCell>
        <mxCell id="e6TLS5AYR3saVivaQgb9-8" value="" style="edgeStyle=orthogonalEdgeStyle;rounded=0;orthogonalLoop=1;jettySize=auto;html=1;" parent="1" source="e6TLS5AYR3saVivaQgb9-5" target="e6TLS5AYR3saVivaQgb9-7" edge="1">
          <mxGeometry relative="1" as="geometry" />
        </mxCell>
        <mxCell id="e6TLS5AYR3saVivaQgb9-5" value="AddConditionData" style="rounded=1;whiteSpace=wrap;html=1;" parent="1" vertex="1">
          <mxGeometry x="-1010" y="440" width="120" height="60" as="geometry" />
        </mxCell>
        <mxCell id="e6TLS5AYR3saVivaQgb9-10" value="" style="edgeStyle=orthogonalEdgeStyle;rounded=0;orthogonalLoop=1;jettySize=auto;html=1;entryX=0.5;entryY=0;entryDx=0;entryDy=0;" parent="1" source="e6TLS5AYR3saVivaQgb9-7" target="e6TLS5AYR3saVivaQgb9-11" edge="1">
          <mxGeometry relative="1" as="geometry">
            <mxPoint x="-950" y="700" as="targetPoint" />
          </mxGeometry>
        </mxCell>
        <mxCell id="e6TLS5AYR3saVivaQgb9-7" value="DoAddConditionList" style="rounded=1;whiteSpace=wrap;html=1;" parent="1" vertex="1">
          <mxGeometry x="-1010" y="520" width="120" height="60" as="geometry" />
        </mxCell>
        <mxCell id="e6TLS5AYR3saVivaQgb9-14" value="" style="edgeStyle=orthogonalEdgeStyle;rounded=0;orthogonalLoop=1;jettySize=auto;html=1;" parent="1" source="e6TLS5AYR3saVivaQgb9-11" target="e6TLS5AYR3saVivaQgb9-13" edge="1">
          <mxGeometry relative="1" as="geometry" />
        </mxCell>
        <mxCell id="e6TLS5AYR3saVivaQgb9-11" value="AddCondition" style="rounded=1;whiteSpace=wrap;html=1;" parent="1" vertex="1">
          <mxGeometry x="-1010" y="620" width="120" height="60" as="geometry" />
        </mxCell>
        <mxCell id="e6TLS5AYR3saVivaQgb9-16" value="" style="edgeStyle=orthogonalEdgeStyle;rounded=0;orthogonalLoop=1;jettySize=auto;html=1;entryX=0.5;entryY=0;entryDx=0;entryDy=0;" parent="1" source="e6TLS5AYR3saVivaQgb9-13" target="e6TLS5AYR3saVivaQgb9-17" edge="1">
          <mxGeometry relative="1" as="geometry">
            <mxPoint x="-950" y="795" as="targetPoint" />
          </mxGeometry>
        </mxCell>
        <mxCell id="e6TLS5AYR3saVivaQgb9-13" value="&lt;div&gt;填充初始值，并添加到proc列表&lt;/div&gt;&amp;nbsp;new_cond-&amp;gt;InitDataFinish(cond_info.db_cond_data, cond_info.is_load_from_db);" style="rounded=1;whiteSpace=wrap;html=1;" parent="1" vertex="1">
          <mxGeometry x="-1190" y="710" width="480" height="60" as="geometry" />
        </mxCell>
        <mxCell id="e6TLS5AYR3saVivaQgb9-17" value="&lt;div&gt;另外 这个函数，似乎也有填充初值的作用&lt;/div&gt;GetCurrentProgress" style="rounded=1;whiteSpace=wrap;html=1;" parent="1" vertex="1">
          <mxGeometry x="-1220" y="800" width="540" height="60" as="geometry" />
        </mxCell>
        <mxCell id="e6TLS5AYR3saVivaQgb9-19" value="系统功能解锁 中涉及条件解锁的逻辑" style="text;html=1;align=center;verticalAlign=middle;whiteSpace=wrap;rounded=0;" parent="1" vertex="1">
          <mxGeometry x="-500" y="1602" width="260" height="30" as="geometry" />
        </mxCell>
        <mxCell id="e6TLS5AYR3saVivaQgb9-24" value="" style="edgeStyle=orthogonalEdgeStyle;rounded=0;orthogonalLoop=1;jettySize=auto;html=1;" parent="1" source="e6TLS5AYR3saVivaQgb9-20" target="e6TLS5AYR3saVivaQgb9-23" edge="1">
          <mxGeometry relative="1" as="geometry" />
        </mxCell>
        <mxCell id="e6TLS5AYR3saVivaQgb9-20" value="add_init_system_function_condition" style="rounded=1;whiteSpace=wrap;html=1;" parent="1" vertex="1">
          <mxGeometry x="-470" y="1638" width="210" height="60" as="geometry" />
        </mxCell>
        <mxCell id="e6TLS5AYR3saVivaQgb9-22" value="条件项的管理是归属于进程的，在 condition_mgr.h::ConditionContainer cond_list; 中。" style="text;html=1;align=center;verticalAlign=middle;whiteSpace=wrap;rounded=0;fontColor=#FF6666;" parent="1" vertex="1">
          <mxGeometry x="-600" y="1572" width="490" height="30" as="geometry" />
        </mxCell>
        <mxCell id="e6TLS5AYR3saVivaQgb9-26" value="" style="edgeStyle=orthogonalEdgeStyle;rounded=0;orthogonalLoop=1;jettySize=auto;html=1;" parent="1" source="e6TLS5AYR3saVivaQgb9-23" target="e6TLS5AYR3saVivaQgb9-25" edge="1">
          <mxGeometry relative="1" as="geometry" />
        </mxCell>
        <mxCell id="e6TLS5AYR3saVivaQgb9-23" value="遍历系统解锁表时，会先过滤已经在玩家系统解锁管理器中存在的。然后再添加系统解锁条件。" style="rounded=1;whiteSpace=wrap;html=1;" parent="1" vertex="1">
          <mxGeometry x="-470" y="1738" width="210" height="60" as="geometry" />
        </mxCell>
        <mxCell id="e6TLS5AYR3saVivaQgb9-25" value="CommonCondSrc::MakeCondition(E_COND_MODULE_TYPE_SYSTEM_FUNCTION, res_system_unlock-&amp;gt;FunctionType());" style="rounded=1;whiteSpace=wrap;html=1;" parent="1" vertex="1">
          <mxGeometry x="-700" y="1840" width="670" height="60" as="geometry" />
        </mxCell>
        <mxCell id="e6TLS5AYR3saVivaQgb9-27" value="在添加条件处理列表时，传入进度参数：例如&amp;nbsp;src/actor/achievement/achievement_trigger.c：&lt;span style=&quot;background-color: initial;&quot;&gt;&amp;nbsp;&lt;/span&gt;&lt;div&gt;&lt;span style=&quot;background-color: initial;&quot;&gt;if (!ConditionModule()-&amp;gt;AddActorConditionList(actor.uid, cond_id, nullptr, 0,&lt;/span&gt;&lt;div&gt;&amp;nbsp; &amp;nbsp; &amp;nbsp; &amp;nbsp; &amp;nbsp; &amp;nbsp; &amp;nbsp; &amp;nbsp; &amp;nbsp; &amp;nbsp; &amp;nbsp; &amp;nbsp; &amp;nbsp; &amp;nbsp; &amp;nbsp; &amp;nbsp; &amp;nbsp; &amp;nbsp; &amp;nbsp; &amp;nbsp; &amp;nbsp; &amp;nbsp; &amp;nbsp; &amp;nbsp; &amp;nbsp; &amp;nbsp; running_task_it-&amp;gt;second.progress()))&lt;/div&gt;&lt;/div&gt;" style="rounded=1;whiteSpace=wrap;html=1;" parent="1" vertex="1">
          <mxGeometry x="-1160" y="60" width="440" height="140" as="geometry" />
        </mxCell>
        <mxCell id="e6TLS5AYR3saVivaQgb9-29" value="然后异步注册条件时" style="text;html=1;align=center;verticalAlign=middle;whiteSpace=wrap;rounded=0;" parent="1" vertex="1">
          <mxGeometry x="-1062.5" y="220" width="245" height="30" as="geometry" />
        </mxCell>
        <mxCell id="e6TLS5AYR3saVivaQgb9-33" value="" style="edgeStyle=orthogonalEdgeStyle;rounded=0;orthogonalLoop=1;jettySize=auto;html=1;" parent="1" source="e6TLS5AYR3saVivaQgb9-31" target="e6TLS5AYR3saVivaQgb9-32" edge="1">
          <mxGeometry relative="1" as="geometry" />
        </mxCell>
        <mxCell id="e6TLS5AYR3saVivaQgb9-31" value="核心逻辑：&lt;div&gt;GetInitProgress&lt;br&gt;&lt;/div&gt;" style="rounded=1;whiteSpace=wrap;html=1;" parent="1" vertex="1">
          <mxGeometry x="-280" y="515" width="120" height="60" as="geometry" />
        </mxCell>
        <mxCell id="e6TLS5AYR3saVivaQgb9-35" value="" style="edgeStyle=orthogonalEdgeStyle;rounded=0;orthogonalLoop=1;jettySize=auto;html=1;" parent="1" source="e6TLS5AYR3saVivaQgb9-32" target="e6TLS5AYR3saVivaQgb9-34" edge="1">
          <mxGeometry relative="1" as="geometry" />
        </mxCell>
        <mxCell id="e6TLS5AYR3saVivaQgb9-32" value="&lt;div&gt;GetCurrentProgress&lt;br&gt;&lt;/div&gt;" style="rounded=1;whiteSpace=wrap;html=1;" parent="1" vertex="1">
          <mxGeometry x="-280" y="595" width="120" height="60" as="geometry" />
        </mxCell>
        <mxCell id="e6TLS5AYR3saVivaQgb9-34" value="&lt;div&gt;获取从具体的条件实例中提前注册好的SetCallBack，用来获取当前进度的函数。&lt;br&gt;&lt;/div&gt;" style="rounded=1;whiteSpace=wrap;html=1;" parent="1" vertex="1">
          <mxGeometry x="-320" y="685" width="200" height="60" as="geometry" />
        </mxCell>
        <mxCell id="e6TLS5AYR3saVivaQgb9-40" value="" style="edgeStyle=orthogonalEdgeStyle;rounded=0;orthogonalLoop=1;jettySize=auto;html=1;" parent="1" source="e6TLS5AYR3saVivaQgb9-36" target="e6TLS5AYR3saVivaQgb9-39" edge="1">
          <mxGeometry relative="1" as="geometry" />
        </mxCell>
        <mxCell id="e6TLS5AYR3saVivaQgb9-36" value="DoCondTickFunction" style="rounded=1;whiteSpace=wrap;html=1;" parent="1" vertex="1">
          <mxGeometry x="-280" y="135" width="120" height="60" as="geometry" />
        </mxCell>
        <mxCell id="e6TLS5AYR3saVivaQgb9-42" value="" style="edgeStyle=orthogonalEdgeStyle;rounded=0;orthogonalLoop=1;jettySize=auto;html=1;" parent="1" source="e6TLS5AYR3saVivaQgb9-39" target="e6TLS5AYR3saVivaQgb9-41" edge="1">
          <mxGeometry relative="1" as="geometry" />
        </mxCell>
        <mxCell id="e6TLS5AYR3saVivaQgb9-39" value="CondRegisterProc" style="rounded=1;whiteSpace=wrap;html=1;" parent="1" vertex="1">
          <mxGeometry x="-280" y="230" width="120" height="60" as="geometry" />
        </mxCell>
        <mxCell id="e6TLS5AYR3saVivaQgb9-44" value="" style="edgeStyle=orthogonalEdgeStyle;rounded=0;orthogonalLoop=1;jettySize=auto;html=1;" parent="1" source="e6TLS5AYR3saVivaQgb9-41" target="e6TLS5AYR3saVivaQgb9-43" edge="1">
          <mxGeometry relative="1" as="geometry" />
        </mxCell>
        <mxCell id="e6TLS5AYR3saVivaQgb9-41" value="AddCondition" style="rounded=1;whiteSpace=wrap;html=1;" parent="1" vertex="1">
          <mxGeometry x="-280" y="320" width="120" height="60" as="geometry" />
        </mxCell>
        <mxCell id="e6TLS5AYR3saVivaQgb9-45" style="edgeStyle=orthogonalEdgeStyle;rounded=0;orthogonalLoop=1;jettySize=auto;html=1;entryX=0.5;entryY=0;entryDx=0;entryDy=0;" parent="1" source="e6TLS5AYR3saVivaQgb9-43" target="e6TLS5AYR3saVivaQgb9-31" edge="1">
          <mxGeometry relative="1" as="geometry" />
        </mxCell>
        <mxCell id="e6TLS5AYR3saVivaQgb9-43" value="FillInitValue" style="rounded=1;whiteSpace=wrap;html=1;" parent="1" vertex="1">
          <mxGeometry x="-280" y="415" width="120" height="60" as="geometry" />
        </mxCell>
        <mxCell id="e6TLS5AYR3saVivaQgb9-46" value="这样就可以在注册条件时，获取当前条件是否完成" style="text;html=1;align=center;verticalAlign=middle;whiteSpace=wrap;rounded=0;" parent="1" vertex="1">
          <mxGeometry x="-280" y="760" width="150" height="30" as="geometry" />
        </mxCell>
        <mxCell id="hriY5-0mfKxtBmigg3l7-5" value="" style="edgeStyle=orthogonalEdgeStyle;rounded=0;orthogonalLoop=1;jettySize=auto;html=1;" parent="1" source="2qtknaAsL8x96PviKZ6u-1" target="hriY5-0mfKxtBmigg3l7-4" edge="1">
          <mxGeometry relative="1" as="geometry" />
        </mxCell>
        <mxCell id="2qtknaAsL8x96PviKZ6u-1" value="任务的查询" style="rounded=1;whiteSpace=wrap;html=1;" parent="1" vertex="1">
          <mxGeometry x="-1900" y="2080" width="116" height="60" as="geometry" />
        </mxCell>
        <mxCell id="hriY5-0mfKxtBmigg3l7-14" value="" style="edgeStyle=orthogonalEdgeStyle;rounded=0;orthogonalLoop=1;jettySize=auto;html=1;" parent="1" source="2qtknaAsL8x96PviKZ6u-2" target="hriY5-0mfKxtBmigg3l7-13" edge="1">
          <mxGeometry relative="1" as="geometry" />
        </mxCell>
        <mxCell id="2qtknaAsL8x96PviKZ6u-2" value="任务的接取" style="rounded=1;whiteSpace=wrap;html=1;" parent="1" vertex="1">
          <mxGeometry x="-1520" y="2080" width="120" height="60" as="geometry" />
        </mxCell>
        <mxCell id="jGse1JEu_eWPn1CX-bot-2" value="" style="edgeStyle=orthogonalEdgeStyle;rounded=0;orthogonalLoop=1;jettySize=auto;html=1;" parent="1" source="hriY5-0mfKxtBmigg3l7-1" target="jGse1JEu_eWPn1CX-bot-1" edge="1">
          <mxGeometry relative="1" as="geometry" />
        </mxCell>
        <mxCell id="hriY5-0mfKxtBmigg3l7-1" value="任务的完成" style="rounded=1;whiteSpace=wrap;html=1;" parent="1" vertex="1">
          <mxGeometry x="-827" y="2080" width="120" height="60" as="geometry" />
        </mxCell>
        <mxCell id="hriY5-0mfKxtBmigg3l7-2" value="任务的提交" style="rounded=1;whiteSpace=wrap;html=1;" parent="1" vertex="1">
          <mxGeometry x="-1230" y="2078" width="120" height="60" as="geometry" />
        </mxCell>
        <mxCell id="hriY5-0mfKxtBmigg3l7-7" value="" style="edgeStyle=orthogonalEdgeStyle;rounded=0;orthogonalLoop=1;jettySize=auto;html=1;" parent="1" source="hriY5-0mfKxtBmigg3l7-4" target="hriY5-0mfKxtBmigg3l7-6" edge="1">
          <mxGeometry relative="1" as="geometry" />
        </mxCell>
        <mxCell id="hriY5-0mfKxtBmigg3l7-4" value="任务的数据结构管理" style="whiteSpace=wrap;html=1;rounded=1;" parent="1" vertex="1">
          <mxGeometry x="-1902.99" y="2160" width="122" height="30" as="geometry" />
        </mxCell>
        <mxCell id="hriY5-0mfKxtBmigg3l7-9" value="" style="edgeStyle=orthogonalEdgeStyle;rounded=0;orthogonalLoop=1;jettySize=auto;html=1;" parent="1" source="hriY5-0mfKxtBmigg3l7-6" target="hriY5-0mfKxtBmigg3l7-8" edge="1">
          <mxGeometry relative="1" as="geometry" />
        </mxCell>
        <mxCell id="hriY5-0mfKxtBmigg3l7-6" value="&lt;div&gt;struct ACTOR_TASK_MGR {&lt;/div&gt;&lt;div&gt;&amp;nbsp; protocol::DB_ACTOR_TASK task_data;&lt;/div&gt;" style="whiteSpace=wrap;html=1;rounded=1;" parent="1" vertex="1">
          <mxGeometry x="-1954.37" y="2208" width="224.75" height="50" as="geometry" />
        </mxCell>
        <mxCell id="hriY5-0mfKxtBmigg3l7-11" value="" style="edgeStyle=orthogonalEdgeStyle;rounded=0;orthogonalLoop=1;jettySize=auto;html=1;" parent="1" source="hriY5-0mfKxtBmigg3l7-8" target="hriY5-0mfKxtBmigg3l7-10" edge="1">
          <mxGeometry relative="1" as="geometry" />
        </mxCell>
        <mxCell id="hriY5-0mfKxtBmigg3l7-8" value="&lt;div&gt;正在进行或者完成但是还未领取奖励的任务；&lt;/div&gt;&lt;div&gt;已经完成并且领取奖励的任务&lt;/div&gt;" style="whiteSpace=wrap;html=1;rounded=1;" parent="1" vertex="1">
          <mxGeometry x="-1978.49" y="2280" width="272.99" height="50" as="geometry" />
        </mxCell>
        <mxCell id="hriY5-0mfKxtBmigg3l7-10" value="任务id；&lt;div&gt;任务状态；&lt;/div&gt;&lt;div&gt;任务进度；&lt;/div&gt;" style="whiteSpace=wrap;html=1;rounded=1;" parent="1" vertex="1">
          <mxGeometry x="-1975.99" y="2360" width="267.99" height="50" as="geometry" />
        </mxCell>
        <mxCell id="hriY5-0mfKxtBmigg3l7-12" value="任务的状态&lt;div&gt;&lt;div&gt;enum E_TASK_STATUS&lt;/div&gt;&lt;div&gt;{&lt;/div&gt;&lt;div&gt;&amp;nbsp; &amp;nbsp; E_TASK_STATUS_NONE = 0; // 未接收&lt;/div&gt;&lt;div&gt;&amp;nbsp; &amp;nbsp; E_TASK_STATUS_FINISH&amp;nbsp; = 1;&amp;nbsp; // 已完成&lt;/div&gt;&lt;div&gt;&amp;nbsp; &amp;nbsp; E_TASK_STATUS_RUNNING = 2;&amp;nbsp; // 进行中&lt;/div&gt;&lt;div&gt;&amp;nbsp; &amp;nbsp; E_TASK_STATUS_REWARD&amp;nbsp; = 3;&amp;nbsp; // 已领取奖励&lt;/div&gt;&lt;div&gt;}&lt;/div&gt;&lt;/div&gt;" style="whiteSpace=wrap;html=1;rounded=1;" parent="1" vertex="1">
          <mxGeometry x="-2340" y="2138" width="291.99" height="120" as="geometry" />
        </mxCell>
        <mxCell id="hriY5-0mfKxtBmigg3l7-13" value="" style="whiteSpace=wrap;html=1;rounded=1;" parent="1" vertex="1">
          <mxGeometry x="-1520" y="2168" width="120" height="60" as="geometry" />
        </mxCell>
        <mxCell id="jGse1JEu_eWPn1CX-bot-4" value="" style="edgeStyle=orthogonalEdgeStyle;rounded=0;orthogonalLoop=1;jettySize=auto;html=1;" parent="1" source="jGse1JEu_eWPn1CX-bot-1" target="jGse1JEu_eWPn1CX-bot-3" edge="1">
          <mxGeometry relative="1" as="geometry" />
        </mxCell>
        <mxCell id="jGse1JEu_eWPn1CX-bot-1" value="章节子任务的完成" style="whiteSpace=wrap;html=1;rounded=1;" parent="1" vertex="1">
          <mxGeometry x="-937.5" y="2240" width="120" height="60" as="geometry" />
        </mxCell>
        <mxCell id="jGse1JEu_eWPn1CX-bot-3" value="receive_chapter_task_reward_req" style="whiteSpace=wrap;html=1;rounded=1;" parent="1" vertex="1">
          <mxGeometry x="-1028.12" y="2350" width="301.25" height="40" as="geometry" />
        </mxCell>
        <mxCell id="4SsSsS4Eq77Io_FzAa82-1" value="数据层" style="rounded=0;whiteSpace=wrap;html=1;" vertex="1" parent="1">
          <mxGeometry x="-1900" y="2863" width="120" height="60" as="geometry" />
        </mxCell>
        <mxCell id="4SsSsS4Eq77Io_FzAa82-5" value="" style="edgeStyle=orthogonalEdgeStyle;rounded=0;orthogonalLoop=1;jettySize=auto;html=1;" edge="1" parent="1" source="4SsSsS4Eq77Io_FzAa82-2" target="4SsSsS4Eq77Io_FzAa82-1">
          <mxGeometry relative="1" as="geometry" />
        </mxCell>
        <mxCell id="4SsSsS4Eq77Io_FzAa82-2" value="条件源层" style="rounded=0;whiteSpace=wrap;html=1;" vertex="1" parent="1">
          <mxGeometry x="-1900" y="2980" width="120" height="60" as="geometry" />
        </mxCell>
        <mxCell id="4SsSsS4Eq77Io_FzAa82-4" value="" style="edgeStyle=orthogonalEdgeStyle;rounded=0;orthogonalLoop=1;jettySize=auto;html=1;" edge="1" parent="1" source="4SsSsS4Eq77Io_FzAa82-3" target="4SsSsS4Eq77Io_FzAa82-2">
          <mxGeometry relative="1" as="geometry" />
        </mxCell>
        <mxCell id="4SsSsS4Eq77Io_FzAa82-3" value="核心管理层" style="rounded=0;whiteSpace=wrap;html=1;" vertex="1" parent="1">
          <mxGeometry x="-1900" y="3080" width="120" height="60" as="geometry" />
        </mxCell>
        <mxCell id="4SsSsS4Eq77Io_FzAa82-9" value="" style="edgeStyle=orthogonalEdgeStyle;rounded=0;orthogonalLoop=1;jettySize=auto;html=1;dashed=1;dashPattern=8 8;" edge="1" parent="1" source="4SsSsS4Eq77Io_FzAa82-6" target="4SsSsS4Eq77Io_FzAa82-8">
          <mxGeometry relative="1" as="geometry" />
        </mxCell>
        <mxCell id="4SsSsS4Eq77Io_FzAa82-6" value="&lt;div&gt;&amp;nbsp; struct CondSrcIDDetail {&lt;/div&gt;&lt;div&gt;&amp;nbsp; &amp;nbsp; u64 module_type : 7;&amp;nbsp; &amp;nbsp; &amp;nbsp;// 模块来源。&lt;/div&gt;&lt;div&gt;&amp;nbsp; &amp;nbsp; u64 index : 3;&amp;nbsp; &amp;nbsp; &amp;nbsp;// 序号&lt;/div&gt;&lt;div&gt;&amp;nbsp; &amp;nbsp; u64 cfg_id : 32 ;&amp;nbsp; // 模块子ID，一般是表里的配置ID&lt;/div&gt;&lt;div&gt;&amp;nbsp; &amp;nbsp; u64 param : 22;&lt;/div&gt;&lt;div&gt;&amp;nbsp; };&lt;/div&gt;&lt;div&gt;&lt;br&gt;&lt;/div&gt;&lt;div&gt;&amp;nbsp; union CommonCondSrcIDDetail {&lt;/div&gt;&lt;div&gt;&amp;nbsp; &amp;nbsp; CondSrcIDDetail id_detail;&lt;/div&gt;&lt;div&gt;&amp;nbsp; &amp;nbsp; u64 src_id;&lt;/div&gt;&lt;div&gt;&amp;nbsp; };&lt;/div&gt;" style="rounded=1;whiteSpace=wrap;html=1;" vertex="1" parent="1">
          <mxGeometry x="-1500" y="3000" width="290" height="190" as="geometry" />
        </mxCell>
        <mxCell id="4SsSsS4Eq77Io_FzAa82-7" value="条件注册本身被当成了任务&lt;div&gt;AddActorConditionList --&amp;gt;&lt;br&gt;&lt;div&gt;AddConditionRegisterTask&lt;/div&gt;&lt;/div&gt;" style="rounded=1;whiteSpace=wrap;html=1;" vertex="1" parent="1">
          <mxGeometry x="-1490" y="3240" width="250" height="140" as="geometry" />
        </mxCell>
        <mxCell id="4SsSsS4Eq77Io_FzAa82-8" value="&lt;div&gt;u64 GetCondKey(u64 cond_id) {&lt;/div&gt;&lt;div&gt;&amp;nbsp; CommonCondSrc::CommonCondSrcIDDetail detail;&lt;/div&gt;&lt;div&gt;&amp;nbsp; detail.src_id = cond_id;&lt;/div&gt;&lt;div&gt;&amp;nbsp; detail.id_detail.index = 0;&lt;/div&gt;&lt;div&gt;&amp;nbsp; return detail.src_id;&lt;/div&gt;&lt;div&gt;}&lt;/div&gt;&lt;div&gt;&lt;b&gt;当index设为0时，即为cond_id的key&lt;/b&gt;&lt;/div&gt;" style="rounded=1;whiteSpace=wrap;html=1;" vertex="1" parent="1">
          <mxGeometry x="-1100" y="3005" width="240" height="180" as="geometry" />
        </mxCell>
        <mxCell id="4SsSsS4Eq77Io_FzAa82-10" value="&lt;div&gt;struct ConditionListData{&lt;/div&gt;&lt;div&gt;&amp;nbsp; g6shm::shm_map&amp;lt;u64, BaseCondPtr&amp;gt; cond_map;//&amp;lt;cond_id, BaseCondPtr&amp;gt;这里用map用到了有序性，在遍历与或关系的时候需要严格按照顺序来&lt;/div&gt;&lt;div&gt;&amp;nbsp; g6shm::shm_string ctx;&lt;/div&gt;&lt;div&gt;&amp;nbsp; void Clear() {&lt;/div&gt;&lt;div&gt;&amp;nbsp; &amp;nbsp; cond_map.clear();&lt;/div&gt;&lt;div&gt;&amp;nbsp; }&lt;/div&gt;&lt;div&gt;};&lt;/div&gt;" style="rounded=1;whiteSpace=wrap;html=1;" vertex="1" parent="1">
          <mxGeometry x="-890" y="3400" width="420" height="140" as="geometry" />
        </mxCell>
        <mxCell id="4SsSsS4Eq77Io_FzAa82-13" value="" style="edgeStyle=orthogonalEdgeStyle;rounded=0;orthogonalLoop=1;jettySize=auto;html=1;" edge="1" parent="1" source="4SsSsS4Eq77Io_FzAa82-11" target="4SsSsS4Eq77Io_FzAa82-12">
          <mxGeometry relative="1" as="geometry" />
        </mxCell>
        <mxCell id="4SsSsS4Eq77Io_FzAa82-11" value="uid" style="rounded=0;whiteSpace=wrap;html=1;" vertex="1" parent="1">
          <mxGeometry x="-1140" y="3440" width="70" height="60" as="geometry" />
        </mxCell>
        <mxCell id="4SsSsS4Eq77Io_FzAa82-16" value="" style="edgeStyle=orthogonalEdgeStyle;rounded=0;orthogonalLoop=1;jettySize=auto;html=1;" edge="1" parent="1" source="4SsSsS4Eq77Io_FzAa82-12" target="4SsSsS4Eq77Io_FzAa82-10">
          <mxGeometry relative="1" as="geometry" />
        </mxCell>
        <mxCell id="4SsSsS4Eq77Io_FzAa82-12" value="cond_key" style="rounded=0;whiteSpace=wrap;html=1;" vertex="1" parent="1">
          <mxGeometry x="-1028.12" y="3440" width="78.12" height="60" as="geometry" />
        </mxCell>
        <mxCell id="4SsSsS4Eq77Io_FzAa82-17" value="" style="endArrow=classic;html=1;rounded=0;" edge="1" parent="1">
          <mxGeometry width="50" height="50" relative="1" as="geometry">
            <mxPoint x="-1090" y="3400" as="sourcePoint" />
            <mxPoint x="-1010" y="3400" as="targetPoint" />
          </mxGeometry>
        </mxCell>
        <mxCell id="4SsSsS4Eq77Io_FzAa82-18" value="map" style="edgeLabel;html=1;align=center;verticalAlign=middle;resizable=0;points=[];" vertex="1" connectable="0" parent="4SsSsS4Eq77Io_FzAa82-17">
          <mxGeometry x="-0.2005" y="2" relative="1" as="geometry">
            <mxPoint y="2" as="offset" />
          </mxGeometry>
        </mxCell>
        <mxCell id="4SsSsS4Eq77Io_FzAa82-19" value="" style="endArrow=classic;html=1;rounded=0;" edge="1" parent="1">
          <mxGeometry width="50" height="50" relative="1" as="geometry">
            <mxPoint x="-970" y="3360" as="sourcePoint" />
            <mxPoint x="-870" y="3360" as="targetPoint" />
          </mxGeometry>
        </mxCell>
        <mxCell id="4SsSsS4Eq77Io_FzAa82-20" value="map" style="edgeLabel;html=1;align=center;verticalAlign=middle;resizable=0;points=[];" vertex="1" connectable="0" parent="4SsSsS4Eq77Io_FzAa82-19">
          <mxGeometry x="-0.2005" y="2" relative="1" as="geometry">
            <mxPoint y="2" as="offset" />
          </mxGeometry>
        </mxCell>
        <mxCell id="4SsSsS4Eq77Io_FzAa82-23" value="" style="edgeStyle=orthogonalEdgeStyle;rounded=0;orthogonalLoop=1;jettySize=auto;html=1;" edge="1" parent="1" source="4SsSsS4Eq77Io_FzAa82-21" target="4SsSsS4Eq77Io_FzAa82-22">
          <mxGeometry relative="1" as="geometry" />
        </mxCell>
        <mxCell id="4SsSsS4Eq77Io_FzAa82-21" value="cond_id" style="rounded=0;whiteSpace=wrap;html=1;" vertex="1" parent="1">
          <mxGeometry x="-810" y="3330" width="80" height="60" as="geometry" />
        </mxCell>
        <mxCell id="4SsSsS4Eq77Io_FzAa82-22" value="BaseCondPtr" style="rounded=0;whiteSpace=wrap;html=1;" vertex="1" parent="1">
          <mxGeometry x="-670" y="3330" width="80" height="60" as="geometry" />
        </mxCell>
        <mxCell id="4SsSsS4Eq77Io_FzAa82-24" value="" style="endArrow=classic;html=1;rounded=0;" edge="1" parent="1">
          <mxGeometry width="50" height="50" relative="1" as="geometry">
            <mxPoint x="-740" y="3280" as="sourcePoint" />
            <mxPoint x="-640" y="3280" as="targetPoint" />
          </mxGeometry>
        </mxCell>
        <mxCell id="4SsSsS4Eq77Io_FzAa82-25" value="map" style="edgeLabel;html=1;align=center;verticalAlign=middle;resizable=0;points=[];" vertex="1" connectable="0" parent="4SsSsS4Eq77Io_FzAa82-24">
          <mxGeometry x="-0.2005" y="2" relative="1" as="geometry">
            <mxPoint y="2" as="offset" />
          </mxGeometry>
        </mxCell>
        <mxCell id="4SsSsS4Eq77Io_FzAa82-26" value="事件管理" style="rounded=0;whiteSpace=wrap;html=1;" vertex="1" parent="1">
          <mxGeometry x="-1630" y="3680" width="200" height="160" as="geometry" />
        </mxCell>
        <mxCell id="4SsSsS4Eq77Io_FzAa82-30" style="edgeStyle=orthogonalEdgeStyle;rounded=0;orthogonalLoop=1;jettySize=auto;html=1;entryX=1;entryY=0.5;entryDx=0;entryDy=0;" edge="1" parent="1" source="4SsSsS4Eq77Io_FzAa82-27" target="4SsSsS4Eq77Io_FzAa82-26">
          <mxGeometry relative="1" as="geometry" />
        </mxCell>
        <mxCell id="4SsSsS4Eq77Io_FzAa82-27" value="" style="rounded=0;whiteSpace=wrap;html=1;" vertex="1" parent="1">
          <mxGeometry x="-1280" y="3680" width="200" height="160" as="geometry" />
        </mxCell>
        <mxCell id="4SsSsS4Eq77Io_FzAa82-29" style="edgeStyle=orthogonalEdgeStyle;rounded=0;orthogonalLoop=1;jettySize=auto;html=1;" edge="1" parent="1" source="4SsSsS4Eq77Io_FzAa82-28" target="4SsSsS4Eq77Io_FzAa82-26">
          <mxGeometry relative="1" as="geometry" />
        </mxCell>
        <mxCell id="4SsSsS4Eq77Io_FzAa82-28" value="事件源" style="rounded=0;whiteSpace=wrap;html=1;" vertex="1" parent="1">
          <mxGeometry x="-1960" y="3680" width="200" height="160" as="geometry" />
        </mxCell>
        <mxCell id="4SsSsS4Eq77Io_FzAa82-37" style="edgeStyle=orthogonalEdgeStyle;rounded=0;orthogonalLoop=1;jettySize=auto;html=1;entryX=0;entryY=0.5;entryDx=0;entryDy=0;" edge="1" parent="1" source="4SsSsS4Eq77Io_FzAa82-31" target="4SsSsS4Eq77Io_FzAa82-35">
          <mxGeometry relative="1" as="geometry" />
        </mxCell>
        <mxCell id="4SsSsS4Eq77Io_FzAa82-31" value="signal_slot_mgr信号管理类内有&lt;div&gt;&lt;span style=&quot;background-color: transparent; color: light-dark(rgb(0, 0, 0), rgb(255, 255, 255));&quot;&gt;很多函数对象，其一：ARCH_DESTROY_SIG&lt;/span&gt;&lt;/div&gt;&lt;div&gt;主要有两个工作：&lt;/div&gt;&lt;div&gt;1.connect，将所有的函数存起来&lt;/div&gt;&lt;div&gt;2. 重载operator()，执行所有函数&lt;/div&gt;" style="rounded=1;whiteSpace=wrap;html=1;" vertex="1" parent="1">
          <mxGeometry x="-2440" y="4310" width="180" height="100" as="geometry" />
        </mxCell>
        <mxCell id="4SsSsS4Eq77Io_FzAa82-35" value="connect_xxx&lt;div&gt;负载执行connect&lt;/div&gt;" style="rounded=1;whiteSpace=wrap;html=1;" vertex="1" parent="1">
          <mxGeometry x="-2180" y="4240" width="120" height="60" as="geometry" />
        </mxCell>
        <mxCell id="4SsSsS4Eq77Io_FzAa82-36" value="notify&lt;div&gt;负载执行 operator()&lt;/div&gt;" style="rounded=1;whiteSpace=wrap;html=1;" vertex="1" parent="1">
          <mxGeometry x="-2180" y="4420" width="120" height="60" as="geometry" />
        </mxCell>
        <mxCell id="4SsSsS4Eq77Io_FzAa82-38" style="edgeStyle=orthogonalEdgeStyle;rounded=0;orthogonalLoop=1;jettySize=auto;html=1;entryX=0.006;entryY=0.572;entryDx=0;entryDy=0;entryPerimeter=0;" edge="1" parent="1" source="4SsSsS4Eq77Io_FzAa82-31" target="4SsSsS4Eq77Io_FzAa82-36">
          <mxGeometry relative="1" as="geometry" />
        </mxCell>
        <mxCell id="4SsSsS4Eq77Io_FzAa82-39" value="" style="endArrow=classic;startArrow=classic;html=1;rounded=0;entryX=0.5;entryY=1;entryDx=0;entryDy=0;exitX=0.5;exitY=0;exitDx=0;exitDy=0;" edge="1" parent="1" source="4SsSsS4Eq77Io_FzAa82-36" target="4SsSsS4Eq77Io_FzAa82-35">
          <mxGeometry width="50" height="50" relative="1" as="geometry">
            <mxPoint x="-2140" y="4390" as="sourcePoint" />
            <mxPoint x="-2090" y="4340" as="targetPoint" />
          </mxGeometry>
        </mxCell>
        <mxCell id="4SsSsS4Eq77Io_FzAa82-40" value="同一个进程" style="text;html=1;align=center;verticalAlign=middle;whiteSpace=wrap;rounded=0;" vertex="1" parent="1">
          <mxGeometry x="-2120" y="4350" width="77" height="30" as="geometry" />
        </mxCell>
        <mxCell id="4SsSsS4Eq77Io_FzAa82-41" value="connect_xxx&lt;div&gt;负载执行connect&lt;/div&gt;" style="rounded=1;whiteSpace=wrap;html=1;" vertex="1" parent="1">
          <mxGeometry x="-1920" y="4240" width="120" height="60" as="geometry" />
        </mxCell>
        <mxCell id="4SsSsS4Eq77Io_FzAa82-42" value="notify&lt;div&gt;负载执行 operator()&lt;/div&gt;" style="rounded=1;whiteSpace=wrap;html=1;" vertex="1" parent="1">
          <mxGeometry x="-1920" y="4440" width="120" height="60" as="geometry" />
        </mxCell>
        <mxCell id="4SsSsS4Eq77Io_FzAa82-43" value="" style="endArrow=classic;html=1;rounded=0;entryX=0.5;entryY=1;entryDx=0;entryDy=0;exitX=0.5;exitY=0;exitDx=0;exitDy=0;dashed=1;dashPattern=8 8;" edge="1" parent="1" source="4SsSsS4Eq77Io_FzAa82-42" target="4SsSsS4Eq77Io_FzAa82-41">
          <mxGeometry width="50" height="50" relative="1" as="geometry">
            <mxPoint x="-1900" y="4430" as="sourcePoint" />
            <mxPoint x="-1850" y="4380" as="targetPoint" />
          </mxGeometry>
        </mxCell>
        <mxCell id="4SsSsS4Eq77Io_FzAa82-46" value="跨进程通过协议TRIGGER_EVENT_SYNC" style="text;html=1;align=center;verticalAlign=middle;whiteSpace=wrap;rounded=0;" vertex="1" parent="1">
          <mxGeometry x="-1860" y="4350" width="180" height="30" as="geometry" />
        </mxCell>
      </root>
    </mxGraphModel>
  </diagram>
  <diagram name="战斗流程图" id="8KjscfGbwWxPN4twkeld">
    <mxGraphModel dx="1612" dy="1150" grid="1" gridSize="10" guides="1" tooltips="1" connect="1" arrows="1" fold="1" page="1" pageScale="1" pageWidth="413" pageHeight="583" math="0" shadow="0">
      <root>
        <mxCell id="0" />
        <mxCell id="1" parent="0" />
        <mxCell id="6" style="edgeStyle=orthogonalEdgeStyle;rounded=0;orthogonalLoop=1;jettySize=auto;html=1;exitX=0.5;exitY=1;exitDx=0;exitDy=0;entryX=0.5;entryY=0;entryDx=0;entryDy=0;" parent="1" source="2" edge="1">
          <mxGeometry relative="1" as="geometry">
            <mxPoint x="207" y="262" as="targetPoint" />
          </mxGeometry>
        </mxCell>
        <mxCell id="2" value="战斗数据初始化" style="rounded=0;whiteSpace=wrap;html=1;" parent="1" vertex="1">
          <mxGeometry x="147" y="172" width="120" height="60" as="geometry" />
        </mxCell>
        <mxCell id="5" style="edgeStyle=orthogonalEdgeStyle;rounded=0;orthogonalLoop=1;jettySize=auto;html=1;exitX=0.5;exitY=1;exitDx=0;exitDy=0;exitPerimeter=0;entryX=0.5;entryY=0;entryDx=0;entryDy=0;" parent="1" source="3" target="2" edge="1">
          <mxGeometry relative="1" as="geometry" />
        </mxCell>
        <mxCell id="3" value="战斗开始" style="strokeWidth=2;html=1;shape=mxgraph.flowchart.terminator;whiteSpace=wrap;" parent="1" vertex="1">
          <mxGeometry x="157" y="82" width="100" height="60" as="geometry" />
        </mxCell>
        <mxCell id="8" style="edgeStyle=orthogonalEdgeStyle;rounded=0;orthogonalLoop=1;jettySize=auto;html=1;exitX=0.5;exitY=1;exitDx=0;exitDy=0;entryX=0.5;entryY=0;entryDx=0;entryDy=0;" parent="1" target="7" edge="1">
          <mxGeometry relative="1" as="geometry">
            <mxPoint x="207" y="322" as="sourcePoint" />
          </mxGeometry>
        </mxCell>
        <mxCell id="10" style="edgeStyle=orthogonalEdgeStyle;rounded=0;orthogonalLoop=1;jettySize=auto;html=1;exitX=0.5;exitY=1;exitDx=0;exitDy=0;entryX=0.5;entryY=0;entryDx=0;entryDy=0;entryPerimeter=0;" parent="1" source="7" target="9" edge="1">
          <mxGeometry relative="1" as="geometry" />
        </mxCell>
        <mxCell id="7" value="战斗结果和数据统计" style="rounded=0;whiteSpace=wrap;html=1;" parent="1" vertex="1">
          <mxGeometry x="147" y="352" width="120" height="60" as="geometry" />
        </mxCell>
        <mxCell id="9" value="战斗结束" style="strokeWidth=2;html=1;shape=mxgraph.flowchart.terminator;whiteSpace=wrap;" parent="1" vertex="1">
          <mxGeometry x="157" y="442" width="100" height="60" as="geometry" />
        </mxCell>
        <UserObject label="战斗过程" link="data:page/id,JSTrnKLuKRVnRWsLRhHf" id="21">
          <mxCell style="shape=process;whiteSpace=wrap;html=1;backgroundOutline=1;" parent="1" vertex="1">
            <mxGeometry x="147" y="262" width="120" height="60" as="geometry" />
          </mxCell>
        </UserObject>
      </root>
    </mxGraphModel>
  </diagram>
  <diagram name="战斗过程" id="vSuKGqXQ8vG0b71EwC4R">
    <mxGraphModel dx="1612" dy="1150" grid="1" gridSize="10" guides="1" tooltips="1" connect="1" arrows="1" fold="1" page="1" pageScale="1" pageWidth="413" pageHeight="583" math="0" shadow="0">
      <root>
        <mxCell id="XP5BZCQjXjsz3Um7e7gL-0" />
        <mxCell id="XP5BZCQjXjsz3Um7e7gL-1" parent="XP5BZCQjXjsz3Um7e7gL-0" />
        <mxCell id="12inaplxAC3INM-2JRLC-0" style="edgeStyle=orthogonalEdgeStyle;rounded=0;orthogonalLoop=1;jettySize=auto;html=1;exitX=0.5;exitY=1;exitDx=0;exitDy=0;exitPerimeter=0;entryX=0.5;entryY=0;entryDx=0;entryDy=0;" parent="XP5BZCQjXjsz3Um7e7gL-1" source="12inaplxAC3INM-2JRLC-1" target="12inaplxAC3INM-2JRLC-3" edge="1">
          <mxGeometry relative="1" as="geometry" />
        </mxCell>
        <mxCell id="12inaplxAC3INM-2JRLC-1" value="战斗过程开始" style="strokeWidth=2;html=1;shape=mxgraph.flowchart.terminator;whiteSpace=wrap;" parent="XP5BZCQjXjsz3Um7e7gL-1" vertex="1">
          <mxGeometry x="157" y="82" width="100" height="60" as="geometry" />
        </mxCell>
        <mxCell id="12inaplxAC3INM-2JRLC-2" style="edgeStyle=orthogonalEdgeStyle;rounded=0;orthogonalLoop=1;jettySize=auto;html=1;exitX=0.5;exitY=1;exitDx=0;exitDy=0;entryX=0.5;entryY=0;entryDx=0;entryDy=0;" parent="XP5BZCQjXjsz3Um7e7gL-1" source="12inaplxAC3INM-2JRLC-3" target="12inaplxAC3INM-2JRLC-8" edge="1">
          <mxGeometry relative="1" as="geometry" />
        </mxCell>
        <UserObject label="战前流程" link="data:page/id,MX1jwMGBFeWTfdwOVBwH" id="12inaplxAC3INM-2JRLC-3">
          <mxCell style="shape=process;whiteSpace=wrap;html=1;backgroundOutline=1;" parent="XP5BZCQjXjsz3Um7e7gL-1" vertex="1">
            <mxGeometry x="147" y="172" width="120" height="60" as="geometry" />
          </mxCell>
        </UserObject>
        <mxCell id="12inaplxAC3INM-2JRLC-4" style="edgeStyle=orthogonalEdgeStyle;rounded=0;orthogonalLoop=1;jettySize=auto;html=1;exitX=0.5;exitY=1;exitDx=0;exitDy=0;entryX=0.5;entryY=0;entryDx=0;entryDy=0;" parent="XP5BZCQjXjsz3Um7e7gL-1" source="12inaplxAC3INM-2JRLC-8" edge="1">
          <mxGeometry relative="1" as="geometry">
            <mxPoint x="207" y="352" as="targetPoint" />
          </mxGeometry>
        </mxCell>
        <mxCell id="12inaplxAC3INM-2JRLC-5" style="edgeStyle=orthogonalEdgeStyle;rounded=0;orthogonalLoop=1;jettySize=auto;html=1;exitX=0.5;exitY=1;exitDx=0;exitDy=0;entryX=0.5;entryY=0;entryDx=0;entryDy=0;entryPerimeter=0;" parent="XP5BZCQjXjsz3Um7e7gL-1" target="12inaplxAC3INM-2JRLC-7" edge="1">
          <mxGeometry relative="1" as="geometry">
            <mxPoint x="207" y="412" as="sourcePoint" />
          </mxGeometry>
        </mxCell>
        <mxCell id="12inaplxAC3INM-2JRLC-7" value="战斗过程结束" style="strokeWidth=2;html=1;shape=mxgraph.flowchart.terminator;whiteSpace=wrap;" parent="XP5BZCQjXjsz3Um7e7gL-1" vertex="1">
          <mxGeometry x="157" y="442" width="100" height="60" as="geometry" />
        </mxCell>
        <UserObject label="战斗回合" link="data:page/id,iNf9WRrqFEMjTXC535EK" id="12inaplxAC3INM-2JRLC-8">
          <mxCell style="shape=process;whiteSpace=wrap;html=1;backgroundOutline=1;" parent="XP5BZCQjXjsz3Um7e7gL-1" vertex="1">
            <mxGeometry x="147" y="262" width="120" height="60" as="geometry" />
          </mxCell>
        </UserObject>
        <mxCell id="VPfteyro6eORrd7P_Hbo-0" value="战斗结束计算结果" style="rounded=0;whiteSpace=wrap;html=1;" parent="XP5BZCQjXjsz3Um7e7gL-1" vertex="1">
          <mxGeometry x="147" y="350" width="120" height="60" as="geometry" />
        </mxCell>
      </root>
    </mxGraphModel>
  </diagram>
  <diagram name="战前流程" id="C69Ty5sQim_eol3_8Eu1">
    <mxGraphModel dx="1731" dy="1152" grid="1" gridSize="10" guides="1" tooltips="1" connect="1" arrows="1" fold="1" page="1" pageScale="1" pageWidth="583" pageHeight="827" math="0" shadow="0">
      <root>
        <mxCell id="2Nnxz_UPuSv9AoWKix39-0" />
        <mxCell id="2Nnxz_UPuSv9AoWKix39-1" parent="2Nnxz_UPuSv9AoWKix39-0" />
        <mxCell id="eihwDYsr17HISGHJ8WxY-0" style="edgeStyle=orthogonalEdgeStyle;rounded=0;orthogonalLoop=1;jettySize=auto;html=1;exitX=0.5;exitY=1;exitDx=0;exitDy=0;exitPerimeter=0;entryX=0.5;entryY=0;entryDx=0;entryDy=0;" parent="2Nnxz_UPuSv9AoWKix39-1" source="eihwDYsr17HISGHJ8WxY-1" target="eihwDYsr17HISGHJ8WxY-3" edge="1">
          <mxGeometry relative="1" as="geometry" />
        </mxCell>
        <mxCell id="eihwDYsr17HISGHJ8WxY-1" value="战前流程开始" style="strokeWidth=2;html=1;shape=mxgraph.flowchart.terminator;whiteSpace=wrap;" parent="2Nnxz_UPuSv9AoWKix39-1" vertex="1">
          <mxGeometry x="242" y="69" width="100" height="60" as="geometry" />
        </mxCell>
        <mxCell id="eihwDYsr17HISGHJ8WxY-2" style="edgeStyle=orthogonalEdgeStyle;rounded=0;orthogonalLoop=1;jettySize=auto;html=1;exitX=0.5;exitY=1;exitDx=0;exitDy=0;entryX=0.5;entryY=0;entryDx=0;entryDy=0;" parent="2Nnxz_UPuSv9AoWKix39-1" source="eihwDYsr17HISGHJ8WxY-3" target="eihwDYsr17HISGHJ8WxY-5" edge="1">
          <mxGeometry relative="1" as="geometry" />
        </mxCell>
        <mxCell id="eihwDYsr17HISGHJ8WxY-3" value="位置初始化" style="rounded=0;whiteSpace=wrap;html=1;" parent="2Nnxz_UPuSv9AoWKix39-1" vertex="1">
          <mxGeometry x="232" y="159" width="120" height="60" as="geometry" />
        </mxCell>
        <mxCell id="eihwDYsr17HISGHJ8WxY-4" style="edgeStyle=orthogonalEdgeStyle;rounded=0;orthogonalLoop=1;jettySize=auto;html=1;exitX=0.5;exitY=1;exitDx=0;exitDy=0;entryX=0.5;entryY=0;entryDx=0;entryDy=0;" parent="2Nnxz_UPuSv9AoWKix39-1" source="eihwDYsr17HISGHJ8WxY-5" target="eihwDYsr17HISGHJ8WxY-7" edge="1">
          <mxGeometry relative="1" as="geometry" />
        </mxCell>
        <mxCell id="eihwDYsr17HISGHJ8WxY-5" value="建筑加成" style="rounded=0;whiteSpace=wrap;html=1;" parent="2Nnxz_UPuSv9AoWKix39-1" vertex="1">
          <mxGeometry x="232" y="249" width="120" height="60" as="geometry" />
        </mxCell>
        <mxCell id="eihwDYsr17HISGHJ8WxY-6" style="edgeStyle=orthogonalEdgeStyle;rounded=0;orthogonalLoop=1;jettySize=auto;html=1;exitX=0.5;exitY=1;exitDx=0;exitDy=0;entryX=0.5;entryY=0;entryDx=0;entryDy=0;" parent="2Nnxz_UPuSv9AoWKix39-1" source="eihwDYsr17HISGHJ8WxY-7" target="eihwDYsr17HISGHJ8WxY-9" edge="1">
          <mxGeometry relative="1" as="geometry" />
        </mxCell>
        <mxCell id="eihwDYsr17HISGHJ8WxY-7" value="城区加成" style="rounded=0;whiteSpace=wrap;html=1;" parent="2Nnxz_UPuSv9AoWKix39-1" vertex="1">
          <mxGeometry x="232" y="339" width="120" height="60" as="geometry" />
        </mxCell>
        <mxCell id="eihwDYsr17HISGHJ8WxY-8" style="edgeStyle=orthogonalEdgeStyle;rounded=0;orthogonalLoop=1;jettySize=auto;html=1;exitX=0.5;exitY=1;exitDx=0;exitDy=0;entryX=0.5;entryY=0;entryDx=0;entryDy=0;" parent="2Nnxz_UPuSv9AoWKix39-1" source="eihwDYsr17HISGHJ8WxY-9" target="eihwDYsr17HISGHJ8WxY-11" edge="1">
          <mxGeometry relative="1" as="geometry" />
        </mxCell>
        <mxCell id="eihwDYsr17HISGHJ8WxY-9" value="科技加成" style="rounded=0;whiteSpace=wrap;html=1;" parent="2Nnxz_UPuSv9AoWKix39-1" vertex="1">
          <mxGeometry x="232" y="429" width="120" height="60" as="geometry" />
        </mxCell>
        <mxCell id="eihwDYsr17HISGHJ8WxY-10" style="edgeStyle=orthogonalEdgeStyle;rounded=0;orthogonalLoop=1;jettySize=auto;html=1;exitX=0.5;exitY=1;exitDx=0;exitDy=0;entryX=0.5;entryY=0;entryDx=0;entryDy=0;" parent="2Nnxz_UPuSv9AoWKix39-1" source="eihwDYsr17HISGHJ8WxY-11" target="eihwDYsr17HISGHJ8WxY-13" edge="1">
          <mxGeometry relative="1" as="geometry" />
        </mxCell>
        <mxCell id="eihwDYsr17HISGHJ8WxY-11" value="兵种特性" style="rounded=0;whiteSpace=wrap;html=1;" parent="2Nnxz_UPuSv9AoWKix39-1" vertex="1">
          <mxGeometry x="232" y="519" width="120" height="60" as="geometry" />
        </mxCell>
        <mxCell id="eihwDYsr17HISGHJ8WxY-12" style="edgeStyle=orthogonalEdgeStyle;rounded=0;orthogonalLoop=1;jettySize=auto;html=1;exitX=0.5;exitY=1;exitDx=0;exitDy=0;entryX=0.5;entryY=0;entryDx=0;entryDy=0;entryPerimeter=0;" parent="2Nnxz_UPuSv9AoWKix39-1" source="eihwDYsr17HISGHJ8WxY-13" target="eihwDYsr17HISGHJ8WxY-14" edge="1">
          <mxGeometry relative="1" as="geometry" />
        </mxCell>
        <mxCell id="eihwDYsr17HISGHJ8WxY-13" value="被动技能" style="rounded=0;whiteSpace=wrap;html=1;" parent="2Nnxz_UPuSv9AoWKix39-1" vertex="1">
          <mxGeometry x="232" y="609" width="120" height="60" as="geometry" />
        </mxCell>
        <mxCell id="eihwDYsr17HISGHJ8WxY-14" value="战前流程结束" style="strokeWidth=2;html=1;shape=mxgraph.flowchart.terminator;whiteSpace=wrap;" parent="2Nnxz_UPuSv9AoWKix39-1" vertex="1">
          <mxGeometry x="242" y="699" width="100" height="60" as="geometry" />
        </mxCell>
      </root>
    </mxGraphModel>
  </diagram>
  <diagram name="战斗回合" id="I2oyQPyZ0GEqeBlTQP_y">
    <mxGraphModel dx="1731" dy="1152" grid="1" gridSize="10" guides="1" tooltips="1" connect="1" arrows="1" fold="1" page="1" pageScale="1" pageWidth="413" pageHeight="583" math="0" shadow="0">
      <root>
        <mxCell id="HY58N9UwBHWv9HPK5QYT-0" />
        <mxCell id="HY58N9UwBHWv9HPK5QYT-1" parent="HY58N9UwBHWv9HPK5QYT-0" />
        <mxCell id="Ef3HuUgzlLtnSoFRcV2Q-9" style="edgeStyle=none;rounded=0;orthogonalLoop=1;jettySize=auto;html=1;exitX=0.5;exitY=1;exitDx=0;exitDy=0;exitPerimeter=0;entryX=0.5;entryY=0;entryDx=0;entryDy=0;entryPerimeter=0;" parent="HY58N9UwBHWv9HPK5QYT-1" source="vh6m4OxwJp_6b-A-KRQX-0" target="Ef3HuUgzlLtnSoFRcV2Q-4" edge="1">
          <mxGeometry relative="1" as="geometry" />
        </mxCell>
        <mxCell id="vh6m4OxwJp_6b-A-KRQX-0" value="战斗回合开始" style="strokeWidth=2;html=1;shape=mxgraph.flowchart.terminator;whiteSpace=wrap;" parent="HY58N9UwBHWv9HPK5QYT-1" vertex="1">
          <mxGeometry x="164" y="30" width="100" height="60" as="geometry" />
        </mxCell>
        <mxCell id="Ef3HuUgzlLtnSoFRcV2Q-3" value="战斗回合结束" style="strokeWidth=2;html=1;shape=mxgraph.flowchart.terminator;whiteSpace=wrap;" parent="HY58N9UwBHWv9HPK5QYT-1" vertex="1">
          <mxGeometry x="164" y="1090" width="100" height="60" as="geometry" />
        </mxCell>
        <mxCell id="Ef3HuUgzlLtnSoFRcV2Q-5" style="edgeStyle=none;rounded=0;orthogonalLoop=1;jettySize=auto;html=1;exitX=0;exitY=0.5;exitDx=0;exitDy=0;exitPerimeter=0;entryX=0;entryY=0.5;entryDx=0;entryDy=0;entryPerimeter=0;" parent="HY58N9UwBHWv9HPK5QYT-1" source="Ef3HuUgzlLtnSoFRcV2Q-4" target="Ef3HuUgzlLtnSoFRcV2Q-3" edge="1">
          <mxGeometry relative="1" as="geometry">
            <mxPoint x="164" y="1070" as="targetPoint" />
            <Array as="points">
              <mxPoint x="87" y="170" />
              <mxPoint x="80" y="1120" />
            </Array>
          </mxGeometry>
        </mxCell>
        <mxCell id="Ef3HuUgzlLtnSoFRcV2Q-13" style="edgeStyle=none;rounded=0;orthogonalLoop=1;jettySize=auto;html=1;exitX=0.5;exitY=1;exitDx=0;exitDy=0;exitPerimeter=0;entryX=0.5;entryY=0;entryDx=0;entryDy=0;" parent="HY58N9UwBHWv9HPK5QYT-1" source="Ef3HuUgzlLtnSoFRcV2Q-4" target="Ef3HuUgzlLtnSoFRcV2Q-12" edge="1">
          <mxGeometry relative="1" as="geometry" />
        </mxCell>
        <mxCell id="Ef3HuUgzlLtnSoFRcV2Q-4" value="防守方是否存在" style="strokeWidth=2;html=1;shape=mxgraph.flowchart.decision;whiteSpace=wrap;" parent="HY58N9UwBHWv9HPK5QYT-1" vertex="1">
          <mxGeometry x="164" y="120" width="100" height="100" as="geometry" />
        </mxCell>
        <mxCell id="Ef3HuUgzlLtnSoFRcV2Q-8" value="否" style="text;html=1;strokeColor=none;fillColor=none;align=center;verticalAlign=middle;whiteSpace=wrap;rounded=0;" parent="HY58N9UwBHWv9HPK5QYT-1" vertex="1">
          <mxGeometry x="107" y="140" width="40" height="20" as="geometry" />
        </mxCell>
        <mxCell id="fkzF4aRyROtxVTLzwFAI-4" style="edgeStyle=none;rounded=0;orthogonalLoop=1;jettySize=auto;html=1;exitX=0.5;exitY=1;exitDx=0;exitDy=0;entryX=0.5;entryY=0;entryDx=0;entryDy=0;" parent="HY58N9UwBHWv9HPK5QYT-1" source="Ef3HuUgzlLtnSoFRcV2Q-12" target="Ef3HuUgzlLtnSoFRcV2Q-16" edge="1">
          <mxGeometry relative="1" as="geometry" />
        </mxCell>
        <mxCell id="Ef3HuUgzlLtnSoFRcV2Q-12" value="更新行动顺序" style="rounded=0;whiteSpace=wrap;html=1;" parent="HY58N9UwBHWv9HPK5QYT-1" vertex="1">
          <mxGeometry x="154" y="250" width="120" height="60" as="geometry" />
        </mxCell>
        <mxCell id="Ef3HuUgzlLtnSoFRcV2Q-15" value="是" style="text;html=1;strokeColor=none;fillColor=none;align=center;verticalAlign=middle;whiteSpace=wrap;rounded=0;" parent="HY58N9UwBHWv9HPK5QYT-1" vertex="1">
          <mxGeometry x="224" y="220" width="40" height="20" as="geometry" />
        </mxCell>
        <mxCell id="fkzF4aRyROtxVTLzwFAI-5" style="edgeStyle=none;rounded=0;orthogonalLoop=1;jettySize=auto;html=1;exitX=0.5;exitY=1;exitDx=0;exitDy=0;entryX=0.5;entryY=0;entryDx=0;entryDy=0;" parent="HY58N9UwBHWv9HPK5QYT-1" source="Ef3HuUgzlLtnSoFRcV2Q-16" target="Ef3HuUgzlLtnSoFRcV2Q-17" edge="1">
          <mxGeometry relative="1" as="geometry" />
        </mxCell>
        <mxCell id="Ef3HuUgzlLtnSoFRcV2Q-16" value="回合开始前结算" style="rounded=0;whiteSpace=wrap;html=1;" parent="HY58N9UwBHWv9HPK5QYT-1" vertex="1">
          <mxGeometry x="154" y="340" width="120" height="60" as="geometry" />
        </mxCell>
        <mxCell id="geJSTJFNGaKEJ7WrVIBU-4" style="edgeStyle=none;rounded=0;orthogonalLoop=1;jettySize=auto;html=1;exitX=0.5;exitY=1;exitDx=0;exitDy=0;entryX=0.5;entryY=0;entryDx=0;entryDy=0;" parent="HY58N9UwBHWv9HPK5QYT-1" source="Ef3HuUgzlLtnSoFRcV2Q-17" target="geJSTJFNGaKEJ7WrVIBU-0" edge="1">
          <mxGeometry relative="1" as="geometry" />
        </mxCell>
        <mxCell id="Ef3HuUgzlLtnSoFRcV2Q-17" value="回合开始时" style="rounded=1;whiteSpace=wrap;html=1;" parent="HY58N9UwBHWv9HPK5QYT-1" vertex="1">
          <mxGeometry x="154" y="430" width="120" height="60" as="geometry" />
        </mxCell>
        <mxCell id="geJSTJFNGaKEJ7WrVIBU-6" style="edgeStyle=none;rounded=0;orthogonalLoop=1;jettySize=auto;html=1;exitX=0.5;exitY=1;exitDx=0;exitDy=0;entryX=0.5;entryY=0;entryDx=0;entryDy=0;" parent="HY58N9UwBHWv9HPK5QYT-1" source="fkzF4aRyROtxVTLzwFAI-0" target="geJSTJFNGaKEJ7WrVIBU-1" edge="1">
          <mxGeometry relative="1" as="geometry" />
        </mxCell>
        <UserObject label="武将按速度行动" link="data:page/id,A2z0xU-9DBcfR-sCrh9b" id="fkzF4aRyROtxVTLzwFAI-0">
          <mxCell style="shape=process;whiteSpace=wrap;html=1;backgroundOutline=1;" parent="HY58N9UwBHWv9HPK5QYT-1" vertex="1">
            <mxGeometry x="154" y="610" width="120" height="60" as="geometry" />
          </mxCell>
        </UserObject>
        <mxCell id="geJSTJFNGaKEJ7WrVIBU-13" style="edgeStyle=none;rounded=0;orthogonalLoop=1;jettySize=auto;html=1;exitX=0.5;exitY=1;exitDx=0;exitDy=0;entryX=0.5;entryY=0;entryDx=0;entryDy=0;" parent="HY58N9UwBHWv9HPK5QYT-1" source="fkzF4aRyROtxVTLzwFAI-2" target="fkzF4aRyROtxVTLzwFAI-3" edge="1">
          <mxGeometry relative="1" as="geometry" />
        </mxCell>
        <mxCell id="fkzF4aRyROtxVTLzwFAI-2" value="回合结束时" style="rounded=1;whiteSpace=wrap;html=1;" parent="HY58N9UwBHWv9HPK5QYT-1" vertex="1">
          <mxGeometry x="154" y="890" width="120" height="60" as="geometry" />
        </mxCell>
        <mxCell id="fkzF4aRyROtxVTLzwFAI-11" style="edgeStyle=none;rounded=0;orthogonalLoop=1;jettySize=auto;html=1;exitX=1;exitY=0.5;exitDx=0;exitDy=0;entryX=1;entryY=0.5;entryDx=0;entryDy=0;" parent="HY58N9UwBHWv9HPK5QYT-1" source="fkzF4aRyROtxVTLzwFAI-3" target="Ef3HuUgzlLtnSoFRcV2Q-16" edge="1">
          <mxGeometry relative="1" as="geometry">
            <Array as="points">
              <mxPoint x="327" y="1020" />
              <mxPoint x="327" y="370" />
            </Array>
          </mxGeometry>
        </mxCell>
        <mxCell id="geJSTJFNGaKEJ7WrVIBU-3" style="edgeStyle=none;rounded=0;orthogonalLoop=1;jettySize=auto;html=1;exitX=0.5;exitY=1;exitDx=0;exitDy=0;entryX=0.5;entryY=0;entryDx=0;entryDy=0;entryPerimeter=0;" parent="HY58N9UwBHWv9HPK5QYT-1" source="fkzF4aRyROtxVTLzwFAI-3" target="Ef3HuUgzlLtnSoFRcV2Q-3" edge="1">
          <mxGeometry relative="1" as="geometry" />
        </mxCell>
        <mxCell id="fkzF4aRyROtxVTLzwFAI-3" value="回合数&amp;gt;8" style="rhombus;whiteSpace=wrap;html=1;" parent="HY58N9UwBHWv9HPK5QYT-1" vertex="1">
          <mxGeometry x="174" y="980" width="80" height="80" as="geometry" />
        </mxCell>
        <mxCell id="fkzF4aRyROtxVTLzwFAI-10" value="是" style="text;html=1;strokeColor=none;fillColor=none;align=center;verticalAlign=middle;whiteSpace=wrap;rounded=0;" parent="HY58N9UwBHWv9HPK5QYT-1" vertex="1">
          <mxGeometry x="214" y="1060" width="40" height="20" as="geometry" />
        </mxCell>
        <mxCell id="fkzF4aRyROtxVTLzwFAI-12" value="否" style="text;html=1;strokeColor=none;fillColor=none;align=center;verticalAlign=middle;whiteSpace=wrap;rounded=0;" parent="HY58N9UwBHWv9HPK5QYT-1" vertex="1">
          <mxGeometry x="264" y="990" width="40" height="20" as="geometry" />
        </mxCell>
        <mxCell id="geJSTJFNGaKEJ7WrVIBU-5" style="edgeStyle=none;rounded=0;orthogonalLoop=1;jettySize=auto;html=1;exitX=0.5;exitY=1;exitDx=0;exitDy=0;entryX=0.5;entryY=0;entryDx=0;entryDy=0;" parent="HY58N9UwBHWv9HPK5QYT-1" source="geJSTJFNGaKEJ7WrVIBU-0" target="fkzF4aRyROtxVTLzwFAI-0" edge="1">
          <mxGeometry relative="1" as="geometry" />
        </mxCell>
        <UserObject label="执行预备的触发技" link="data:page/id,_wKeDqSNoWvv0K4jZEV4" id="geJSTJFNGaKEJ7WrVIBU-0">
          <mxCell style="shape=process;whiteSpace=wrap;html=1;backgroundOutline=1;" parent="HY58N9UwBHWv9HPK5QYT-1" vertex="1">
            <mxGeometry x="154" y="520" width="120" height="60" as="geometry" />
          </mxCell>
        </UserObject>
        <mxCell id="geJSTJFNGaKEJ7WrVIBU-7" style="edgeStyle=none;rounded=0;orthogonalLoop=1;jettySize=auto;html=1;exitX=0.5;exitY=1;exitDx=0;exitDy=0;entryX=0.5;entryY=0;entryDx=0;entryDy=0;" parent="HY58N9UwBHWv9HPK5QYT-1" source="geJSTJFNGaKEJ7WrVIBU-1" target="geJSTJFNGaKEJ7WrVIBU-2" edge="1">
          <mxGeometry relative="1" as="geometry" />
        </mxCell>
        <mxCell id="geJSTJFNGaKEJ7WrVIBU-10" style="edgeStyle=none;rounded=0;orthogonalLoop=1;jettySize=auto;html=1;exitX=0;exitY=0.5;exitDx=0;exitDy=0;entryX=0;entryY=0.5;entryDx=0;entryDy=0;" parent="HY58N9UwBHWv9HPK5QYT-1" source="geJSTJFNGaKEJ7WrVIBU-1" target="fkzF4aRyROtxVTLzwFAI-2" edge="1">
          <mxGeometry relative="1" as="geometry">
            <Array as="points">
              <mxPoint x="120" y="730" />
              <mxPoint x="120" y="920" />
            </Array>
          </mxGeometry>
        </mxCell>
        <mxCell id="geJSTJFNGaKEJ7WrVIBU-1" value="是否更新出手顺序" style="rhombus;whiteSpace=wrap;html=1;" parent="HY58N9UwBHWv9HPK5QYT-1" vertex="1">
          <mxGeometry x="174" y="690" width="80" height="80" as="geometry" />
        </mxCell>
        <mxCell id="geJSTJFNGaKEJ7WrVIBU-12" style="edgeStyle=none;rounded=0;orthogonalLoop=1;jettySize=auto;html=1;exitX=0.5;exitY=1;exitDx=0;exitDy=0;entryX=0.5;entryY=0;entryDx=0;entryDy=0;" parent="HY58N9UwBHWv9HPK5QYT-1" source="geJSTJFNGaKEJ7WrVIBU-2" target="fkzF4aRyROtxVTLzwFAI-2" edge="1">
          <mxGeometry relative="1" as="geometry" />
        </mxCell>
        <mxCell id="geJSTJFNGaKEJ7WrVIBU-2" value="更新出手顺序" style="rounded=0;whiteSpace=wrap;html=1;" parent="HY58N9UwBHWv9HPK5QYT-1" vertex="1">
          <mxGeometry x="154" y="800" width="120" height="60" as="geometry" />
        </mxCell>
        <mxCell id="geJSTJFNGaKEJ7WrVIBU-8" value="是" style="text;html=1;strokeColor=none;fillColor=none;align=center;verticalAlign=middle;whiteSpace=wrap;rounded=0;" parent="HY58N9UwBHWv9HPK5QYT-1" vertex="1">
          <mxGeometry x="214" y="770" width="40" height="20" as="geometry" />
        </mxCell>
        <mxCell id="geJSTJFNGaKEJ7WrVIBU-11" value="否" style="text;html=1;strokeColor=none;fillColor=none;align=center;verticalAlign=middle;whiteSpace=wrap;rounded=0;" parent="HY58N9UwBHWv9HPK5QYT-1" vertex="1">
          <mxGeometry x="134" y="740" width="40" height="20" as="geometry" />
        </mxCell>
      </root>
    </mxGraphModel>
  </diagram>
  <diagram name="武将行动" id="7Nx2WX_khhcngJ9e_isp">
    <mxGraphModel dx="1731" dy="1152" grid="1" gridSize="10" guides="1" tooltips="1" connect="1" arrows="1" fold="1" page="1" pageScale="1" pageWidth="413" pageHeight="583" math="0" shadow="0">
      <root>
        <mxCell id="2MGIPr9YSdgIlL3UcLnR-0" />
        <mxCell id="2MGIPr9YSdgIlL3UcLnR-1" parent="2MGIPr9YSdgIlL3UcLnR-0" />
        <mxCell id="wML6uQHaAcCa4zUYduUJ-3" style="edgeStyle=none;rounded=0;orthogonalLoop=1;jettySize=auto;html=1;exitX=0.5;exitY=1;exitDx=0;exitDy=0;exitPerimeter=0;entryX=0.5;entryY=0;entryDx=0;entryDy=0;" parent="2MGIPr9YSdgIlL3UcLnR-1" source="sDqIfoT08f16Sa4X9kI6-0" target="u6s35TmW0YCkAqJu2gHu-0" edge="1">
          <mxGeometry relative="1" as="geometry" />
        </mxCell>
        <mxCell id="sDqIfoT08f16Sa4X9kI6-0" value="武将行动开始" style="strokeWidth=2;html=1;shape=mxgraph.flowchart.terminator;whiteSpace=wrap;" parent="2MGIPr9YSdgIlL3UcLnR-1" vertex="1">
          <mxGeometry x="157" y="30" width="100" height="60" as="geometry" />
        </mxCell>
        <mxCell id="wML6uQHaAcCa4zUYduUJ-4" style="edgeStyle=none;rounded=0;orthogonalLoop=1;jettySize=auto;html=1;exitX=0.5;exitY=1;exitDx=0;exitDy=0;entryX=0.5;entryY=0;entryDx=0;entryDy=0;" parent="2MGIPr9YSdgIlL3UcLnR-1" source="u6s35TmW0YCkAqJu2gHu-0" target="N35ECCdrSqyczbjZVAO9-0" edge="1">
          <mxGeometry relative="1" as="geometry" />
        </mxCell>
        <mxCell id="u6s35TmW0YCkAqJu2gHu-0" value="按速度获得本回合可以行动的武将" style="rounded=0;whiteSpace=wrap;html=1;" parent="2MGIPr9YSdgIlL3UcLnR-1" vertex="1">
          <mxGeometry x="147" y="120" width="120" height="60" as="geometry" />
        </mxCell>
        <mxCell id="wML6uQHaAcCa4zUYduUJ-5" style="edgeStyle=none;rounded=0;orthogonalLoop=1;jettySize=auto;html=1;exitX=0.5;exitY=1;exitDx=0;exitDy=0;entryX=0.5;entryY=0;entryDx=0;entryDy=0;" parent="2MGIPr9YSdgIlL3UcLnR-1" source="N35ECCdrSqyczbjZVAO9-0" target="N35ECCdrSqyczbjZVAO9-1" edge="1">
          <mxGeometry relative="1" as="geometry" />
        </mxCell>
        <mxCell id="N35ECCdrSqyczbjZVAO9-0" value="个人回合开始时" style="rounded=1;whiteSpace=wrap;html=1;" parent="2MGIPr9YSdgIlL3UcLnR-1" vertex="1">
          <mxGeometry x="147" y="210" width="120" height="60" as="geometry" />
        </mxCell>
        <mxCell id="wML6uQHaAcCa4zUYduUJ-7" style="edgeStyle=none;rounded=0;orthogonalLoop=1;jettySize=auto;html=1;exitX=0.5;exitY=1;exitDx=0;exitDy=0;entryX=0.5;entryY=0;entryDx=0;entryDy=0;" parent="2MGIPr9YSdgIlL3UcLnR-1" source="N35ECCdrSqyczbjZVAO9-1" target="2xXbBe4T5f0jATi7n3rx-0" edge="1">
          <mxGeometry relative="1" as="geometry" />
        </mxCell>
        <mxCell id="N35ECCdrSqyczbjZVAO9-1" value="持续释放技能停止检测" style="rounded=0;whiteSpace=wrap;html=1;" parent="2MGIPr9YSdgIlL3UcLnR-1" vertex="1">
          <mxGeometry x="147" y="300" width="120" height="60" as="geometry" />
        </mxCell>
        <mxCell id="wML6uQHaAcCa4zUYduUJ-8" style="edgeStyle=none;rounded=0;orthogonalLoop=1;jettySize=auto;html=1;exitX=0.5;exitY=1;exitDx=0;exitDy=0;entryX=0.5;entryY=0;entryDx=0;entryDy=0;" parent="2MGIPr9YSdgIlL3UcLnR-1" source="2xXbBe4T5f0jATi7n3rx-0" target="2xXbBe4T5f0jATi7n3rx-3" edge="1">
          <mxGeometry relative="1" as="geometry" />
        </mxCell>
        <UserObject label="执行预备的触发技" link="data:page/id,_wKeDqSNoWvv0K4jZEV4" id="2xXbBe4T5f0jATi7n3rx-0">
          <mxCell style="shape=process;whiteSpace=wrap;html=1;backgroundOutline=1;" parent="2MGIPr9YSdgIlL3UcLnR-1" vertex="1">
            <mxGeometry x="147" y="390" width="120" height="60" as="geometry" />
          </mxCell>
        </UserObject>
        <mxCell id="wML6uQHaAcCa4zUYduUJ-13" style="edgeStyle=none;rounded=0;orthogonalLoop=1;jettySize=auto;html=1;exitX=0.5;exitY=1;exitDx=0;exitDy=0;entryX=0.5;entryY=0;entryDx=0;entryDy=0;" parent="2MGIPr9YSdgIlL3UcLnR-1" source="2xXbBe4T5f0jATi7n3rx-1" target="2xXbBe4T5f0jATi7n3rx-4" edge="1">
          <mxGeometry relative="1" as="geometry" />
        </mxCell>
        <UserObject label="释放主动技能流程" link="data:page/id,NCxQVliSJbSWj566na4i" id="2xXbBe4T5f0jATi7n3rx-1">
          <mxCell style="shape=process;whiteSpace=wrap;html=1;backgroundOutline=1;" parent="2MGIPr9YSdgIlL3UcLnR-1" vertex="1">
            <mxGeometry x="147" y="590" width="120" height="60" as="geometry" />
          </mxCell>
        </UserObject>
        <mxCell id="2xXbBe4T5f0jATi7n3rx-2" value="武将行动结束" style="strokeWidth=2;html=1;shape=mxgraph.flowchart.terminator;whiteSpace=wrap;" parent="2MGIPr9YSdgIlL3UcLnR-1" vertex="1">
          <mxGeometry x="157" y="1190" width="100" height="60" as="geometry" />
        </mxCell>
        <mxCell id="wML6uQHaAcCa4zUYduUJ-9" style="edgeStyle=none;rounded=0;orthogonalLoop=1;jettySize=auto;html=1;exitX=0.5;exitY=1;exitDx=0;exitDy=0;entryX=0.5;entryY=0;entryDx=0;entryDy=0;" parent="2MGIPr9YSdgIlL3UcLnR-1" source="2xXbBe4T5f0jATi7n3rx-3" target="2xXbBe4T5f0jATi7n3rx-1" edge="1">
          <mxGeometry relative="1" as="geometry" />
        </mxCell>
        <mxCell id="wML6uQHaAcCa4zUYduUJ-11" style="edgeStyle=none;rounded=0;orthogonalLoop=1;jettySize=auto;html=1;exitX=1;exitY=0.5;exitDx=0;exitDy=0;entryX=1;entryY=0.5;entryDx=0;entryDy=0;" parent="2MGIPr9YSdgIlL3UcLnR-1" source="2xXbBe4T5f0jATi7n3rx-3" target="wML6uQHaAcCa4zUYduUJ-2" edge="1">
          <mxGeometry relative="1" as="geometry">
            <mxPoint x="280" y="1449" as="targetPoint" />
            <Array as="points">
              <mxPoint x="320" y="520" />
              <mxPoint x="320" y="1020" />
            </Array>
          </mxGeometry>
        </mxCell>
        <mxCell id="2xXbBe4T5f0jATi7n3rx-3" value="武将是否死亡" style="rhombus;whiteSpace=wrap;html=1;" parent="2MGIPr9YSdgIlL3UcLnR-1" vertex="1">
          <mxGeometry x="167" y="480" width="80" height="80" as="geometry" />
        </mxCell>
        <mxCell id="wML6uQHaAcCa4zUYduUJ-14" style="edgeStyle=none;rounded=0;orthogonalLoop=1;jettySize=auto;html=1;exitX=1;exitY=0.5;exitDx=0;exitDy=0;" parent="2MGIPr9YSdgIlL3UcLnR-1" source="2xXbBe4T5f0jATi7n3rx-4" edge="1">
          <mxGeometry relative="1" as="geometry">
            <mxPoint x="320" y="720" as="targetPoint" />
          </mxGeometry>
        </mxCell>
        <mxCell id="wML6uQHaAcCa4zUYduUJ-16" style="edgeStyle=none;rounded=0;orthogonalLoop=1;jettySize=auto;html=1;exitX=0.5;exitY=1;exitDx=0;exitDy=0;entryX=0.5;entryY=0;entryDx=0;entryDy=0;" parent="2MGIPr9YSdgIlL3UcLnR-1" source="2xXbBe4T5f0jATi7n3rx-4" target="2xXbBe4T5f0jATi7n3rx-5" edge="1">
          <mxGeometry relative="1" as="geometry" />
        </mxCell>
        <mxCell id="2xXbBe4T5f0jATi7n3rx-4" value="武将是否死亡" style="rhombus;whiteSpace=wrap;html=1;" parent="2MGIPr9YSdgIlL3UcLnR-1" vertex="1">
          <mxGeometry x="167" y="680" width="80" height="80" as="geometry" />
        </mxCell>
        <mxCell id="53lykM5rS6vcJgnFKgwO-0" style="edgeStyle=none;rounded=0;orthogonalLoop=1;jettySize=auto;html=1;exitX=0.5;exitY=1;exitDx=0;exitDy=0;entryX=0.5;entryY=0;entryDx=0;entryDy=0;" parent="2MGIPr9YSdgIlL3UcLnR-1" source="2xXbBe4T5f0jATi7n3rx-5" target="wML6uQHaAcCa4zUYduUJ-1" edge="1">
          <mxGeometry relative="1" as="geometry" />
        </mxCell>
        <UserObject label="普通攻击流程" link="data:page/id,UKOY5qHUeYZzSqCgvOOC" id="2xXbBe4T5f0jATi7n3rx-5">
          <mxCell style="shape=process;whiteSpace=wrap;html=1;backgroundOutline=1;" parent="2MGIPr9YSdgIlL3UcLnR-1" vertex="1">
            <mxGeometry x="147" y="790" width="120" height="60" as="geometry" />
          </mxCell>
        </UserObject>
        <mxCell id="53lykM5rS6vcJgnFKgwO-1" style="edgeStyle=none;rounded=0;orthogonalLoop=1;jettySize=auto;html=1;exitX=0.5;exitY=1;exitDx=0;exitDy=0;entryX=0.5;entryY=0;entryDx=0;entryDy=0;" parent="2MGIPr9YSdgIlL3UcLnR-1" source="wML6uQHaAcCa4zUYduUJ-1" target="wML6uQHaAcCa4zUYduUJ-2" edge="1">
          <mxGeometry relative="1" as="geometry" />
        </mxCell>
        <mxCell id="53lykM5rS6vcJgnFKgwO-8" style="edgeStyle=none;rounded=0;orthogonalLoop=1;jettySize=auto;html=1;exitX=1;exitY=0.5;exitDx=0;exitDy=0;" parent="2MGIPr9YSdgIlL3UcLnR-1" source="wML6uQHaAcCa4zUYduUJ-1" edge="1">
          <mxGeometry relative="1" as="geometry">
            <mxPoint x="320" y="915" as="targetPoint" />
          </mxGeometry>
        </mxCell>
        <mxCell id="wML6uQHaAcCa4zUYduUJ-1" value="武将是否死亡" style="rhombus;whiteSpace=wrap;html=1;" parent="2MGIPr9YSdgIlL3UcLnR-1" vertex="1">
          <mxGeometry x="167" y="874.5" width="80" height="80" as="geometry" />
        </mxCell>
        <mxCell id="53lykM5rS6vcJgnFKgwO-2" style="edgeStyle=none;rounded=0;orthogonalLoop=1;jettySize=auto;html=1;exitX=0.5;exitY=1;exitDx=0;exitDy=0;entryX=0.5;entryY=0;entryDx=0;entryDy=0;" parent="2MGIPr9YSdgIlL3UcLnR-1" source="wML6uQHaAcCa4zUYduUJ-2" target="wML6uQHaAcCa4zUYduUJ-6" edge="1">
          <mxGeometry relative="1" as="geometry" />
        </mxCell>
        <mxCell id="wML6uQHaAcCa4zUYduUJ-2" value="个人回合结束时" style="rounded=1;whiteSpace=wrap;html=1;" parent="2MGIPr9YSdgIlL3UcLnR-1" vertex="1">
          <mxGeometry x="147" y="990" width="120" height="60" as="geometry" />
        </mxCell>
        <mxCell id="53lykM5rS6vcJgnFKgwO-3" style="edgeStyle=none;rounded=0;orthogonalLoop=1;jettySize=auto;html=1;exitX=0;exitY=0.5;exitDx=0;exitDy=0;entryX=0;entryY=0.5;entryDx=0;entryDy=0;" parent="2MGIPr9YSdgIlL3UcLnR-1" source="wML6uQHaAcCa4zUYduUJ-6" target="u6s35TmW0YCkAqJu2gHu-0" edge="1">
          <mxGeometry relative="1" as="geometry">
            <Array as="points">
              <mxPoint x="80" y="1120" />
              <mxPoint x="80" y="150" />
            </Array>
          </mxGeometry>
        </mxCell>
        <mxCell id="53lykM5rS6vcJgnFKgwO-5" style="edgeStyle=none;rounded=0;orthogonalLoop=1;jettySize=auto;html=1;exitX=0.5;exitY=1;exitDx=0;exitDy=0;entryX=0.5;entryY=0;entryDx=0;entryDy=0;entryPerimeter=0;" parent="2MGIPr9YSdgIlL3UcLnR-1" source="wML6uQHaAcCa4zUYduUJ-6" target="2xXbBe4T5f0jATi7n3rx-2" edge="1">
          <mxGeometry relative="1" as="geometry" />
        </mxCell>
        <mxCell id="wML6uQHaAcCa4zUYduUJ-6" value="是否所有武将都行动过" style="rhombus;whiteSpace=wrap;html=1;" parent="2MGIPr9YSdgIlL3UcLnR-1" vertex="1">
          <mxGeometry x="167" y="1080" width="80" height="80" as="geometry" />
        </mxCell>
        <mxCell id="wML6uQHaAcCa4zUYduUJ-10" value="否" style="text;html=1;strokeColor=none;fillColor=none;align=center;verticalAlign=middle;whiteSpace=wrap;rounded=0;" parent="2MGIPr9YSdgIlL3UcLnR-1" vertex="1">
          <mxGeometry x="207" y="563" width="40" height="20" as="geometry" />
        </mxCell>
        <mxCell id="wML6uQHaAcCa4zUYduUJ-12" value="是" style="text;html=1;strokeColor=none;fillColor=none;align=center;verticalAlign=middle;whiteSpace=wrap;rounded=0;" parent="2MGIPr9YSdgIlL3UcLnR-1" vertex="1">
          <mxGeometry x="257" y="530" width="40" height="20" as="geometry" />
        </mxCell>
        <mxCell id="wML6uQHaAcCa4zUYduUJ-15" value="是" style="text;html=1;strokeColor=none;fillColor=none;align=center;verticalAlign=middle;whiteSpace=wrap;rounded=0;" parent="2MGIPr9YSdgIlL3UcLnR-1" vertex="1">
          <mxGeometry x="257" y="730" width="40" height="20" as="geometry" />
        </mxCell>
        <mxCell id="wML6uQHaAcCa4zUYduUJ-17" value="否" style="text;html=1;strokeColor=none;fillColor=none;align=center;verticalAlign=middle;whiteSpace=wrap;rounded=0;" parent="2MGIPr9YSdgIlL3UcLnR-1" vertex="1">
          <mxGeometry x="217" y="760" width="40" height="20" as="geometry" />
        </mxCell>
        <mxCell id="53lykM5rS6vcJgnFKgwO-4" value="否" style="text;html=1;strokeColor=none;fillColor=none;align=center;verticalAlign=middle;whiteSpace=wrap;rounded=0;" parent="2MGIPr9YSdgIlL3UcLnR-1" vertex="1">
          <mxGeometry x="100" y="1090" width="40" height="20" as="geometry" />
        </mxCell>
        <mxCell id="53lykM5rS6vcJgnFKgwO-6" value="是" style="text;html=1;strokeColor=none;fillColor=none;align=center;verticalAlign=middle;whiteSpace=wrap;rounded=0;" parent="2MGIPr9YSdgIlL3UcLnR-1" vertex="1">
          <mxGeometry x="207" y="1160" width="40" height="20" as="geometry" />
        </mxCell>
        <mxCell id="53lykM5rS6vcJgnFKgwO-9" value="否" style="text;html=1;strokeColor=none;fillColor=none;align=center;verticalAlign=middle;whiteSpace=wrap;rounded=0;" parent="2MGIPr9YSdgIlL3UcLnR-1" vertex="1">
          <mxGeometry x="217" y="954.5" width="40" height="20" as="geometry" />
        </mxCell>
        <mxCell id="53lykM5rS6vcJgnFKgwO-10" value="是" style="text;html=1;strokeColor=none;fillColor=none;align=center;verticalAlign=middle;whiteSpace=wrap;rounded=0;" parent="2MGIPr9YSdgIlL3UcLnR-1" vertex="1">
          <mxGeometry x="257" y="930" width="40" height="20" as="geometry" />
        </mxCell>
      </root>
    </mxGraphModel>
  </diagram>
  <diagram name="触发技能" id="Wyac492lGAMoWItVzp01">
    <mxGraphModel dx="1731" dy="1152" grid="1" gridSize="10" guides="1" tooltips="1" connect="1" arrows="1" fold="1" page="1" pageScale="1" pageWidth="413" pageHeight="583" math="0" shadow="0">
      <root>
        <mxCell id="kZCEDSCV3PqrCQLKHHvL-0" />
        <mxCell id="kZCEDSCV3PqrCQLKHHvL-1" parent="kZCEDSCV3PqrCQLKHHvL-0" />
        <mxCell id="q5sLKofAN_wmgeeW9Mg3-13" style="edgeStyle=orthogonalEdgeStyle;rounded=0;orthogonalLoop=1;jettySize=auto;html=1;exitX=0.5;exitY=1;exitDx=0;exitDy=0;exitPerimeter=0;entryX=0.5;entryY=0;entryDx=0;entryDy=0;" edge="1" parent="kZCEDSCV3PqrCQLKHHvL-1" source="q5sLKofAN_wmgeeW9Mg3-0" target="q5sLKofAN_wmgeeW9Mg3-1">
          <mxGeometry relative="1" as="geometry" />
        </mxCell>
        <mxCell id="q5sLKofAN_wmgeeW9Mg3-0" value="触发技能开始" style="strokeWidth=2;html=1;shape=mxgraph.flowchart.terminator;whiteSpace=wrap;" vertex="1" parent="kZCEDSCV3PqrCQLKHHvL-1">
          <mxGeometry x="149" y="20" width="100" height="60" as="geometry" />
        </mxCell>
        <mxCell id="q5sLKofAN_wmgeeW9Mg3-14" style="edgeStyle=orthogonalEdgeStyle;rounded=0;orthogonalLoop=1;jettySize=auto;html=1;exitX=0.5;exitY=1;exitDx=0;exitDy=0;entryX=0.5;entryY=0;entryDx=0;entryDy=0;" edge="1" parent="kZCEDSCV3PqrCQLKHHvL-1" source="q5sLKofAN_wmgeeW9Mg3-1" target="q5sLKofAN_wmgeeW9Mg3-2">
          <mxGeometry relative="1" as="geometry" />
        </mxCell>
        <mxCell id="q5sLKofAN_wmgeeW9Mg3-19" style="edgeStyle=orthogonalEdgeStyle;rounded=0;orthogonalLoop=1;jettySize=auto;html=1;exitX=0;exitY=0.5;exitDx=0;exitDy=0;entryX=0;entryY=0.5;entryDx=0;entryDy=0;entryPerimeter=0;" edge="1" parent="kZCEDSCV3PqrCQLKHHvL-1" source="q5sLKofAN_wmgeeW9Mg3-1" target="q5sLKofAN_wmgeeW9Mg3-12">
          <mxGeometry relative="1" as="geometry">
            <Array as="points">
              <mxPoint x="102" y="150" />
              <mxPoint x="102" y="1120" />
            </Array>
          </mxGeometry>
        </mxCell>
        <mxCell id="q5sLKofAN_wmgeeW9Mg3-1" value="是否混乱" style="rhombus;whiteSpace=wrap;html=1;" vertex="1" parent="kZCEDSCV3PqrCQLKHHvL-1">
          <mxGeometry x="159" y="110" width="80" height="80" as="geometry" />
        </mxCell>
        <mxCell id="q5sLKofAN_wmgeeW9Mg3-16" style="edgeStyle=orthogonalEdgeStyle;rounded=0;orthogonalLoop=1;jettySize=auto;html=1;exitX=0.5;exitY=1;exitDx=0;exitDy=0;entryX=0.5;entryY=0;entryDx=0;entryDy=0;" edge="1" parent="kZCEDSCV3PqrCQLKHHvL-1" source="q5sLKofAN_wmgeeW9Mg3-2" target="q5sLKofAN_wmgeeW9Mg3-3">
          <mxGeometry relative="1" as="geometry" />
        </mxCell>
        <mxCell id="q5sLKofAN_wmgeeW9Mg3-21" style="edgeStyle=orthogonalEdgeStyle;rounded=0;orthogonalLoop=1;jettySize=auto;html=1;exitX=0;exitY=0.5;exitDx=0;exitDy=0;" edge="1" parent="kZCEDSCV3PqrCQLKHHvL-1" source="q5sLKofAN_wmgeeW9Mg3-2">
          <mxGeometry relative="1" as="geometry">
            <mxPoint x="102" y="260" as="targetPoint" />
          </mxGeometry>
        </mxCell>
        <mxCell id="q5sLKofAN_wmgeeW9Mg3-2" value="是否锁闭（暂无）" style="rhombus;whiteSpace=wrap;html=1;" vertex="1" parent="kZCEDSCV3PqrCQLKHHvL-1">
          <mxGeometry x="159" y="220" width="80" height="80" as="geometry" />
        </mxCell>
        <mxCell id="q5sLKofAN_wmgeeW9Mg3-23" style="edgeStyle=orthogonalEdgeStyle;rounded=0;orthogonalLoop=1;jettySize=auto;html=1;exitX=0.5;exitY=1;exitDx=0;exitDy=0;entryX=0.5;entryY=0;entryDx=0;entryDy=0;" edge="1" parent="kZCEDSCV3PqrCQLKHHvL-1" source="q5sLKofAN_wmgeeW9Mg3-3" target="q5sLKofAN_wmgeeW9Mg3-4">
          <mxGeometry relative="1" as="geometry" />
        </mxCell>
        <mxCell id="q5sLKofAN_wmgeeW9Mg3-3" value="行动前" style="rounded=1;whiteSpace=wrap;html=1;" vertex="1" parent="kZCEDSCV3PqrCQLKHHvL-1">
          <mxGeometry x="139" y="330" width="120" height="60" as="geometry" />
        </mxCell>
        <mxCell id="q5sLKofAN_wmgeeW9Mg3-24" style="edgeStyle=orthogonalEdgeStyle;rounded=0;orthogonalLoop=1;jettySize=auto;html=1;exitX=0.5;exitY=1;exitDx=0;exitDy=0;entryX=0.5;entryY=0;entryDx=0;entryDy=0;" edge="1" parent="kZCEDSCV3PqrCQLKHHvL-1" source="q5sLKofAN_wmgeeW9Mg3-4" target="q5sLKofAN_wmgeeW9Mg3-5">
          <mxGeometry relative="1" as="geometry" />
        </mxCell>
        <mxCell id="q5sLKofAN_wmgeeW9Mg3-4" value="试图释放触发技" style="rounded=1;whiteSpace=wrap;html=1;" vertex="1" parent="kZCEDSCV3PqrCQLKHHvL-1">
          <mxGeometry x="139" y="420" width="120" height="60" as="geometry" />
        </mxCell>
        <mxCell id="q5sLKofAN_wmgeeW9Mg3-25" style="edgeStyle=orthogonalEdgeStyle;rounded=0;orthogonalLoop=1;jettySize=auto;html=1;exitX=0.5;exitY=1;exitDx=0;exitDy=0;entryX=0.5;entryY=0;entryDx=0;entryDy=0;" edge="1" parent="kZCEDSCV3PqrCQLKHHvL-1" source="q5sLKofAN_wmgeeW9Mg3-5" target="q5sLKofAN_wmgeeW9Mg3-6">
          <mxGeometry relative="1" as="geometry" />
        </mxCell>
        <mxCell id="q5sLKofAN_wmgeeW9Mg3-31" style="edgeStyle=orthogonalEdgeStyle;rounded=0;orthogonalLoop=1;jettySize=auto;html=1;exitX=1;exitY=0.5;exitDx=0;exitDy=0;entryX=1;entryY=0.5;entryDx=0;entryDy=0;" edge="1" parent="kZCEDSCV3PqrCQLKHHvL-1" source="q5sLKofAN_wmgeeW9Mg3-5" target="q5sLKofAN_wmgeeW9Mg3-9">
          <mxGeometry relative="1" as="geometry">
            <mxPoint x="322" y="1040" as="targetPoint" />
            <Array as="points">
              <mxPoint x="312" y="550" />
              <mxPoint x="312" y="930" />
            </Array>
          </mxGeometry>
        </mxCell>
        <mxCell id="q5sLKofAN_wmgeeW9Mg3-5" value="概率判断" style="rhombus;whiteSpace=wrap;html=1;" vertex="1" parent="kZCEDSCV3PqrCQLKHHvL-1">
          <mxGeometry x="159" y="510" width="80" height="80" as="geometry" />
        </mxCell>
        <mxCell id="OBkOg_4l99zscQkVN3HW-1" style="edgeStyle=orthogonalEdgeStyle;rounded=0;orthogonalLoop=1;jettySize=auto;html=1;exitX=0.5;exitY=1;exitDx=0;exitDy=0;entryX=0.5;entryY=0;entryDx=0;entryDy=0;" edge="1" parent="kZCEDSCV3PqrCQLKHHvL-1" source="q5sLKofAN_wmgeeW9Mg3-6" target="OBkOg_4l99zscQkVN3HW-0">
          <mxGeometry relative="1" as="geometry" />
        </mxCell>
        <mxCell id="q5sLKofAN_wmgeeW9Mg3-6" value="技能目标选择" style="rounded=0;whiteSpace=wrap;html=1;" vertex="1" parent="kZCEDSCV3PqrCQLKHHvL-1">
          <mxGeometry x="139" y="620" width="120" height="60" as="geometry" />
        </mxCell>
        <mxCell id="q5sLKofAN_wmgeeW9Mg3-28" style="edgeStyle=orthogonalEdgeStyle;rounded=0;orthogonalLoop=1;jettySize=auto;html=1;exitX=0.5;exitY=1;exitDx=0;exitDy=0;entryX=0.5;entryY=0;entryDx=0;entryDy=0;" edge="1" parent="kZCEDSCV3PqrCQLKHHvL-1" source="q5sLKofAN_wmgeeW9Mg3-8" target="q5sLKofAN_wmgeeW9Mg3-9">
          <mxGeometry relative="1" as="geometry" />
        </mxCell>
        <mxCell id="q5sLKofAN_wmgeeW9Mg3-8" value="触发技释放后" style="rounded=1;whiteSpace=wrap;html=1;" vertex="1" parent="kZCEDSCV3PqrCQLKHHvL-1">
          <mxGeometry x="139" y="804.5" width="120" height="60" as="geometry" />
        </mxCell>
        <mxCell id="q5sLKofAN_wmgeeW9Mg3-29" style="edgeStyle=orthogonalEdgeStyle;rounded=0;orthogonalLoop=1;jettySize=auto;html=1;exitX=0.5;exitY=1;exitDx=0;exitDy=0;entryX=0.5;entryY=0;entryDx=0;entryDy=0;" edge="1" parent="kZCEDSCV3PqrCQLKHHvL-1" source="q5sLKofAN_wmgeeW9Mg3-9" target="q5sLKofAN_wmgeeW9Mg3-11">
          <mxGeometry relative="1" as="geometry" />
        </mxCell>
        <mxCell id="q5sLKofAN_wmgeeW9Mg3-9" value="行动后" style="rounded=1;whiteSpace=wrap;html=1;" vertex="1" parent="kZCEDSCV3PqrCQLKHHvL-1">
          <mxGeometry x="139" y="900" width="120" height="60" as="geometry" />
        </mxCell>
        <mxCell id="q5sLKofAN_wmgeeW9Mg3-30" style="edgeStyle=orthogonalEdgeStyle;rounded=0;orthogonalLoop=1;jettySize=auto;html=1;exitX=0.5;exitY=1;exitDx=0;exitDy=0;entryX=0.5;entryY=0;entryDx=0;entryDy=0;entryPerimeter=0;" edge="1" parent="kZCEDSCV3PqrCQLKHHvL-1" source="q5sLKofAN_wmgeeW9Mg3-11" target="q5sLKofAN_wmgeeW9Mg3-12">
          <mxGeometry relative="1" as="geometry" />
        </mxCell>
        <mxCell id="q5sLKofAN_wmgeeW9Mg3-11" value="行动结束，位置调整" style="rounded=0;whiteSpace=wrap;html=1;" vertex="1" parent="kZCEDSCV3PqrCQLKHHvL-1">
          <mxGeometry x="139" y="1000" width="120" height="60" as="geometry" />
        </mxCell>
        <mxCell id="q5sLKofAN_wmgeeW9Mg3-12" value="触发技能结束" style="strokeWidth=2;html=1;shape=mxgraph.flowchart.terminator;whiteSpace=wrap;" vertex="1" parent="kZCEDSCV3PqrCQLKHHvL-1">
          <mxGeometry x="149" y="1090" width="100" height="60" as="geometry" />
        </mxCell>
        <mxCell id="q5sLKofAN_wmgeeW9Mg3-15" value="否" style="text;html=1;strokeColor=none;fillColor=none;align=center;verticalAlign=middle;whiteSpace=wrap;rounded=0;" vertex="1" parent="kZCEDSCV3PqrCQLKHHvL-1">
          <mxGeometry x="149" y="190" width="40" height="20" as="geometry" />
        </mxCell>
        <mxCell id="q5sLKofAN_wmgeeW9Mg3-17" value="否" style="text;html=1;strokeColor=none;fillColor=none;align=center;verticalAlign=middle;whiteSpace=wrap;rounded=0;" vertex="1" parent="kZCEDSCV3PqrCQLKHHvL-1">
          <mxGeometry x="149" y="300" width="40" height="20" as="geometry" />
        </mxCell>
        <mxCell id="q5sLKofAN_wmgeeW9Mg3-20" value="是" style="text;html=1;strokeColor=none;fillColor=none;align=center;verticalAlign=middle;whiteSpace=wrap;rounded=0;" vertex="1" parent="kZCEDSCV3PqrCQLKHHvL-1">
          <mxGeometry x="109" y="160" width="40" height="20" as="geometry" />
        </mxCell>
        <mxCell id="q5sLKofAN_wmgeeW9Mg3-22" value="是" style="text;html=1;strokeColor=none;fillColor=none;align=center;verticalAlign=middle;whiteSpace=wrap;rounded=0;" vertex="1" parent="kZCEDSCV3PqrCQLKHHvL-1">
          <mxGeometry x="109" y="272" width="40" height="20" as="geometry" />
        </mxCell>
        <mxCell id="q5sLKofAN_wmgeeW9Mg3-32" value="成功" style="text;html=1;strokeColor=none;fillColor=none;align=center;verticalAlign=middle;whiteSpace=wrap;rounded=0;" vertex="1" parent="kZCEDSCV3PqrCQLKHHvL-1">
          <mxGeometry x="209" y="590" width="40" height="20" as="geometry" />
        </mxCell>
        <mxCell id="q5sLKofAN_wmgeeW9Mg3-34" value="失败" style="text;html=1;strokeColor=none;fillColor=none;align=center;verticalAlign=middle;whiteSpace=wrap;rounded=0;" vertex="1" parent="kZCEDSCV3PqrCQLKHHvL-1">
          <mxGeometry x="249" y="560" width="40" height="20" as="geometry" />
        </mxCell>
        <mxCell id="OBkOg_4l99zscQkVN3HW-2" style="edgeStyle=orthogonalEdgeStyle;rounded=0;orthogonalLoop=1;jettySize=auto;html=1;exitX=0.5;exitY=1;exitDx=0;exitDy=0;entryX=0.5;entryY=0;entryDx=0;entryDy=0;" edge="1" parent="kZCEDSCV3PqrCQLKHHvL-1" source="OBkOg_4l99zscQkVN3HW-0" target="q5sLKofAN_wmgeeW9Mg3-8">
          <mxGeometry relative="1" as="geometry" />
        </mxCell>
        <UserObject label="技能buff添加" link="data:page/id,yD4z72EA0Fy6qJjtiT4F" id="OBkOg_4l99zscQkVN3HW-0">
          <mxCell style="shape=process;whiteSpace=wrap;html=1;backgroundOutline=1;" vertex="1" parent="kZCEDSCV3PqrCQLKHHvL-1">
            <mxGeometry x="139" y="710" width="120" height="60" as="geometry" />
          </mxCell>
        </UserObject>
      </root>
    </mxGraphModel>
  </diagram>
  <diagram name="主动技能" id="XssTMbVWfjKOZm9qmrdB">
    <mxGraphModel dx="1731" dy="1152" grid="1" gridSize="10" guides="1" tooltips="1" connect="1" arrows="1" fold="1" page="1" pageScale="1" pageWidth="413" pageHeight="583" background="none" math="0" shadow="0">
      <root>
        <mxCell id="iNEns36TojGjPYIIkmgQ-0" />
        <mxCell id="iNEns36TojGjPYIIkmgQ-1" parent="iNEns36TojGjPYIIkmgQ-0" />
        <mxCell id="_IFArC-sCDh2ZdO4Z6W--2" style="edgeStyle=orthogonalEdgeStyle;rounded=0;orthogonalLoop=1;jettySize=auto;html=1;exitX=0.5;exitY=1;exitDx=0;exitDy=0;exitPerimeter=0;entryX=0.5;entryY=0;entryDx=0;entryDy=0;" edge="1" parent="iNEns36TojGjPYIIkmgQ-1" source="nLTY7meu2Wj21QhT4NdL-0" target="xzpe8o-SM1wgFGcVgIgL-0">
          <mxGeometry relative="1" as="geometry" />
        </mxCell>
        <mxCell id="nLTY7meu2Wj21QhT4NdL-0" value="主动技能流程开始" style="strokeWidth=2;html=1;shape=mxgraph.flowchart.terminator;whiteSpace=wrap;" parent="iNEns36TojGjPYIIkmgQ-1" vertex="1">
          <mxGeometry x="157" y="10" width="100" height="60" as="geometry" />
        </mxCell>
        <mxCell id="_IFArC-sCDh2ZdO4Z6W--3" style="edgeStyle=orthogonalEdgeStyle;rounded=0;orthogonalLoop=1;jettySize=auto;html=1;exitX=0;exitY=0.5;exitDx=0;exitDy=0;entryX=0;entryY=0.5;entryDx=0;entryDy=0;entryPerimeter=0;" edge="1" parent="iNEns36TojGjPYIIkmgQ-1" source="xzpe8o-SM1wgFGcVgIgL-0" target="_IFArC-sCDh2ZdO4Z6W--1">
          <mxGeometry relative="1" as="geometry">
            <Array as="points">
              <mxPoint x="80" y="140" />
              <mxPoint x="80" y="1709" />
            </Array>
          </mxGeometry>
        </mxCell>
        <mxCell id="_IFArC-sCDh2ZdO4Z6W--5" style="edgeStyle=orthogonalEdgeStyle;rounded=0;orthogonalLoop=1;jettySize=auto;html=1;exitX=0.5;exitY=1;exitDx=0;exitDy=0;entryX=0.5;entryY=0;entryDx=0;entryDy=0;" edge="1" parent="iNEns36TojGjPYIIkmgQ-1" source="xzpe8o-SM1wgFGcVgIgL-0" target="xzpe8o-SM1wgFGcVgIgL-1">
          <mxGeometry relative="1" as="geometry" />
        </mxCell>
        <mxCell id="xzpe8o-SM1wgFGcVgIgL-0" value="是否引导状态" style="rhombus;whiteSpace=wrap;html=1;" vertex="1" parent="iNEns36TojGjPYIIkmgQ-1">
          <mxGeometry x="167" y="100" width="80" height="80" as="geometry" />
        </mxCell>
        <mxCell id="_IFArC-sCDh2ZdO4Z6W--7" style="edgeStyle=orthogonalEdgeStyle;rounded=0;orthogonalLoop=1;jettySize=auto;html=1;exitX=0;exitY=0.5;exitDx=0;exitDy=0;" edge="1" parent="iNEns36TojGjPYIIkmgQ-1" source="xzpe8o-SM1wgFGcVgIgL-1">
          <mxGeometry relative="1" as="geometry">
            <mxPoint x="80" y="250" as="targetPoint" />
          </mxGeometry>
        </mxCell>
        <mxCell id="_IFArC-sCDh2ZdO4Z6W--11" style="edgeStyle=orthogonalEdgeStyle;rounded=0;orthogonalLoop=1;jettySize=auto;html=1;exitX=0.5;exitY=1;exitDx=0;exitDy=0;entryX=0.5;entryY=0;entryDx=0;entryDy=0;" edge="1" parent="iNEns36TojGjPYIIkmgQ-1" source="xzpe8o-SM1wgFGcVgIgL-1" target="aMhRnTHFFLW7rtVFMgA_-0">
          <mxGeometry relative="1" as="geometry" />
        </mxCell>
        <mxCell id="xzpe8o-SM1wgFGcVgIgL-1" value="是否混乱状态" style="rhombus;whiteSpace=wrap;html=1;" vertex="1" parent="iNEns36TojGjPYIIkmgQ-1">
          <mxGeometry x="167" y="210" width="80" height="80" as="geometry" />
        </mxCell>
        <mxCell id="_IFArC-sCDh2ZdO4Z6W--13" style="edgeStyle=orthogonalEdgeStyle;rounded=0;orthogonalLoop=1;jettySize=auto;html=1;exitX=0.5;exitY=1;exitDx=0;exitDy=0;entryX=0.5;entryY=0;entryDx=0;entryDy=0;" edge="1" parent="iNEns36TojGjPYIIkmgQ-1" source="aMhRnTHFFLW7rtVFMgA_-0" target="yathVZ0s0Q51hkLF4NmE-0">
          <mxGeometry relative="1" as="geometry" />
        </mxCell>
        <mxCell id="_IFArC-sCDh2ZdO4Z6W--15" style="edgeStyle=orthogonalEdgeStyle;rounded=0;orthogonalLoop=1;jettySize=auto;html=1;exitX=0;exitY=0.5;exitDx=0;exitDy=0;" edge="1" parent="iNEns36TojGjPYIIkmgQ-1" source="aMhRnTHFFLW7rtVFMgA_-0">
          <mxGeometry relative="1" as="geometry">
            <mxPoint x="80" y="360" as="targetPoint" />
          </mxGeometry>
        </mxCell>
        <mxCell id="aMhRnTHFFLW7rtVFMgA_-0" value="是否犹豫状态" style="rhombus;whiteSpace=wrap;html=1;" vertex="1" parent="iNEns36TojGjPYIIkmgQ-1">
          <mxGeometry x="167" y="320" width="80" height="80" as="geometry" />
        </mxCell>
        <mxCell id="_IFArC-sCDh2ZdO4Z6W--17" style="edgeStyle=orthogonalEdgeStyle;rounded=0;orthogonalLoop=1;jettySize=auto;html=1;exitX=0.5;exitY=1;exitDx=0;exitDy=0;entryX=0.5;entryY=0;entryDx=0;entryDy=0;" edge="1" parent="iNEns36TojGjPYIIkmgQ-1" source="yathVZ0s0Q51hkLF4NmE-0" target="yathVZ0s0Q51hkLF4NmE-1">
          <mxGeometry relative="1" as="geometry" />
        </mxCell>
        <mxCell id="yathVZ0s0Q51hkLF4NmE-0" value="行动前" style="rounded=1;whiteSpace=wrap;html=1;" vertex="1" parent="iNEns36TojGjPYIIkmgQ-1">
          <mxGeometry x="147" y="430" width="120" height="60" as="geometry" />
        </mxCell>
        <mxCell id="_IFArC-sCDh2ZdO4Z6W--18" style="edgeStyle=orthogonalEdgeStyle;rounded=0;orthogonalLoop=1;jettySize=auto;html=1;exitX=0.5;exitY=1;exitDx=0;exitDy=0;entryX=0.5;entryY=0;entryDx=0;entryDy=0;" edge="1" parent="iNEns36TojGjPYIIkmgQ-1" source="yathVZ0s0Q51hkLF4NmE-1" target="yathVZ0s0Q51hkLF4NmE-2">
          <mxGeometry relative="1" as="geometry" />
        </mxCell>
        <mxCell id="yathVZ0s0Q51hkLF4NmE-1" value="试图释放主动技" style="rounded=1;whiteSpace=wrap;html=1;" vertex="1" parent="iNEns36TojGjPYIIkmgQ-1">
          <mxGeometry x="147" y="520" width="120" height="60" as="geometry" />
        </mxCell>
        <mxCell id="_IFArC-sCDh2ZdO4Z6W--19" style="edgeStyle=orthogonalEdgeStyle;rounded=0;orthogonalLoop=1;jettySize=auto;html=1;exitX=0.5;exitY=1;exitDx=0;exitDy=0;entryX=0.5;entryY=0;entryDx=0;entryDy=0;" edge="1" parent="iNEns36TojGjPYIIkmgQ-1" source="yathVZ0s0Q51hkLF4NmE-2" target="1ouXkDmd_mx3evaO6uJo-0">
          <mxGeometry relative="1" as="geometry" />
        </mxCell>
        <mxCell id="Y3BycIyyIGPJDxlo3-aO-7" style="edgeStyle=orthogonalEdgeStyle;rounded=0;orthogonalLoop=1;jettySize=auto;html=1;exitX=1;exitY=0.5;exitDx=0;exitDy=0;entryX=0;entryY=0.5;entryDx=0;entryDy=0;" edge="1" parent="iNEns36TojGjPYIIkmgQ-1" source="yathVZ0s0Q51hkLF4NmE-2" target="Y3BycIyyIGPJDxlo3-aO-0">
          <mxGeometry relative="1" as="geometry" />
        </mxCell>
        <mxCell id="yathVZ0s0Q51hkLF4NmE-2" value="是否处于准备状态" style="rhombus;whiteSpace=wrap;html=1;" vertex="1" parent="iNEns36TojGjPYIIkmgQ-1">
          <mxGeometry x="167" y="610" width="80" height="80" as="geometry" />
        </mxCell>
        <mxCell id="_IFArC-sCDh2ZdO4Z6W--21" style="edgeStyle=orthogonalEdgeStyle;rounded=0;orthogonalLoop=1;jettySize=auto;html=1;exitX=0.5;exitY=1;exitDx=0;exitDy=0;entryX=0.5;entryY=0;entryDx=0;entryDy=0;" edge="1" parent="iNEns36TojGjPYIIkmgQ-1" source="1ouXkDmd_mx3evaO6uJo-0" target="1ouXkDmd_mx3evaO6uJo-1">
          <mxGeometry relative="1" as="geometry" />
        </mxCell>
        <mxCell id="Y3BycIyyIGPJDxlo3-aO-17" style="edgeStyle=orthogonalEdgeStyle;rounded=0;orthogonalLoop=1;jettySize=auto;html=1;exitX=0;exitY=0.5;exitDx=0;exitDy=0;entryX=0;entryY=0.5;entryDx=0;entryDy=0;" edge="1" parent="iNEns36TojGjPYIIkmgQ-1" source="1ouXkDmd_mx3evaO6uJo-0" target="8eQ3nRJvA6FrbqvdvrFd-0">
          <mxGeometry relative="1" as="geometry">
            <mxPoint x="120" y="1070" as="targetPoint" />
            <Array as="points">
              <mxPoint x="120" y="760" />
              <mxPoint x="120" y="1440" />
            </Array>
          </mxGeometry>
        </mxCell>
        <mxCell id="1ouXkDmd_mx3evaO6uJo-0" value="概率判断" style="rhombus;whiteSpace=wrap;html=1;" vertex="1" parent="iNEns36TojGjPYIIkmgQ-1">
          <mxGeometry x="167" y="720" width="80" height="80" as="geometry" />
        </mxCell>
        <mxCell id="_IFArC-sCDh2ZdO4Z6W--23" style="edgeStyle=orthogonalEdgeStyle;rounded=0;orthogonalLoop=1;jettySize=auto;html=1;exitX=0.5;exitY=1;exitDx=0;exitDy=0;entryX=0.5;entryY=0;entryDx=0;entryDy=0;" edge="1" parent="iNEns36TojGjPYIIkmgQ-1" source="1ouXkDmd_mx3evaO6uJo-1" target="1ouXkDmd_mx3evaO6uJo-2">
          <mxGeometry relative="1" as="geometry" />
        </mxCell>
        <mxCell id="Y3BycIyyIGPJDxlo3-aO-11" style="edgeStyle=orthogonalEdgeStyle;rounded=0;orthogonalLoop=1;jettySize=auto;html=1;exitX=1;exitY=0.5;exitDx=0;exitDy=0;" edge="1" parent="iNEns36TojGjPYIIkmgQ-1" source="1ouXkDmd_mx3evaO6uJo-1">
          <mxGeometry relative="1" as="geometry">
            <mxPoint x="290" y="870" as="targetPoint" />
          </mxGeometry>
        </mxCell>
        <mxCell id="1ouXkDmd_mx3evaO6uJo-1" value="是否需要准备" style="rhombus;whiteSpace=wrap;html=1;" vertex="1" parent="iNEns36TojGjPYIIkmgQ-1">
          <mxGeometry x="167" y="830" width="80" height="80" as="geometry" />
        </mxCell>
        <mxCell id="_IFArC-sCDh2ZdO4Z6W--27" style="edgeStyle=orthogonalEdgeStyle;rounded=0;orthogonalLoop=1;jettySize=auto;html=1;exitX=0.5;exitY=1;exitDx=0;exitDy=0;entryX=0.5;entryY=0;entryDx=0;entryDy=0;" edge="1" parent="iNEns36TojGjPYIIkmgQ-1" source="1ouXkDmd_mx3evaO6uJo-2" target="1ouXkDmd_mx3evaO6uJo-3">
          <mxGeometry relative="1" as="geometry" />
        </mxCell>
        <mxCell id="1ouXkDmd_mx3evaO6uJo-2" value="技能进入准备时" style="rounded=1;whiteSpace=wrap;html=1;" vertex="1" parent="iNEns36TojGjPYIIkmgQ-1">
          <mxGeometry x="147" y="940" width="120" height="60" as="geometry" />
        </mxCell>
        <mxCell id="_IFArC-sCDh2ZdO4Z6W--28" style="edgeStyle=orthogonalEdgeStyle;rounded=0;orthogonalLoop=1;jettySize=auto;html=1;exitX=0.5;exitY=1;exitDx=0;exitDy=0;entryX=0.5;entryY=0;entryDx=0;entryDy=0;" edge="1" parent="iNEns36TojGjPYIIkmgQ-1" source="1ouXkDmd_mx3evaO6uJo-3" target="1ouXkDmd_mx3evaO6uJo-4">
          <mxGeometry relative="1" as="geometry" />
        </mxCell>
        <mxCell id="Y3BycIyyIGPJDxlo3-aO-18" style="edgeStyle=orthogonalEdgeStyle;rounded=0;orthogonalLoop=1;jettySize=auto;html=1;exitX=0;exitY=0.5;exitDx=0;exitDy=0;" edge="1" parent="iNEns36TojGjPYIIkmgQ-1" source="1ouXkDmd_mx3evaO6uJo-3">
          <mxGeometry relative="1" as="geometry">
            <mxPoint x="120" y="1070" as="targetPoint" />
          </mxGeometry>
        </mxCell>
        <mxCell id="1ouXkDmd_mx3evaO6uJo-3" value="判断跳过准备效果" style="rhombus;whiteSpace=wrap;html=1;" vertex="1" parent="iNEns36TojGjPYIIkmgQ-1">
          <mxGeometry x="167" y="1030" width="80" height="80" as="geometry" />
        </mxCell>
        <mxCell id="_IFArC-sCDh2ZdO4Z6W--32" style="edgeStyle=orthogonalEdgeStyle;rounded=0;orthogonalLoop=1;jettySize=auto;html=1;exitX=0.5;exitY=1;exitDx=0;exitDy=0;entryX=0.5;entryY=0;entryDx=0;entryDy=0;" edge="1" parent="iNEns36TojGjPYIIkmgQ-1" source="1ouXkDmd_mx3evaO6uJo-4" target="yjcRYUd0pXQuYYAsIScs-0">
          <mxGeometry relative="1" as="geometry" />
        </mxCell>
        <mxCell id="1ouXkDmd_mx3evaO6uJo-4" value="目标选择" style="rounded=0;whiteSpace=wrap;html=1;" vertex="1" parent="iNEns36TojGjPYIIkmgQ-1">
          <mxGeometry x="147" y="1140" width="120" height="60" as="geometry" />
        </mxCell>
        <mxCell id="_IFArC-sCDh2ZdO4Z6W--33" style="edgeStyle=orthogonalEdgeStyle;rounded=0;orthogonalLoop=1;jettySize=auto;html=1;exitX=0.5;exitY=1;exitDx=0;exitDy=0;entryX=0.5;entryY=0;entryDx=0;entryDy=0;" edge="1" parent="iNEns36TojGjPYIIkmgQ-1" source="yjcRYUd0pXQuYYAsIScs-0" target="p4kG6ot6nAGmzhIye9Y3-0">
          <mxGeometry relative="1" as="geometry" />
        </mxCell>
        <UserObject label="技能buff添加" link="data:page/id,yD4z72EA0Fy6qJjtiT4F" id="yjcRYUd0pXQuYYAsIScs-0">
          <mxCell style="shape=process;whiteSpace=wrap;html=1;backgroundOutline=1;" vertex="1" parent="iNEns36TojGjPYIIkmgQ-1">
            <mxGeometry x="147" y="1230" width="120" height="60" as="geometry" />
          </mxCell>
        </UserObject>
        <mxCell id="_IFArC-sCDh2ZdO4Z6W--34" style="edgeStyle=orthogonalEdgeStyle;rounded=0;orthogonalLoop=1;jettySize=auto;html=1;exitX=0.5;exitY=1;exitDx=0;exitDy=0;entryX=0.5;entryY=0;entryDx=0;entryDy=0;" edge="1" parent="iNEns36TojGjPYIIkmgQ-1" source="p4kG6ot6nAGmzhIye9Y3-0" target="8eQ3nRJvA6FrbqvdvrFd-0">
          <mxGeometry relative="1" as="geometry" />
        </mxCell>
        <mxCell id="p4kG6ot6nAGmzhIye9Y3-0" value="主动技释放后" style="rounded=1;whiteSpace=wrap;html=1;" vertex="1" parent="iNEns36TojGjPYIIkmgQ-1">
          <mxGeometry x="147" y="1320" width="120" height="60" as="geometry" />
        </mxCell>
        <mxCell id="_IFArC-sCDh2ZdO4Z6W--35" style="edgeStyle=orthogonalEdgeStyle;rounded=0;orthogonalLoop=1;jettySize=auto;html=1;exitX=0.5;exitY=1;exitDx=0;exitDy=0;entryX=0.5;entryY=0;entryDx=0;entryDy=0;" edge="1" parent="iNEns36TojGjPYIIkmgQ-1" source="8eQ3nRJvA6FrbqvdvrFd-0" target="8eQ3nRJvA6FrbqvdvrFd-1">
          <mxGeometry relative="1" as="geometry" />
        </mxCell>
        <mxCell id="8eQ3nRJvA6FrbqvdvrFd-0" value="行动后" style="rounded=1;whiteSpace=wrap;html=1;" vertex="1" parent="iNEns36TojGjPYIIkmgQ-1">
          <mxGeometry x="147" y="1410" width="120" height="60" as="geometry" />
        </mxCell>
        <mxCell id="_IFArC-sCDh2ZdO4Z6W--36" style="edgeStyle=orthogonalEdgeStyle;rounded=0;orthogonalLoop=1;jettySize=auto;html=1;exitX=0.5;exitY=1;exitDx=0;exitDy=0;entryX=0.5;entryY=0;entryDx=0;entryDy=0;" edge="1" parent="iNEns36TojGjPYIIkmgQ-1" source="8eQ3nRJvA6FrbqvdvrFd-1" target="_IFArC-sCDh2ZdO4Z6W--0">
          <mxGeometry relative="1" as="geometry" />
        </mxCell>
        <mxCell id="8eQ3nRJvA6FrbqvdvrFd-1" value="行动结束，位置调整" style="rounded=0;whiteSpace=wrap;html=1;" vertex="1" parent="iNEns36TojGjPYIIkmgQ-1">
          <mxGeometry x="147" y="1500" width="120" height="60" as="geometry" />
        </mxCell>
        <mxCell id="_IFArC-sCDh2ZdO4Z6W--37" style="edgeStyle=orthogonalEdgeStyle;rounded=0;orthogonalLoop=1;jettySize=auto;html=1;exitX=0.5;exitY=1;exitDx=0;exitDy=0;entryX=0.5;entryY=0;entryDx=0;entryDy=0;entryPerimeter=0;" edge="1" parent="iNEns36TojGjPYIIkmgQ-1" source="_IFArC-sCDh2ZdO4Z6W--0" target="_IFArC-sCDh2ZdO4Z6W--1">
          <mxGeometry relative="1" as="geometry" />
        </mxCell>
        <UserObject label="执行预备的触发技" link="data:page/id,_wKeDqSNoWvv0K4jZEV4" id="_IFArC-sCDh2ZdO4Z6W--0">
          <mxCell style="shape=process;whiteSpace=wrap;html=1;backgroundOutline=1;" vertex="1" parent="iNEns36TojGjPYIIkmgQ-1">
            <mxGeometry x="147" y="1590" width="120" height="60" as="geometry" />
          </mxCell>
        </UserObject>
        <mxCell id="_IFArC-sCDh2ZdO4Z6W--1" value="主动技能流程结束" style="strokeWidth=2;html=1;shape=mxgraph.flowchart.terminator;whiteSpace=wrap;" vertex="1" parent="iNEns36TojGjPYIIkmgQ-1">
          <mxGeometry x="157" y="1679" width="100" height="60" as="geometry" />
        </mxCell>
        <mxCell id="_IFArC-sCDh2ZdO4Z6W--4" value="是" style="text;html=1;strokeColor=none;fillColor=none;align=center;verticalAlign=middle;whiteSpace=wrap;rounded=0;" vertex="1" parent="iNEns36TojGjPYIIkmgQ-1">
          <mxGeometry x="117" y="150" width="40" height="20" as="geometry" />
        </mxCell>
        <mxCell id="_IFArC-sCDh2ZdO4Z6W--6" value="否" style="text;html=1;strokeColor=none;fillColor=none;align=center;verticalAlign=middle;whiteSpace=wrap;rounded=0;" vertex="1" parent="iNEns36TojGjPYIIkmgQ-1">
          <mxGeometry x="157" y="180" width="40" height="20" as="geometry" />
        </mxCell>
        <mxCell id="_IFArC-sCDh2ZdO4Z6W--10" value="是" style="text;html=1;strokeColor=none;fillColor=none;align=center;verticalAlign=middle;whiteSpace=wrap;rounded=0;" vertex="1" parent="iNEns36TojGjPYIIkmgQ-1">
          <mxGeometry x="117" y="262" width="40" height="20" as="geometry" />
        </mxCell>
        <mxCell id="_IFArC-sCDh2ZdO4Z6W--12" value="否" style="text;html=1;strokeColor=none;fillColor=none;align=center;verticalAlign=middle;whiteSpace=wrap;rounded=0;" vertex="1" parent="iNEns36TojGjPYIIkmgQ-1">
          <mxGeometry x="157" y="290" width="40" height="20" as="geometry" />
        </mxCell>
        <mxCell id="_IFArC-sCDh2ZdO4Z6W--14" value="否" style="text;html=1;strokeColor=none;fillColor=none;align=center;verticalAlign=middle;whiteSpace=wrap;rounded=0;" vertex="1" parent="iNEns36TojGjPYIIkmgQ-1">
          <mxGeometry x="157" y="400" width="40" height="20" as="geometry" />
        </mxCell>
        <mxCell id="_IFArC-sCDh2ZdO4Z6W--16" value="是" style="text;html=1;strokeColor=none;fillColor=none;align=center;verticalAlign=middle;whiteSpace=wrap;rounded=0;" vertex="1" parent="iNEns36TojGjPYIIkmgQ-1">
          <mxGeometry x="117" y="370" width="40" height="20" as="geometry" />
        </mxCell>
        <mxCell id="_IFArC-sCDh2ZdO4Z6W--20" value="否" style="text;html=1;strokeColor=none;fillColor=none;align=center;verticalAlign=middle;whiteSpace=wrap;rounded=0;" vertex="1" parent="iNEns36TojGjPYIIkmgQ-1">
          <mxGeometry x="207" y="690" width="40" height="20" as="geometry" />
        </mxCell>
        <mxCell id="_IFArC-sCDh2ZdO4Z6W--22" value="成功" style="text;html=1;strokeColor=none;fillColor=none;align=center;verticalAlign=middle;whiteSpace=wrap;rounded=0;" vertex="1" parent="iNEns36TojGjPYIIkmgQ-1">
          <mxGeometry x="217" y="800" width="40" height="20" as="geometry" />
        </mxCell>
        <mxCell id="_IFArC-sCDh2ZdO4Z6W--24" value="是" style="text;html=1;strokeColor=none;fillColor=none;align=center;verticalAlign=middle;whiteSpace=wrap;rounded=0;" vertex="1" parent="iNEns36TojGjPYIIkmgQ-1">
          <mxGeometry x="217" y="910" width="40" height="20" as="geometry" />
        </mxCell>
        <mxCell id="_IFArC-sCDh2ZdO4Z6W--26" value="否" style="text;html=1;strokeColor=none;fillColor=none;align=center;verticalAlign=middle;whiteSpace=wrap;rounded=0;" vertex="1" parent="iNEns36TojGjPYIIkmgQ-1">
          <mxGeometry x="240" y="880" width="40" height="20" as="geometry" />
        </mxCell>
        <mxCell id="_IFArC-sCDh2ZdO4Z6W--29" value="跳过" style="text;html=1;strokeColor=none;fillColor=none;align=center;verticalAlign=middle;whiteSpace=wrap;rounded=0;" vertex="1" parent="iNEns36TojGjPYIIkmgQ-1">
          <mxGeometry x="157" y="1110" width="40" height="20" as="geometry" />
        </mxCell>
        <mxCell id="_IFArC-sCDh2ZdO4Z6W--31" value="否" style="text;html=1;strokeColor=none;fillColor=none;align=center;verticalAlign=middle;whiteSpace=wrap;rounded=0;" vertex="1" parent="iNEns36TojGjPYIIkmgQ-1">
          <mxGeometry x="127" y="1080" width="40" height="20" as="geometry" />
        </mxCell>
        <mxCell id="Y3BycIyyIGPJDxlo3-aO-3" style="edgeStyle=orthogonalEdgeStyle;rounded=0;orthogonalLoop=1;jettySize=auto;html=1;exitX=0.5;exitY=1;exitDx=0;exitDy=0;entryX=0.5;entryY=0;entryDx=0;entryDy=0;" edge="1" parent="iNEns36TojGjPYIIkmgQ-1" source="Y3BycIyyIGPJDxlo3-aO-0" target="Y3BycIyyIGPJDxlo3-aO-1">
          <mxGeometry relative="1" as="geometry" />
        </mxCell>
        <mxCell id="Y3BycIyyIGPJDxlo3-aO-0" value="减少准备回合" style="rounded=0;whiteSpace=wrap;html=1;" vertex="1" parent="iNEns36TojGjPYIIkmgQ-1">
          <mxGeometry x="280" y="620" width="120" height="60" as="geometry" />
        </mxCell>
        <mxCell id="Y3BycIyyIGPJDxlo3-aO-13" style="edgeStyle=orthogonalEdgeStyle;rounded=0;orthogonalLoop=1;jettySize=auto;html=1;exitX=0.5;exitY=1;exitDx=0;exitDy=0;entryX=1;entryY=0.5;entryDx=0;entryDy=0;" edge="1" parent="iNEns36TojGjPYIIkmgQ-1" source="Y3BycIyyIGPJDxlo3-aO-1" target="8eQ3nRJvA6FrbqvdvrFd-0">
          <mxGeometry relative="1" as="geometry" />
        </mxCell>
        <mxCell id="Y3BycIyyIGPJDxlo3-aO-1" value="准备回合=0" style="rhombus;whiteSpace=wrap;html=1;" vertex="1" parent="iNEns36TojGjPYIIkmgQ-1">
          <mxGeometry x="300" y="720" width="80" height="80" as="geometry" />
        </mxCell>
        <mxCell id="Y3BycIyyIGPJDxlo3-aO-8" value="是" style="text;html=1;strokeColor=none;fillColor=none;align=center;verticalAlign=middle;whiteSpace=wrap;rounded=0;" vertex="1" parent="iNEns36TojGjPYIIkmgQ-1">
          <mxGeometry x="240" y="660" width="40" height="20" as="geometry" />
        </mxCell>
        <mxCell id="Y3BycIyyIGPJDxlo3-aO-10" style="edgeStyle=orthogonalEdgeStyle;rounded=0;orthogonalLoop=1;jettySize=auto;html=1;exitX=0;exitY=0.5;exitDx=0;exitDy=0;entryX=1;entryY=0.5;entryDx=0;entryDy=0;" edge="1" parent="iNEns36TojGjPYIIkmgQ-1" source="Y3BycIyyIGPJDxlo3-aO-1" target="1ouXkDmd_mx3evaO6uJo-4">
          <mxGeometry relative="1" as="geometry">
            <Array as="points">
              <mxPoint x="287" y="760" />
              <mxPoint x="287" y="1170" />
            </Array>
          </mxGeometry>
        </mxCell>
        <mxCell id="Y3BycIyyIGPJDxlo3-aO-12" value="是" style="text;html=1;strokeColor=none;fillColor=none;align=center;verticalAlign=middle;whiteSpace=wrap;rounded=0;" vertex="1" parent="iNEns36TojGjPYIIkmgQ-1">
          <mxGeometry x="267" y="740" width="40" height="20" as="geometry" />
        </mxCell>
        <mxCell id="Y3BycIyyIGPJDxlo3-aO-14" value="否" style="text;html=1;strokeColor=none;fillColor=none;align=center;verticalAlign=middle;whiteSpace=wrap;rounded=0;" vertex="1" parent="iNEns36TojGjPYIIkmgQ-1">
          <mxGeometry x="340" y="810" width="40" height="20" as="geometry" />
        </mxCell>
        <mxCell id="Y3BycIyyIGPJDxlo3-aO-16" value="否" style="text;html=1;strokeColor=none;fillColor=none;align=center;verticalAlign=middle;whiteSpace=wrap;rounded=0;" vertex="1" parent="iNEns36TojGjPYIIkmgQ-1">
          <mxGeometry x="127" y="770" width="40" height="20" as="geometry" />
        </mxCell>
      </root>
    </mxGraphModel>
  </diagram>
  <diagram name="技能Buff添加" id="TIHsElddeUzclNTnYuGn">
    <mxGraphModel dx="1731" dy="1152" grid="1" gridSize="10" guides="1" tooltips="1" connect="1" arrows="1" fold="1" page="1" pageScale="1" pageWidth="413" pageHeight="583" math="0" shadow="0">
      <root>
        <mxCell id="696DbeGuaw_e1v-7l336-0" />
        <mxCell id="696DbeGuaw_e1v-7l336-1" parent="696DbeGuaw_e1v-7l336-0" />
        <mxCell id="frp0cCbQGWQVpcm-8R6e-11" style="edgeStyle=orthogonalEdgeStyle;rounded=0;orthogonalLoop=1;jettySize=auto;html=1;exitX=0.5;exitY=1;exitDx=0;exitDy=0;exitPerimeter=0;entryX=0.5;entryY=0;entryDx=0;entryDy=0;" edge="1" parent="696DbeGuaw_e1v-7l336-1" source="dR1UtZX9Q3Ci-5BfMDLq-0" target="frp0cCbQGWQVpcm-8R6e-1">
          <mxGeometry relative="1" as="geometry" />
        </mxCell>
        <mxCell id="dR1UtZX9Q3Ci-5BfMDLq-0" value="添加技能buff开始" style="strokeWidth=2;html=1;shape=mxgraph.flowchart.terminator;whiteSpace=wrap;" vertex="1" parent="696DbeGuaw_e1v-7l336-1">
          <mxGeometry x="157" y="10" width="100" height="60" as="geometry" />
        </mxCell>
        <mxCell id="frp0cCbQGWQVpcm-8R6e-12" style="edgeStyle=orthogonalEdgeStyle;rounded=0;orthogonalLoop=1;jettySize=auto;html=1;exitX=0.5;exitY=1;exitDx=0;exitDy=0;entryX=0.5;entryY=0;entryDx=0;entryDy=0;" edge="1" parent="696DbeGuaw_e1v-7l336-1" source="frp0cCbQGWQVpcm-8R6e-1" target="frp0cCbQGWQVpcm-8R6e-2">
          <mxGeometry relative="1" as="geometry" />
        </mxCell>
        <mxCell id="frp0cCbQGWQVpcm-8R6e-13" style="edgeStyle=orthogonalEdgeStyle;rounded=0;orthogonalLoop=1;jettySize=auto;html=1;exitX=0;exitY=0.5;exitDx=0;exitDy=0;entryX=0;entryY=0.5;entryDx=0;entryDy=0;entryPerimeter=0;" edge="1" parent="696DbeGuaw_e1v-7l336-1" source="frp0cCbQGWQVpcm-8R6e-1" target="frp0cCbQGWQVpcm-8R6e-10">
          <mxGeometry relative="1" as="geometry">
            <Array as="points">
              <mxPoint x="120" y="130" />
              <mxPoint x="120" y="590" />
            </Array>
          </mxGeometry>
        </mxCell>
        <mxCell id="frp0cCbQGWQVpcm-8R6e-1" value="buff是否满足添加条件" style="rhombus;whiteSpace=wrap;html=1;" vertex="1" parent="696DbeGuaw_e1v-7l336-1">
          <mxGeometry x="167" y="90" width="80" height="80" as="geometry" />
        </mxCell>
        <mxCell id="frp0cCbQGWQVpcm-8R6e-16" style="edgeStyle=orthogonalEdgeStyle;rounded=0;orthogonalLoop=1;jettySize=auto;html=1;exitX=1;exitY=0.5;exitDx=0;exitDy=0;entryX=1;entryY=0.5;entryDx=0;entryDy=0;entryPerimeter=0;" edge="1" parent="696DbeGuaw_e1v-7l336-1" source="frp0cCbQGWQVpcm-8R6e-2" target="frp0cCbQGWQVpcm-8R6e-10">
          <mxGeometry relative="1" as="geometry" />
        </mxCell>
        <mxCell id="frp0cCbQGWQVpcm-8R6e-2" value="概率计算" style="rhombus;whiteSpace=wrap;html=1;" vertex="1" parent="696DbeGuaw_e1v-7l336-1">
          <mxGeometry x="167" y="190" width="80" height="80" as="geometry" />
        </mxCell>
        <mxCell id="frp0cCbQGWQVpcm-8R6e-19" style="edgeStyle=orthogonalEdgeStyle;rounded=0;orthogonalLoop=1;jettySize=auto;html=1;exitX=0.5;exitY=1;exitDx=0;exitDy=0;entryX=0.5;entryY=0;entryDx=0;entryDy=0;" edge="1" parent="696DbeGuaw_e1v-7l336-1" source="frp0cCbQGWQVpcm-8R6e-3" target="frp0cCbQGWQVpcm-8R6e-4">
          <mxGeometry relative="1" as="geometry" />
        </mxCell>
        <mxCell id="frp0cCbQGWQVpcm-8R6e-3" value="buff目标选择" style="rounded=0;whiteSpace=wrap;html=1;" vertex="1" parent="696DbeGuaw_e1v-7l336-1">
          <mxGeometry x="147" y="291.5" width="120" height="60" as="geometry" />
        </mxCell>
        <mxCell id="frp0cCbQGWQVpcm-8R6e-20" style="edgeStyle=orthogonalEdgeStyle;rounded=0;orthogonalLoop=1;jettySize=auto;html=1;exitX=0.5;exitY=1;exitDx=0;exitDy=0;entryX=0.5;entryY=0;entryDx=0;entryDy=0;" edge="1" parent="696DbeGuaw_e1v-7l336-1" source="frp0cCbQGWQVpcm-8R6e-4" target="frp0cCbQGWQVpcm-8R6e-5">
          <mxGeometry relative="1" as="geometry" />
        </mxCell>
        <mxCell id="frp0cCbQGWQVpcm-8R6e-4" value="试图执行buff时" style="rounded=1;whiteSpace=wrap;html=1;" vertex="1" parent="696DbeGuaw_e1v-7l336-1">
          <mxGeometry x="147" y="381.5" width="120" height="60" as="geometry" />
        </mxCell>
        <mxCell id="frp0cCbQGWQVpcm-8R6e-21" style="edgeStyle=orthogonalEdgeStyle;rounded=0;orthogonalLoop=1;jettySize=auto;html=1;exitX=0.5;exitY=1;exitDx=0;exitDy=0;entryX=0.5;entryY=0;entryDx=0;entryDy=0;entryPerimeter=0;" edge="1" parent="696DbeGuaw_e1v-7l336-1" source="frp0cCbQGWQVpcm-8R6e-5" target="frp0cCbQGWQVpcm-8R6e-10">
          <mxGeometry relative="1" as="geometry" />
        </mxCell>
        <mxCell id="frp0cCbQGWQVpcm-8R6e-5" value="循环给所有目标添加buff" style="rounded=0;whiteSpace=wrap;html=1;" vertex="1" parent="696DbeGuaw_e1v-7l336-1">
          <mxGeometry x="147" y="471.5" width="120" height="60" as="geometry" />
        </mxCell>
        <mxCell id="frp0cCbQGWQVpcm-8R6e-10" value="添加技能buff结束" style="strokeWidth=2;html=1;shape=mxgraph.flowchart.terminator;whiteSpace=wrap;" vertex="1" parent="696DbeGuaw_e1v-7l336-1">
          <mxGeometry x="157" y="560" width="100" height="60" as="geometry" />
        </mxCell>
        <mxCell id="frp0cCbQGWQVpcm-8R6e-14" value="否" style="text;html=1;strokeColor=none;fillColor=none;align=center;verticalAlign=middle;whiteSpace=wrap;rounded=0;" vertex="1" parent="696DbeGuaw_e1v-7l336-1">
          <mxGeometry x="127" y="140" width="40" height="20" as="geometry" />
        </mxCell>
        <mxCell id="frp0cCbQGWQVpcm-8R6e-15" value="是" style="text;html=1;strokeColor=none;fillColor=none;align=center;verticalAlign=middle;whiteSpace=wrap;rounded=0;" vertex="1" parent="696DbeGuaw_e1v-7l336-1">
          <mxGeometry x="157" y="170" width="40" height="20" as="geometry" />
        </mxCell>
        <mxCell id="frp0cCbQGWQVpcm-8R6e-17" value="成功" style="text;html=1;strokeColor=none;fillColor=none;align=center;verticalAlign=middle;whiteSpace=wrap;rounded=0;" vertex="1" parent="696DbeGuaw_e1v-7l336-1">
          <mxGeometry x="207" y="270" width="40" height="20" as="geometry" />
        </mxCell>
        <mxCell id="frp0cCbQGWQVpcm-8R6e-18" style="edgeStyle=orthogonalEdgeStyle;rounded=0;orthogonalLoop=1;jettySize=auto;html=1;exitX=0;exitY=0;exitDx=0;exitDy=0;entryX=0;entryY=1;entryDx=0;entryDy=0;" edge="1" parent="696DbeGuaw_e1v-7l336-1" source="frp0cCbQGWQVpcm-8R6e-17" target="frp0cCbQGWQVpcm-8R6e-17">
          <mxGeometry relative="1" as="geometry" />
        </mxCell>
        <mxCell id="frp0cCbQGWQVpcm-8R6e-22" value="否" style="text;html=1;strokeColor=none;fillColor=none;align=center;verticalAlign=middle;whiteSpace=wrap;rounded=0;" vertex="1" parent="696DbeGuaw_e1v-7l336-1">
          <mxGeometry x="240" y="240" width="40" height="20" as="geometry" />
        </mxCell>
      </root>
    </mxGraphModel>
  </diagram>
  <diagram name="普通攻击流程" id="cR-VqkA9ANzQOB4zq564">
    <mxGraphModel dx="1731" dy="1152" grid="1" gridSize="10" guides="1" tooltips="1" connect="1" arrows="1" fold="1" page="1" pageScale="1" pageWidth="413" pageHeight="583" math="0" shadow="0">
      <root>
        <mxCell id="w0zDeqewntMPB9VIkae--0" />
        <mxCell id="w0zDeqewntMPB9VIkae--1" parent="w0zDeqewntMPB9VIkae--0" />
        <mxCell id="4axET24f0Xw35SSnRupS-5" style="edgeStyle=orthogonalEdgeStyle;rounded=0;orthogonalLoop=1;jettySize=auto;html=1;exitX=0.5;exitY=1;exitDx=0;exitDy=0;exitPerimeter=0;entryX=0.5;entryY=0;entryDx=0;entryDy=0;" edge="1" parent="w0zDeqewntMPB9VIkae--1" source="cBQ56vabw3xw0KeEsPhv-0" target="WZKJ6QMrFzDbCt8zm5Uj-0">
          <mxGeometry relative="1" as="geometry" />
        </mxCell>
        <mxCell id="4axET24f0Xw35SSnRupS-13" style="edgeStyle=orthogonalEdgeStyle;rounded=0;orthogonalLoop=1;jettySize=auto;html=1;exitX=0;exitY=0.5;exitDx=0;exitDy=0;entryX=0;entryY=0.5;entryDx=0;entryDy=0;entryPerimeter=0;" edge="1" parent="w0zDeqewntMPB9VIkae--1" source="WZKJ6QMrFzDbCt8zm5Uj-0" target="4axET24f0Xw35SSnRupS-4">
          <mxGeometry relative="1" as="geometry">
            <Array as="points">
              <mxPoint x="80" y="130" />
              <mxPoint x="80" y="2030" />
            </Array>
          </mxGeometry>
        </mxCell>
        <mxCell id="cBQ56vabw3xw0KeEsPhv-0" value="普通攻击流程开始" style="strokeWidth=2;html=1;shape=mxgraph.flowchart.terminator;whiteSpace=wrap;" vertex="1" parent="w0zDeqewntMPB9VIkae--1">
          <mxGeometry x="157" y="10" width="100" height="60" as="geometry" />
        </mxCell>
        <mxCell id="4axET24f0Xw35SSnRupS-8" style="edgeStyle=orthogonalEdgeStyle;rounded=0;orthogonalLoop=1;jettySize=auto;html=1;exitX=0.5;exitY=1;exitDx=0;exitDy=0;entryX=0.5;entryY=0;entryDx=0;entryDy=0;" edge="1" parent="w0zDeqewntMPB9VIkae--1" source="7HSr58rO2Gfa7tMNKgs0-0" target="wRYQFAnIvXwlEYMNsMwv-0">
          <mxGeometry relative="1" as="geometry" />
        </mxCell>
        <mxCell id="4axET24f0Xw35SSnRupS-15" style="edgeStyle=orthogonalEdgeStyle;rounded=0;orthogonalLoop=1;jettySize=auto;html=1;exitX=0;exitY=0.5;exitDx=0;exitDy=0;" edge="1" parent="w0zDeqewntMPB9VIkae--1" source="7HSr58rO2Gfa7tMNKgs0-0">
          <mxGeometry relative="1" as="geometry">
            <mxPoint x="80" y="230" as="targetPoint" />
          </mxGeometry>
        </mxCell>
        <mxCell id="7HSr58rO2Gfa7tMNKgs0-0" value="是否混乱" style="rhombus;whiteSpace=wrap;html=1;" vertex="1" parent="w0zDeqewntMPB9VIkae--1">
          <mxGeometry x="167" y="190" width="80" height="80" as="geometry" />
        </mxCell>
        <mxCell id="4axET24f0Xw35SSnRupS-6" style="edgeStyle=orthogonalEdgeStyle;rounded=0;orthogonalLoop=1;jettySize=auto;html=1;exitX=0.5;exitY=1;exitDx=0;exitDy=0;entryX=0.5;entryY=0;entryDx=0;entryDy=0;" edge="1" parent="w0zDeqewntMPB9VIkae--1" source="WZKJ6QMrFzDbCt8zm5Uj-0" target="7HSr58rO2Gfa7tMNKgs0-0">
          <mxGeometry relative="1" as="geometry" />
        </mxCell>
        <mxCell id="WZKJ6QMrFzDbCt8zm5Uj-0" value="是否引导状态" style="rhombus;whiteSpace=wrap;html=1;" vertex="1" parent="w0zDeqewntMPB9VIkae--1">
          <mxGeometry x="167" y="90" width="80" height="80" as="geometry" />
        </mxCell>
        <mxCell id="4axET24f0Xw35SSnRupS-16" style="edgeStyle=orthogonalEdgeStyle;rounded=0;orthogonalLoop=1;jettySize=auto;html=1;exitX=0.5;exitY=1;exitDx=0;exitDy=0;entryX=0.5;entryY=0;entryDx=0;entryDy=0;" edge="1" parent="w0zDeqewntMPB9VIkae--1" source="wRYQFAnIvXwlEYMNsMwv-0" target="wRYQFAnIvXwlEYMNsMwv-1">
          <mxGeometry relative="1" as="geometry" />
        </mxCell>
        <mxCell id="wRYQFAnIvXwlEYMNsMwv-0" value="普通攻击前" style="rounded=1;whiteSpace=wrap;html=1;" vertex="1" parent="w0zDeqewntMPB9VIkae--1">
          <mxGeometry x="147" y="300" width="120" height="60" as="geometry" />
        </mxCell>
        <mxCell id="4axET24f0Xw35SSnRupS-17" style="edgeStyle=orthogonalEdgeStyle;rounded=0;orthogonalLoop=1;jettySize=auto;html=1;exitX=0.5;exitY=1;exitDx=0;exitDy=0;entryX=0.5;entryY=0;entryDx=0;entryDy=0;" edge="1" parent="w0zDeqewntMPB9VIkae--1" source="wRYQFAnIvXwlEYMNsMwv-1" target="wRYQFAnIvXwlEYMNsMwv-3">
          <mxGeometry relative="1" as="geometry" />
        </mxCell>
        <mxCell id="4axET24f0Xw35SSnRupS-22" style="edgeStyle=orthogonalEdgeStyle;rounded=0;orthogonalLoop=1;jettySize=auto;html=1;exitX=1;exitY=0.5;exitDx=0;exitDy=0;entryX=0;entryY=0.5;entryDx=0;entryDy=0;" edge="1" parent="w0zDeqewntMPB9VIkae--1" source="wRYQFAnIvXwlEYMNsMwv-1" target="4axET24f0Xw35SSnRupS-21">
          <mxGeometry relative="1" as="geometry" />
        </mxCell>
        <mxCell id="wRYQFAnIvXwlEYMNsMwv-1" value="攻击换为防御" style="rhombus;whiteSpace=wrap;html=1;" vertex="1" parent="w0zDeqewntMPB9VIkae--1">
          <mxGeometry x="167" y="390" width="80" height="80" as="geometry" />
        </mxCell>
        <mxCell id="4axET24f0Xw35SSnRupS-20" style="edgeStyle=orthogonalEdgeStyle;rounded=0;orthogonalLoop=1;jettySize=auto;html=1;exitX=0.5;exitY=1;exitDx=0;exitDy=0;entryX=0.5;entryY=0;entryDx=0;entryDy=0;" edge="1" parent="w0zDeqewntMPB9VIkae--1" source="wRYQFAnIvXwlEYMNsMwv-3" target="wRYQFAnIvXwlEYMNsMwv-4">
          <mxGeometry relative="1" as="geometry" />
        </mxCell>
        <mxCell id="4axET24f0Xw35SSnRupS-28" style="edgeStyle=orthogonalEdgeStyle;rounded=0;orthogonalLoop=1;jettySize=auto;html=1;exitX=1;exitY=0.5;exitDx=0;exitDy=0;entryX=0;entryY=0.5;entryDx=0;entryDy=0;" edge="1" parent="w0zDeqewntMPB9VIkae--1" source="wRYQFAnIvXwlEYMNsMwv-3" target="4axET24f0Xw35SSnRupS-27">
          <mxGeometry relative="1" as="geometry" />
        </mxCell>
        <mxCell id="wRYQFAnIvXwlEYMNsMwv-3" value="攻击换为休整" style="rhombus;whiteSpace=wrap;html=1;" vertex="1" parent="w0zDeqewntMPB9VIkae--1">
          <mxGeometry x="167" y="490" width="80" height="80" as="geometry" />
        </mxCell>
        <mxCell id="4axET24f0Xw35SSnRupS-32" style="edgeStyle=orthogonalEdgeStyle;rounded=0;orthogonalLoop=1;jettySize=auto;html=1;exitX=0.5;exitY=1;exitDx=0;exitDy=0;entryX=0.5;entryY=0;entryDx=0;entryDy=0;" edge="1" parent="w0zDeqewntMPB9VIkae--1" source="wRYQFAnIvXwlEYMNsMwv-4" target="wRYQFAnIvXwlEYMNsMwv-6">
          <mxGeometry relative="1" as="geometry" />
        </mxCell>
        <mxCell id="4axET24f0Xw35SSnRupS-34" style="edgeStyle=orthogonalEdgeStyle;rounded=0;orthogonalLoop=1;jettySize=auto;html=1;exitX=0;exitY=0.5;exitDx=0;exitDy=0;" edge="1" parent="w0zDeqewntMPB9VIkae--1" source="wRYQFAnIvXwlEYMNsMwv-4">
          <mxGeometry relative="1" as="geometry">
            <mxPoint x="80" y="630" as="targetPoint" />
          </mxGeometry>
        </mxCell>
        <mxCell id="wRYQFAnIvXwlEYMNsMwv-4" value="是否怯战" style="rhombus;whiteSpace=wrap;html=1;" vertex="1" parent="w0zDeqewntMPB9VIkae--1">
          <mxGeometry x="167" y="590" width="80" height="80" as="geometry" />
        </mxCell>
        <mxCell id="4axET24f0Xw35SSnRupS-36" style="edgeStyle=orthogonalEdgeStyle;rounded=0;orthogonalLoop=1;jettySize=auto;html=1;exitX=0.5;exitY=1;exitDx=0;exitDy=0;entryX=0.5;entryY=0;entryDx=0;entryDy=0;" edge="1" parent="w0zDeqewntMPB9VIkae--1" source="wRYQFAnIvXwlEYMNsMwv-6" target="wRYQFAnIvXwlEYMNsMwv-7">
          <mxGeometry relative="1" as="geometry" />
        </mxCell>
        <mxCell id="wRYQFAnIvXwlEYMNsMwv-6" value="行动前" style="rounded=1;whiteSpace=wrap;html=1;" vertex="1" parent="w0zDeqewntMPB9VIkae--1">
          <mxGeometry x="147" y="700" width="120" height="60" as="geometry" />
        </mxCell>
        <mxCell id="4axET24f0Xw35SSnRupS-37" style="edgeStyle=orthogonalEdgeStyle;rounded=0;orthogonalLoop=1;jettySize=auto;html=1;exitX=0.5;exitY=1;exitDx=0;exitDy=0;" edge="1" parent="w0zDeqewntMPB9VIkae--1" source="wRYQFAnIvXwlEYMNsMwv-7" target="wRYQFAnIvXwlEYMNsMwv-9">
          <mxGeometry relative="1" as="geometry" />
        </mxCell>
        <mxCell id="wRYQFAnIvXwlEYMNsMwv-7" value="选取攻击目标" style="rounded=0;whiteSpace=wrap;html=1;" vertex="1" parent="w0zDeqewntMPB9VIkae--1">
          <mxGeometry x="147" y="790" width="120" height="60" as="geometry" />
        </mxCell>
        <mxCell id="4axET24f0Xw35SSnRupS-38" style="edgeStyle=orthogonalEdgeStyle;rounded=0;orthogonalLoop=1;jettySize=auto;html=1;exitX=0.5;exitY=1;exitDx=0;exitDy=0;entryX=0.5;entryY=0;entryDx=0;entryDy=0;" edge="1" parent="w0zDeqewntMPB9VIkae--1" source="wRYQFAnIvXwlEYMNsMwv-9" target="wRYQFAnIvXwlEYMNsMwv-10">
          <mxGeometry relative="1" as="geometry" />
        </mxCell>
        <UserObject label="计算攻击或技能伤害" link="data:page/id,t6PCUzsbuOt26GQJ2McQ" id="wRYQFAnIvXwlEYMNsMwv-9">
          <mxCell style="shape=process;whiteSpace=wrap;html=1;backgroundOutline=1;" vertex="1" parent="w0zDeqewntMPB9VIkae--1">
            <mxGeometry x="147" y="880" width="120" height="60" as="geometry" />
          </mxCell>
        </UserObject>
        <mxCell id="4axET24f0Xw35SSnRupS-39" style="edgeStyle=orthogonalEdgeStyle;rounded=0;orthogonalLoop=1;jettySize=auto;html=1;exitX=0.5;exitY=1;exitDx=0;exitDy=0;entryX=0.5;entryY=0;entryDx=0;entryDy=0;" edge="1" parent="w0zDeqewntMPB9VIkae--1" source="wRYQFAnIvXwlEYMNsMwv-10" target="wRYQFAnIvXwlEYMNsMwv-11">
          <mxGeometry relative="1" as="geometry" />
        </mxCell>
        <UserObject label="执行伤害流程" link="data:page/id,PNuu0Ct4Xj8jZEpeJHvM" id="wRYQFAnIvXwlEYMNsMwv-10">
          <mxCell style="shape=process;whiteSpace=wrap;html=1;backgroundOutline=1;" vertex="1" parent="w0zDeqewntMPB9VIkae--1">
            <mxGeometry x="147" y="970" width="120" height="60" as="geometry" />
          </mxCell>
        </UserObject>
        <mxCell id="4axET24f0Xw35SSnRupS-40" style="edgeStyle=orthogonalEdgeStyle;rounded=0;orthogonalLoop=1;jettySize=auto;html=1;exitX=0.5;exitY=1;exitDx=0;exitDy=0;entryX=0.5;entryY=0;entryDx=0;entryDy=0;" edge="1" parent="w0zDeqewntMPB9VIkae--1" source="wRYQFAnIvXwlEYMNsMwv-11" target="wRYQFAnIvXwlEYMNsMwv-12">
          <mxGeometry relative="1" as="geometry" />
        </mxCell>
        <mxCell id="wRYQFAnIvXwlEYMNsMwv-11" value="普通攻击伤害时" style="rounded=1;whiteSpace=wrap;html=1;" vertex="1" parent="w0zDeqewntMPB9VIkae--1">
          <mxGeometry x="147" y="1060" width="120" height="60" as="geometry" />
        </mxCell>
        <mxCell id="4axET24f0Xw35SSnRupS-41" style="edgeStyle=orthogonalEdgeStyle;rounded=0;orthogonalLoop=1;jettySize=auto;html=1;exitX=1;exitY=0.5;exitDx=0;exitDy=0;entryX=1;entryY=0.5;entryDx=0;entryDy=0;" edge="1" parent="w0zDeqewntMPB9VIkae--1" source="wRYQFAnIvXwlEYMNsMwv-12" target="wRYQFAnIvXwlEYMNsMwv-14">
          <mxGeometry relative="1" as="geometry" />
        </mxCell>
        <mxCell id="4axET24f0Xw35SSnRupS-42" style="edgeStyle=orthogonalEdgeStyle;rounded=0;orthogonalLoop=1;jettySize=auto;html=1;exitX=0.5;exitY=1;exitDx=0;exitDy=0;entryX=0.5;entryY=0;entryDx=0;entryDy=0;" edge="1" parent="w0zDeqewntMPB9VIkae--1" source="wRYQFAnIvXwlEYMNsMwv-12">
          <mxGeometry relative="1" as="geometry">
            <mxPoint x="207" y="1260" as="targetPoint" />
          </mxGeometry>
        </mxCell>
        <mxCell id="wRYQFAnIvXwlEYMNsMwv-12" value="是否伤害溅射" style="rhombus;whiteSpace=wrap;html=1;" vertex="1" parent="w0zDeqewntMPB9VIkae--1">
          <mxGeometry x="167" y="1150" width="80" height="80" as="geometry" />
        </mxCell>
        <mxCell id="4axET24f0Xw35SSnRupS-43" style="edgeStyle=orthogonalEdgeStyle;rounded=0;orthogonalLoop=1;jettySize=auto;html=1;exitX=0.5;exitY=1;exitDx=0;exitDy=0;entryX=0.5;entryY=0;entryDx=0;entryDy=0;" edge="1" parent="w0zDeqewntMPB9VIkae--1" target="wRYQFAnIvXwlEYMNsMwv-14">
          <mxGeometry relative="1" as="geometry">
            <mxPoint x="207" y="1320" as="sourcePoint" />
          </mxGeometry>
        </mxCell>
        <mxCell id="4axET24f0Xw35SSnRupS-46" style="edgeStyle=orthogonalEdgeStyle;rounded=0;orthogonalLoop=1;jettySize=auto;html=1;exitX=0.5;exitY=1;exitDx=0;exitDy=0;entryX=0.5;entryY=0;entryDx=0;entryDy=0;" edge="1" parent="w0zDeqewntMPB9VIkae--1" source="wRYQFAnIvXwlEYMNsMwv-14" target="_oXlk_CIiBSrDiHoVRnq-0">
          <mxGeometry relative="1" as="geometry" />
        </mxCell>
        <mxCell id="wRYQFAnIvXwlEYMNsMwv-14" value="普通攻击后" style="rounded=1;whiteSpace=wrap;html=1;" vertex="1" parent="w0zDeqewntMPB9VIkae--1">
          <mxGeometry x="147" y="1350" width="120" height="60" as="geometry" />
        </mxCell>
        <mxCell id="4axET24f0Xw35SSnRupS-47" style="edgeStyle=orthogonalEdgeStyle;rounded=0;orthogonalLoop=1;jettySize=auto;html=1;exitX=0.5;exitY=1;exitDx=0;exitDy=0;entryX=0.5;entryY=0;entryDx=0;entryDy=0;" edge="1" parent="w0zDeqewntMPB9VIkae--1" source="_oXlk_CIiBSrDiHoVRnq-0" target="_oXlk_CIiBSrDiHoVRnq-1">
          <mxGeometry relative="1" as="geometry" />
        </mxCell>
        <mxCell id="_oXlk_CIiBSrDiHoVRnq-0" value="受到普通攻击后" style="rounded=1;whiteSpace=wrap;html=1;" vertex="1" parent="w0zDeqewntMPB9VIkae--1">
          <mxGeometry x="147" y="1440" width="120" height="60" as="geometry" />
        </mxCell>
        <mxCell id="4axET24f0Xw35SSnRupS-48" style="edgeStyle=orthogonalEdgeStyle;rounded=0;orthogonalLoop=1;jettySize=auto;html=1;exitX=0.5;exitY=1;exitDx=0;exitDy=0;entryX=0.5;entryY=0;entryDx=0;entryDy=0;" edge="1" parent="w0zDeqewntMPB9VIkae--1" source="_oXlk_CIiBSrDiHoVRnq-1" target="4axET24f0Xw35SSnRupS-0">
          <mxGeometry relative="1" as="geometry" />
        </mxCell>
        <mxCell id="_oXlk_CIiBSrDiHoVRnq-1" value="行动结束时" style="rounded=1;whiteSpace=wrap;html=1;" vertex="1" parent="w0zDeqewntMPB9VIkae--1">
          <mxGeometry x="147" y="1530" width="120" height="60" as="geometry" />
        </mxCell>
        <mxCell id="4axET24f0Xw35SSnRupS-49" style="edgeStyle=orthogonalEdgeStyle;rounded=0;orthogonalLoop=1;jettySize=auto;html=1;exitX=0.5;exitY=1;exitDx=0;exitDy=0;entryX=0.5;entryY=0;entryDx=0;entryDy=0;" edge="1" parent="w0zDeqewntMPB9VIkae--1" source="4axET24f0Xw35SSnRupS-0" target="4axET24f0Xw35SSnRupS-1">
          <mxGeometry relative="1" as="geometry" />
        </mxCell>
        <mxCell id="4axET24f0Xw35SSnRupS-0" value="行动结束，位置调整" style="rounded=0;whiteSpace=wrap;html=1;" vertex="1" parent="w0zDeqewntMPB9VIkae--1">
          <mxGeometry x="147" y="1620" width="120" height="60" as="geometry" />
        </mxCell>
        <mxCell id="4axET24f0Xw35SSnRupS-50" style="edgeStyle=orthogonalEdgeStyle;rounded=0;orthogonalLoop=1;jettySize=auto;html=1;exitX=0.5;exitY=1;exitDx=0;exitDy=0;entryX=0.5;entryY=0;entryDx=0;entryDy=0;" edge="1" parent="w0zDeqewntMPB9VIkae--1" source="4axET24f0Xw35SSnRupS-1" target="4axET24f0Xw35SSnRupS-2">
          <mxGeometry relative="1" as="geometry" />
        </mxCell>
        <UserObject label="执行预备的触发技" link="data:page/id,_wKeDqSNoWvv0K4jZEV4" id="4axET24f0Xw35SSnRupS-1">
          <mxCell style="shape=process;whiteSpace=wrap;html=1;backgroundOutline=1;" vertex="1" parent="w0zDeqewntMPB9VIkae--1">
            <mxGeometry x="147" y="1710" width="120" height="60" as="geometry" />
          </mxCell>
        </UserObject>
        <mxCell id="4axET24f0Xw35SSnRupS-51" style="edgeStyle=orthogonalEdgeStyle;rounded=0;orthogonalLoop=1;jettySize=auto;html=1;exitX=0.5;exitY=1;exitDx=0;exitDy=0;entryX=0.5;entryY=0;entryDx=0;entryDy=0;" edge="1" parent="w0zDeqewntMPB9VIkae--1" source="4axET24f0Xw35SSnRupS-2" target="4axET24f0Xw35SSnRupS-3">
          <mxGeometry relative="1" as="geometry" />
        </mxCell>
        <UserObject label="受攻击者反击" link="data:page/id,paGK7MdYlXQP-76LDIKm" id="4axET24f0Xw35SSnRupS-2">
          <mxCell style="shape=process;whiteSpace=wrap;html=1;backgroundOutline=1;" vertex="1" parent="w0zDeqewntMPB9VIkae--1">
            <mxGeometry x="147" y="1800" width="120" height="60" as="geometry" />
          </mxCell>
        </UserObject>
        <mxCell id="4axET24f0Xw35SSnRupS-52" style="edgeStyle=orthogonalEdgeStyle;rounded=0;orthogonalLoop=1;jettySize=auto;html=1;exitX=0.5;exitY=1;exitDx=0;exitDy=0;entryX=0.5;entryY=0;entryDx=0;entryDy=0;entryPerimeter=0;" edge="1" parent="w0zDeqewntMPB9VIkae--1" source="4axET24f0Xw35SSnRupS-3" target="4axET24f0Xw35SSnRupS-4">
          <mxGeometry relative="1" as="geometry" />
        </mxCell>
        <mxCell id="4axET24f0Xw35SSnRupS-54" style="edgeStyle=orthogonalEdgeStyle;rounded=0;orthogonalLoop=1;jettySize=auto;html=1;exitX=1;exitY=0.5;exitDx=0;exitDy=0;entryX=1;entryY=0.5;entryDx=0;entryDy=0;" edge="1" parent="w0zDeqewntMPB9VIkae--1" source="4axET24f0Xw35SSnRupS-3" target="wRYQFAnIvXwlEYMNsMwv-4">
          <mxGeometry relative="1" as="geometry">
            <Array as="points">
              <mxPoint x="310" y="1930" />
              <mxPoint x="310" y="630" />
            </Array>
          </mxGeometry>
        </mxCell>
        <mxCell id="4axET24f0Xw35SSnRupS-3" value="是否连击" style="rhombus;whiteSpace=wrap;html=1;" vertex="1" parent="w0zDeqewntMPB9VIkae--1">
          <mxGeometry x="167" y="1890" width="80" height="80" as="geometry" />
        </mxCell>
        <mxCell id="4axET24f0Xw35SSnRupS-4" value="普通攻击流程结束" style="strokeWidth=2;html=1;shape=mxgraph.flowchart.terminator;whiteSpace=wrap;" vertex="1" parent="w0zDeqewntMPB9VIkae--1">
          <mxGeometry x="157" y="2000" width="100" height="60" as="geometry" />
        </mxCell>
        <mxCell id="4axET24f0Xw35SSnRupS-7" value="否" style="text;html=1;strokeColor=none;fillColor=none;align=center;verticalAlign=middle;whiteSpace=wrap;rounded=0;" vertex="1" parent="w0zDeqewntMPB9VIkae--1">
          <mxGeometry x="157" y="170" width="40" height="20" as="geometry" />
        </mxCell>
        <mxCell id="4axET24f0Xw35SSnRupS-11" value="否" style="text;html=1;strokeColor=none;fillColor=none;align=center;verticalAlign=middle;whiteSpace=wrap;rounded=0;" vertex="1" parent="w0zDeqewntMPB9VIkae--1">
          <mxGeometry x="157" y="270" width="40" height="20" as="geometry" />
        </mxCell>
        <mxCell id="4axET24f0Xw35SSnRupS-14" value="是" style="text;html=1;strokeColor=none;fillColor=none;align=center;verticalAlign=middle;whiteSpace=wrap;rounded=0;" vertex="1" parent="w0zDeqewntMPB9VIkae--1">
          <mxGeometry x="100" y="140" width="40" height="20" as="geometry" />
        </mxCell>
        <mxCell id="4axET24f0Xw35SSnRupS-18" value="否" style="text;html=1;strokeColor=none;fillColor=none;align=center;verticalAlign=middle;whiteSpace=wrap;rounded=0;" vertex="1" parent="w0zDeqewntMPB9VIkae--1">
          <mxGeometry x="217" y="470" width="40" height="20" as="geometry" />
        </mxCell>
        <mxCell id="4axET24f0Xw35SSnRupS-19" value="否" style="text;html=1;strokeColor=none;fillColor=none;align=center;verticalAlign=middle;whiteSpace=wrap;rounded=0;" vertex="1" parent="w0zDeqewntMPB9VIkae--1">
          <mxGeometry x="217" y="570" width="40" height="20" as="geometry" />
        </mxCell>
        <mxCell id="4axET24f0Xw35SSnRupS-26" style="edgeStyle=orthogonalEdgeStyle;rounded=0;orthogonalLoop=1;jettySize=auto;html=1;exitX=0.5;exitY=1;exitDx=0;exitDy=0;entryX=1;entryY=0.5;entryDx=0;entryDy=0;entryPerimeter=0;" edge="1" parent="w0zDeqewntMPB9VIkae--1" source="4axET24f0Xw35SSnRupS-21" target="4axET24f0Xw35SSnRupS-4">
          <mxGeometry relative="1" as="geometry" />
        </mxCell>
        <UserObject label="防御流程" link="data:page/id,jU204X-kXRhUd7v6BinH" id="4axET24f0Xw35SSnRupS-21">
          <mxCell style="shape=process;whiteSpace=wrap;html=1;backgroundOutline=1;" vertex="1" parent="w0zDeqewntMPB9VIkae--1">
            <mxGeometry x="280" y="400" width="120" height="60" as="geometry" />
          </mxCell>
        </UserObject>
        <mxCell id="4axET24f0Xw35SSnRupS-23" value="是" style="text;html=1;strokeColor=none;fillColor=none;align=center;verticalAlign=middle;whiteSpace=wrap;rounded=0;" vertex="1" parent="w0zDeqewntMPB9VIkae--1">
          <mxGeometry x="240" y="440" width="40" height="20" as="geometry" />
        </mxCell>
        <UserObject label="休整流程" link="data:page/id,tlHCN15w9kbSixurvdgu" id="4axET24f0Xw35SSnRupS-27">
          <mxCell style="shape=process;whiteSpace=wrap;html=1;backgroundOutline=1;" vertex="1" parent="w0zDeqewntMPB9VIkae--1">
            <mxGeometry x="280" y="500" width="120" height="60" as="geometry" />
          </mxCell>
        </UserObject>
        <mxCell id="4axET24f0Xw35SSnRupS-31" value="是" style="text;html=1;strokeColor=none;fillColor=none;align=center;verticalAlign=middle;whiteSpace=wrap;rounded=0;" vertex="1" parent="w0zDeqewntMPB9VIkae--1">
          <mxGeometry x="240" y="540" width="40" height="20" as="geometry" />
        </mxCell>
        <mxCell id="4axET24f0Xw35SSnRupS-33" value="否" style="text;html=1;strokeColor=none;fillColor=none;align=center;verticalAlign=middle;whiteSpace=wrap;rounded=0;" vertex="1" parent="w0zDeqewntMPB9VIkae--1">
          <mxGeometry x="157" y="670" width="40" height="20" as="geometry" />
        </mxCell>
        <mxCell id="4axET24f0Xw35SSnRupS-35" value="是" style="text;html=1;strokeColor=none;fillColor=none;align=center;verticalAlign=middle;whiteSpace=wrap;rounded=0;" vertex="1" parent="w0zDeqewntMPB9VIkae--1">
          <mxGeometry x="107" y="600" width="40" height="20" as="geometry" />
        </mxCell>
        <mxCell id="4axET24f0Xw35SSnRupS-44" value="否" style="text;html=1;strokeColor=none;fillColor=none;align=center;verticalAlign=middle;whiteSpace=wrap;rounded=0;" vertex="1" parent="w0zDeqewntMPB9VIkae--1">
          <mxGeometry x="240" y="1200" width="40" height="20" as="geometry" />
        </mxCell>
        <mxCell id="4axET24f0Xw35SSnRupS-45" value="是" style="text;html=1;strokeColor=none;fillColor=none;align=center;verticalAlign=middle;whiteSpace=wrap;rounded=0;" vertex="1" parent="w0zDeqewntMPB9VIkae--1">
          <mxGeometry x="217" y="1230" width="40" height="20" as="geometry" />
        </mxCell>
        <mxCell id="4axET24f0Xw35SSnRupS-53" value="否" style="text;html=1;strokeColor=none;fillColor=none;align=center;verticalAlign=middle;whiteSpace=wrap;rounded=0;" vertex="1" parent="w0zDeqewntMPB9VIkae--1">
          <mxGeometry x="227" y="1970" width="40" height="20" as="geometry" />
        </mxCell>
        <mxCell id="4axET24f0Xw35SSnRupS-55" value="是" style="text;html=1;strokeColor=none;fillColor=none;align=center;verticalAlign=middle;whiteSpace=wrap;rounded=0;" vertex="1" parent="w0zDeqewntMPB9VIkae--1">
          <mxGeometry x="257" y="1940" width="40" height="20" as="geometry" />
        </mxCell>
        <mxCell id="3f3G7YOtFBFot0Z3Ko7Z-0" value="执行溅射" style="rounded=0;whiteSpace=wrap;html=1;" vertex="1" parent="w0zDeqewntMPB9VIkae--1">
          <mxGeometry x="147" y="1260" width="120" height="60" as="geometry" />
        </mxCell>
      </root>
    </mxGraphModel>
  </diagram>
  <diagram name="防御流程" id="10juTBlgLjfKz-yFg2S9">
    <mxGraphModel dx="1731" dy="1152" grid="1" gridSize="10" guides="1" tooltips="1" connect="1" arrows="1" fold="1" page="1" pageScale="1" pageWidth="413" pageHeight="583" math="0" shadow="0">
      <root>
        <mxCell id="ZDvLGFTwJ_OlErNrRTIo-0" />
        <mxCell id="ZDvLGFTwJ_OlErNrRTIo-1" parent="ZDvLGFTwJ_OlErNrRTIo-0" />
        <mxCell id="YxNLi5cAAZqqiVfpf4od-2" style="edgeStyle=orthogonalEdgeStyle;rounded=0;orthogonalLoop=1;jettySize=auto;html=1;exitX=0.5;exitY=1;exitDx=0;exitDy=0;exitPerimeter=0;entryX=0.5;entryY=0;entryDx=0;entryDy=0;" edge="1" parent="ZDvLGFTwJ_OlErNrRTIo-1" source="Cbsbpj4tTrGJg0Mn9xdI-0" target="CfOmFVR7SUTsA4_D-6Pm-0">
          <mxGeometry relative="1" as="geometry" />
        </mxCell>
        <mxCell id="Cbsbpj4tTrGJg0Mn9xdI-0" value="防御流程开始" style="strokeWidth=2;html=1;shape=mxgraph.flowchart.terminator;whiteSpace=wrap;" vertex="1" parent="ZDvLGFTwJ_OlErNrRTIo-1">
          <mxGeometry x="157" y="10" width="100" height="60" as="geometry" />
        </mxCell>
        <mxCell id="YxNLi5cAAZqqiVfpf4od-3" style="edgeStyle=orthogonalEdgeStyle;rounded=0;orthogonalLoop=1;jettySize=auto;html=1;exitX=0.5;exitY=1;exitDx=0;exitDy=0;entryX=0.5;entryY=0;entryDx=0;entryDy=0;" edge="1" parent="ZDvLGFTwJ_OlErNrRTIo-1" source="CfOmFVR7SUTsA4_D-6Pm-0" target="CfOmFVR7SUTsA4_D-6Pm-1">
          <mxGeometry relative="1" as="geometry" />
        </mxCell>
        <mxCell id="CfOmFVR7SUTsA4_D-6Pm-0" value="行动前" style="rounded=1;whiteSpace=wrap;html=1;" vertex="1" parent="ZDvLGFTwJ_OlErNrRTIo-1">
          <mxGeometry x="147" y="100" width="120" height="60" as="geometry" />
        </mxCell>
        <mxCell id="YxNLi5cAAZqqiVfpf4od-4" style="edgeStyle=orthogonalEdgeStyle;rounded=0;orthogonalLoop=1;jettySize=auto;html=1;exitX=0.5;exitY=1;exitDx=0;exitDy=0;entryX=0.5;entryY=0;entryDx=0;entryDy=0;" edge="1" parent="ZDvLGFTwJ_OlErNrRTIo-1" source="CfOmFVR7SUTsA4_D-6Pm-1" target="CfOmFVR7SUTsA4_D-6Pm-2">
          <mxGeometry relative="1" as="geometry" />
        </mxCell>
        <mxCell id="CfOmFVR7SUTsA4_D-6Pm-1" value="防御时" style="rounded=1;whiteSpace=wrap;html=1;" vertex="1" parent="ZDvLGFTwJ_OlErNrRTIo-1">
          <mxGeometry x="147" y="190" width="120" height="60" as="geometry" />
        </mxCell>
        <mxCell id="YxNLi5cAAZqqiVfpf4od-5" style="edgeStyle=orthogonalEdgeStyle;rounded=0;orthogonalLoop=1;jettySize=auto;html=1;exitX=0.5;exitY=1;exitDx=0;exitDy=0;entryX=0.5;entryY=0;entryDx=0;entryDy=0;" edge="1" parent="ZDvLGFTwJ_OlErNrRTIo-1" source="CfOmFVR7SUTsA4_D-6Pm-2" target="CfOmFVR7SUTsA4_D-6Pm-3">
          <mxGeometry relative="1" as="geometry" />
        </mxCell>
        <mxCell id="CfOmFVR7SUTsA4_D-6Pm-2" value="执行防御buff" style="rounded=0;whiteSpace=wrap;html=1;" vertex="1" parent="ZDvLGFTwJ_OlErNrRTIo-1">
          <mxGeometry x="147" y="280" width="120" height="60" as="geometry" />
        </mxCell>
        <mxCell id="YxNLi5cAAZqqiVfpf4od-6" style="edgeStyle=orthogonalEdgeStyle;rounded=0;orthogonalLoop=1;jettySize=auto;html=1;exitX=0.5;exitY=1;exitDx=0;exitDy=0;entryX=0.5;entryY=0;entryDx=0;entryDy=0;" edge="1" parent="ZDvLGFTwJ_OlErNrRTIo-1" source="CfOmFVR7SUTsA4_D-6Pm-3" target="YxNLi5cAAZqqiVfpf4od-0">
          <mxGeometry relative="1" as="geometry" />
        </mxCell>
        <mxCell id="CfOmFVR7SUTsA4_D-6Pm-3" value="行动后" style="rounded=1;whiteSpace=wrap;html=1;" vertex="1" parent="ZDvLGFTwJ_OlErNrRTIo-1">
          <mxGeometry x="147" y="370" width="120" height="60" as="geometry" />
        </mxCell>
        <mxCell id="YxNLi5cAAZqqiVfpf4od-7" style="edgeStyle=orthogonalEdgeStyle;rounded=0;orthogonalLoop=1;jettySize=auto;html=1;exitX=0.5;exitY=1;exitDx=0;exitDy=0;entryX=0.5;entryY=0;entryDx=0;entryDy=0;entryPerimeter=0;" edge="1" parent="ZDvLGFTwJ_OlErNrRTIo-1" source="YxNLi5cAAZqqiVfpf4od-0" target="YxNLi5cAAZqqiVfpf4od-1">
          <mxGeometry relative="1" as="geometry" />
        </mxCell>
        <UserObject label="执行预备的触发技" link="data:page/id,_wKeDqSNoWvv0K4jZEV4" id="YxNLi5cAAZqqiVfpf4od-0">
          <mxCell style="shape=process;whiteSpace=wrap;html=1;backgroundOutline=1;" vertex="1" parent="ZDvLGFTwJ_OlErNrRTIo-1">
            <mxGeometry x="147" y="460" width="120" height="60" as="geometry" />
          </mxCell>
        </UserObject>
        <mxCell id="YxNLi5cAAZqqiVfpf4od-1" value="防御流程结束" style="strokeWidth=2;html=1;shape=mxgraph.flowchart.terminator;whiteSpace=wrap;" vertex="1" parent="ZDvLGFTwJ_OlErNrRTIo-1">
          <mxGeometry x="157" y="550" width="100" height="60" as="geometry" />
        </mxCell>
      </root>
    </mxGraphModel>
  </diagram>
  <diagram name="休整流程" id="hbRSVM8L52FwOeRvsXSy">
    <mxGraphModel dx="1731" dy="1152" grid="1" gridSize="10" guides="1" tooltips="1" connect="1" arrows="1" fold="1" page="1" pageScale="1" pageWidth="413" pageHeight="583" math="0" shadow="0">
      <root>
        <mxCell id="scAMIAnn3TXSFb_TSsbQ-0" />
        <mxCell id="scAMIAnn3TXSFb_TSsbQ-1" parent="scAMIAnn3TXSFb_TSsbQ-0" />
        <mxCell id="gE_WL-kyzT9CsQMyXK_W-0" style="edgeStyle=orthogonalEdgeStyle;rounded=0;orthogonalLoop=1;jettySize=auto;html=1;exitX=0.5;exitY=1;exitDx=0;exitDy=0;exitPerimeter=0;entryX=0.5;entryY=0;entryDx=0;entryDy=0;" edge="1" parent="scAMIAnn3TXSFb_TSsbQ-1" source="gE_WL-kyzT9CsQMyXK_W-1" target="gE_WL-kyzT9CsQMyXK_W-3">
          <mxGeometry relative="1" as="geometry" />
        </mxCell>
        <mxCell id="gE_WL-kyzT9CsQMyXK_W-1" value="休整流程开始" style="strokeWidth=2;html=1;shape=mxgraph.flowchart.terminator;whiteSpace=wrap;" vertex="1" parent="scAMIAnn3TXSFb_TSsbQ-1">
          <mxGeometry x="157" y="10" width="100" height="60" as="geometry" />
        </mxCell>
        <mxCell id="gE_WL-kyzT9CsQMyXK_W-2" style="edgeStyle=orthogonalEdgeStyle;rounded=0;orthogonalLoop=1;jettySize=auto;html=1;exitX=0.5;exitY=1;exitDx=0;exitDy=0;entryX=0.5;entryY=0;entryDx=0;entryDy=0;" edge="1" parent="scAMIAnn3TXSFb_TSsbQ-1" source="gE_WL-kyzT9CsQMyXK_W-3" target="gE_WL-kyzT9CsQMyXK_W-5">
          <mxGeometry relative="1" as="geometry" />
        </mxCell>
        <mxCell id="gE_WL-kyzT9CsQMyXK_W-3" value="行动前" style="rounded=1;whiteSpace=wrap;html=1;" vertex="1" parent="scAMIAnn3TXSFb_TSsbQ-1">
          <mxGeometry x="147" y="100" width="120" height="60" as="geometry" />
        </mxCell>
        <mxCell id="gE_WL-kyzT9CsQMyXK_W-4" style="edgeStyle=orthogonalEdgeStyle;rounded=0;orthogonalLoop=1;jettySize=auto;html=1;exitX=0.5;exitY=1;exitDx=0;exitDy=0;entryX=0.5;entryY=0;entryDx=0;entryDy=0;" edge="1" parent="scAMIAnn3TXSFb_TSsbQ-1" source="gE_WL-kyzT9CsQMyXK_W-5" target="gE_WL-kyzT9CsQMyXK_W-7">
          <mxGeometry relative="1" as="geometry" />
        </mxCell>
        <mxCell id="gE_WL-kyzT9CsQMyXK_W-5" value="休整时" style="rounded=1;whiteSpace=wrap;html=1;" vertex="1" parent="scAMIAnn3TXSFb_TSsbQ-1">
          <mxGeometry x="147" y="190" width="120" height="60" as="geometry" />
        </mxCell>
        <mxCell id="gE_WL-kyzT9CsQMyXK_W-6" style="edgeStyle=orthogonalEdgeStyle;rounded=0;orthogonalLoop=1;jettySize=auto;html=1;exitX=0.5;exitY=1;exitDx=0;exitDy=0;entryX=0.5;entryY=0;entryDx=0;entryDy=0;" edge="1" parent="scAMIAnn3TXSFb_TSsbQ-1" source="gE_WL-kyzT9CsQMyXK_W-7" target="gE_WL-kyzT9CsQMyXK_W-9">
          <mxGeometry relative="1" as="geometry" />
        </mxCell>
        <mxCell id="gE_WL-kyzT9CsQMyXK_W-7" value="执行休整buff" style="rounded=0;whiteSpace=wrap;html=1;" vertex="1" parent="scAMIAnn3TXSFb_TSsbQ-1">
          <mxGeometry x="147" y="280" width="120" height="60" as="geometry" />
        </mxCell>
        <mxCell id="gE_WL-kyzT9CsQMyXK_W-8" style="edgeStyle=orthogonalEdgeStyle;rounded=0;orthogonalLoop=1;jettySize=auto;html=1;exitX=0.5;exitY=1;exitDx=0;exitDy=0;entryX=0.5;entryY=0;entryDx=0;entryDy=0;" edge="1" parent="scAMIAnn3TXSFb_TSsbQ-1" source="gE_WL-kyzT9CsQMyXK_W-9" target="gE_WL-kyzT9CsQMyXK_W-11">
          <mxGeometry relative="1" as="geometry" />
        </mxCell>
        <mxCell id="gE_WL-kyzT9CsQMyXK_W-9" value="行动后" style="rounded=1;whiteSpace=wrap;html=1;" vertex="1" parent="scAMIAnn3TXSFb_TSsbQ-1">
          <mxGeometry x="147" y="370" width="120" height="60" as="geometry" />
        </mxCell>
        <mxCell id="gE_WL-kyzT9CsQMyXK_W-10" style="edgeStyle=orthogonalEdgeStyle;rounded=0;orthogonalLoop=1;jettySize=auto;html=1;exitX=0.5;exitY=1;exitDx=0;exitDy=0;entryX=0.5;entryY=0;entryDx=0;entryDy=0;entryPerimeter=0;" edge="1" parent="scAMIAnn3TXSFb_TSsbQ-1" source="gE_WL-kyzT9CsQMyXK_W-11" target="gE_WL-kyzT9CsQMyXK_W-12">
          <mxGeometry relative="1" as="geometry" />
        </mxCell>
        <UserObject label="执行预备的触发技" link="data:page/id,_wKeDqSNoWvv0K4jZEV4" id="gE_WL-kyzT9CsQMyXK_W-11">
          <mxCell style="shape=process;whiteSpace=wrap;html=1;backgroundOutline=1;" vertex="1" parent="scAMIAnn3TXSFb_TSsbQ-1">
            <mxGeometry x="147" y="460" width="120" height="60" as="geometry" />
          </mxCell>
        </UserObject>
        <mxCell id="gE_WL-kyzT9CsQMyXK_W-12" value="休整流程结束" style="strokeWidth=2;html=1;shape=mxgraph.flowchart.terminator;whiteSpace=wrap;" vertex="1" parent="scAMIAnn3TXSFb_TSsbQ-1">
          <mxGeometry x="157" y="550" width="100" height="60" as="geometry" />
        </mxCell>
      </root>
    </mxGraphModel>
  </diagram>
  <diagram name="伤害计算流程" id="gQcwP5T3irwKn_gzsbzl">
    <mxGraphModel dx="1731" dy="1152" grid="1" gridSize="10" guides="1" tooltips="1" connect="1" arrows="1" fold="1" page="1" pageScale="1" pageWidth="413" pageHeight="583" math="0" shadow="0">
      <root>
        <mxCell id="Ci-HQCoEcv99YgAc8E5Z-0" />
        <mxCell id="Ci-HQCoEcv99YgAc8E5Z-1" parent="Ci-HQCoEcv99YgAc8E5Z-0" />
        <mxCell id="xpikNSzSb-U5J3IzoIrC-9" style="edgeStyle=orthogonalEdgeStyle;rounded=0;orthogonalLoop=1;jettySize=auto;html=1;exitX=0.5;exitY=1;exitDx=0;exitDy=0;exitPerimeter=0;entryX=0.5;entryY=0;entryDx=0;entryDy=0;" edge="1" parent="Ci-HQCoEcv99YgAc8E5Z-1" source="40r5AMQXjvNPGTQu70JE-0" target="xpikNSzSb-U5J3IzoIrC-0">
          <mxGeometry relative="1" as="geometry" />
        </mxCell>
        <mxCell id="40r5AMQXjvNPGTQu70JE-0" value="伤害流程开始" style="strokeWidth=2;html=1;shape=mxgraph.flowchart.terminator;whiteSpace=wrap;" vertex="1" parent="Ci-HQCoEcv99YgAc8E5Z-1">
          <mxGeometry x="157" y="10" width="100" height="60" as="geometry" />
        </mxCell>
        <mxCell id="xpikNSzSb-U5J3IzoIrC-10" style="edgeStyle=orthogonalEdgeStyle;rounded=0;orthogonalLoop=1;jettySize=auto;html=1;exitX=0.5;exitY=1;exitDx=0;exitDy=0;entryX=0.5;entryY=0;entryDx=0;entryDy=0;" edge="1" parent="Ci-HQCoEcv99YgAc8E5Z-1" source="xpikNSzSb-U5J3IzoIrC-0" target="xpikNSzSb-U5J3IzoIrC-1">
          <mxGeometry relative="1" as="geometry" />
        </mxCell>
        <mxCell id="xpikNSzSb-U5J3IzoIrC-12" style="edgeStyle=orthogonalEdgeStyle;rounded=0;orthogonalLoop=1;jettySize=auto;html=1;exitX=1;exitY=0.5;exitDx=0;exitDy=0;entryX=1;entryY=0.5;entryDx=0;entryDy=0;entryPerimeter=0;" edge="1" parent="Ci-HQCoEcv99YgAc8E5Z-1" source="xpikNSzSb-U5J3IzoIrC-0" target="xpikNSzSb-U5J3IzoIrC-8">
          <mxGeometry relative="1" as="geometry">
            <Array as="points">
              <mxPoint x="320" y="140" />
              <mxPoint x="320" y="730" />
            </Array>
          </mxGeometry>
        </mxCell>
        <mxCell id="xpikNSzSb-U5J3IzoIrC-0" value="攻击这是否未命中" style="rhombus;whiteSpace=wrap;html=1;" vertex="1" parent="Ci-HQCoEcv99YgAc8E5Z-1">
          <mxGeometry x="167" y="100" width="80" height="80" as="geometry" />
        </mxCell>
        <mxCell id="xpikNSzSb-U5J3IzoIrC-14" style="edgeStyle=orthogonalEdgeStyle;rounded=0;orthogonalLoop=1;jettySize=auto;html=1;exitX=0.5;exitY=1;exitDx=0;exitDy=0;entryX=0.5;entryY=0;entryDx=0;entryDy=0;" edge="1" parent="Ci-HQCoEcv99YgAc8E5Z-1" source="xpikNSzSb-U5J3IzoIrC-1" target="xpikNSzSb-U5J3IzoIrC-2">
          <mxGeometry relative="1" as="geometry" />
        </mxCell>
        <mxCell id="xpikNSzSb-U5J3IzoIrC-1" value="受到攻击时" style="rounded=1;whiteSpace=wrap;html=1;" vertex="1" parent="Ci-HQCoEcv99YgAc8E5Z-1">
          <mxGeometry x="147" y="210" width="120" height="60" as="geometry" />
        </mxCell>
        <mxCell id="xpikNSzSb-U5J3IzoIrC-15" style="edgeStyle=orthogonalEdgeStyle;rounded=0;orthogonalLoop=1;jettySize=auto;html=1;exitX=0;exitY=0.5;exitDx=0;exitDy=0;entryX=0;entryY=0.5;entryDx=0;entryDy=0;" edge="1" parent="Ci-HQCoEcv99YgAc8E5Z-1" source="xpikNSzSb-U5J3IzoIrC-2" target="xpikNSzSb-U5J3IzoIrC-6">
          <mxGeometry relative="1" as="geometry">
            <Array as="points">
              <mxPoint x="130" y="340" />
              <mxPoint x="130" y="550" />
            </Array>
          </mxGeometry>
        </mxCell>
        <mxCell id="xpikNSzSb-U5J3IzoIrC-17" style="edgeStyle=orthogonalEdgeStyle;rounded=0;orthogonalLoop=1;jettySize=auto;html=1;exitX=0.5;exitY=1;exitDx=0;exitDy=0;entryX=0.5;entryY=0;entryDx=0;entryDy=0;" edge="1" parent="Ci-HQCoEcv99YgAc8E5Z-1" source="xpikNSzSb-U5J3IzoIrC-2" target="xpikNSzSb-U5J3IzoIrC-3">
          <mxGeometry relative="1" as="geometry" />
        </mxCell>
        <mxCell id="xpikNSzSb-U5J3IzoIrC-2" value="攻击者是否无视规避" style="rhombus;whiteSpace=wrap;html=1;" vertex="1" parent="Ci-HQCoEcv99YgAc8E5Z-1">
          <mxGeometry x="167" y="300" width="80" height="80" as="geometry" />
        </mxCell>
        <mxCell id="xpikNSzSb-U5J3IzoIrC-20" style="edgeStyle=orthogonalEdgeStyle;rounded=0;orthogonalLoop=1;jettySize=auto;html=1;exitX=0.5;exitY=1;exitDx=0;exitDy=0;entryX=0.5;entryY=0;entryDx=0;entryDy=0;" edge="1" parent="Ci-HQCoEcv99YgAc8E5Z-1" source="xpikNSzSb-U5J3IzoIrC-3" target="xpikNSzSb-U5J3IzoIrC-6">
          <mxGeometry relative="1" as="geometry" />
        </mxCell>
        <mxCell id="xpikNSzSb-U5J3IzoIrC-22" style="edgeStyle=orthogonalEdgeStyle;rounded=0;orthogonalLoop=1;jettySize=auto;html=1;exitX=1;exitY=0.5;exitDx=0;exitDy=0;" edge="1" parent="Ci-HQCoEcv99YgAc8E5Z-1" source="xpikNSzSb-U5J3IzoIrC-3">
          <mxGeometry relative="1" as="geometry">
            <mxPoint x="320" y="450" as="targetPoint" />
          </mxGeometry>
        </mxCell>
        <mxCell id="xpikNSzSb-U5J3IzoIrC-3" value="判断规避" style="rhombus;whiteSpace=wrap;html=1;" vertex="1" parent="Ci-HQCoEcv99YgAc8E5Z-1">
          <mxGeometry x="167" y="410" width="80" height="80" as="geometry" />
        </mxCell>
        <mxCell id="xpikNSzSb-U5J3IzoIrC-24" style="edgeStyle=orthogonalEdgeStyle;rounded=0;orthogonalLoop=1;jettySize=auto;html=1;exitX=0.5;exitY=1;exitDx=0;exitDy=0;entryX=0.5;entryY=0;entryDx=0;entryDy=0;" edge="1" parent="Ci-HQCoEcv99YgAc8E5Z-1" source="xpikNSzSb-U5J3IzoIrC-6" target="xpikNSzSb-U5J3IzoIrC-7">
          <mxGeometry relative="1" as="geometry" />
        </mxCell>
        <mxCell id="xpikNSzSb-U5J3IzoIrC-6" value="攻击时" style="rounded=1;whiteSpace=wrap;html=1;" vertex="1" parent="Ci-HQCoEcv99YgAc8E5Z-1">
          <mxGeometry x="147" y="520" width="120" height="60" as="geometry" />
        </mxCell>
        <mxCell id="xpikNSzSb-U5J3IzoIrC-25" style="edgeStyle=orthogonalEdgeStyle;rounded=0;orthogonalLoop=1;jettySize=auto;html=1;exitX=0.5;exitY=1;exitDx=0;exitDy=0;entryX=0.5;entryY=0;entryDx=0;entryDy=0;entryPerimeter=0;" edge="1" parent="Ci-HQCoEcv99YgAc8E5Z-1" source="xpikNSzSb-U5J3IzoIrC-7" target="xpikNSzSb-U5J3IzoIrC-8">
          <mxGeometry relative="1" as="geometry" />
        </mxCell>
        <mxCell id="xpikNSzSb-U5J3IzoIrC-7" value="计算伤害" style="rounded=0;whiteSpace=wrap;html=1;" vertex="1" parent="Ci-HQCoEcv99YgAc8E5Z-1">
          <mxGeometry x="147" y="610" width="120" height="60" as="geometry" />
        </mxCell>
        <mxCell id="xpikNSzSb-U5J3IzoIrC-8" value="伤害流程结束" style="strokeWidth=2;html=1;shape=mxgraph.flowchart.terminator;whiteSpace=wrap;" vertex="1" parent="Ci-HQCoEcv99YgAc8E5Z-1">
          <mxGeometry x="157" y="700" width="100" height="60" as="geometry" />
        </mxCell>
        <mxCell id="xpikNSzSb-U5J3IzoIrC-11" value="否" style="text;html=1;strokeColor=none;fillColor=none;align=center;verticalAlign=middle;whiteSpace=wrap;rounded=0;" vertex="1" parent="Ci-HQCoEcv99YgAc8E5Z-1">
          <mxGeometry x="227" y="180" width="40" height="20" as="geometry" />
        </mxCell>
        <mxCell id="xpikNSzSb-U5J3IzoIrC-13" value="是" style="text;html=1;strokeColor=none;fillColor=none;align=center;verticalAlign=middle;whiteSpace=wrap;rounded=0;" vertex="1" parent="Ci-HQCoEcv99YgAc8E5Z-1">
          <mxGeometry x="257" y="150" width="40" height="20" as="geometry" />
        </mxCell>
        <mxCell id="xpikNSzSb-U5J3IzoIrC-16" value="是" style="text;html=1;strokeColor=none;fillColor=none;align=center;verticalAlign=middle;whiteSpace=wrap;rounded=0;" vertex="1" parent="Ci-HQCoEcv99YgAc8E5Z-1">
          <mxGeometry x="140" y="350" width="40" height="20" as="geometry" />
        </mxCell>
        <mxCell id="xpikNSzSb-U5J3IzoIrC-18" value="否" style="text;html=1;strokeColor=none;fillColor=none;align=center;verticalAlign=middle;whiteSpace=wrap;rounded=0;" vertex="1" parent="Ci-HQCoEcv99YgAc8E5Z-1">
          <mxGeometry x="167" y="380" width="40" height="20" as="geometry" />
        </mxCell>
        <mxCell id="xpikNSzSb-U5J3IzoIrC-21" value="否" style="text;html=1;strokeColor=none;fillColor=none;align=center;verticalAlign=middle;whiteSpace=wrap;rounded=0;" vertex="1" parent="Ci-HQCoEcv99YgAc8E5Z-1">
          <mxGeometry x="217" y="490" width="40" height="20" as="geometry" />
        </mxCell>
        <mxCell id="xpikNSzSb-U5J3IzoIrC-23" value="是" style="text;html=1;strokeColor=none;fillColor=none;align=center;verticalAlign=middle;whiteSpace=wrap;rounded=0;" vertex="1" parent="Ci-HQCoEcv99YgAc8E5Z-1">
          <mxGeometry x="257" y="460" width="40" height="20" as="geometry" />
        </mxCell>
      </root>
    </mxGraphModel>
  </diagram>
  <diagram name="执行伤害流程" id="kdfQt359K-tpoRkNypsX">
    <mxGraphModel dx="1731" dy="1152" grid="1" gridSize="10" guides="1" tooltips="1" connect="1" arrows="1" fold="1" page="1" pageScale="1" pageWidth="413" pageHeight="583" math="0" shadow="0">
      <root>
        <mxCell id="XkJKcijfX6JkoBigPXJS-0" />
        <mxCell id="XkJKcijfX6JkoBigPXJS-1" parent="XkJKcijfX6JkoBigPXJS-0" />
        <mxCell id="XkJKcijfX6JkoBigPXJS-12" style="edgeStyle=orthogonalEdgeStyle;rounded=0;orthogonalLoop=1;jettySize=auto;html=1;exitX=0.5;exitY=1;exitDx=0;exitDy=0;exitPerimeter=0;entryX=0.5;entryY=0;entryDx=0;entryDy=0;" edge="1" parent="XkJKcijfX6JkoBigPXJS-1" source="XkJKcijfX6JkoBigPXJS-2" target="XkJKcijfX6JkoBigPXJS-3">
          <mxGeometry relative="1" as="geometry" />
        </mxCell>
        <mxCell id="XkJKcijfX6JkoBigPXJS-2" value="执行伤害流程开始" style="strokeWidth=2;html=1;shape=mxgraph.flowchart.terminator;whiteSpace=wrap;" vertex="1" parent="XkJKcijfX6JkoBigPXJS-1">
          <mxGeometry x="157" y="20" width="100" height="60" as="geometry" />
        </mxCell>
        <mxCell id="XkJKcijfX6JkoBigPXJS-13" style="edgeStyle=orthogonalEdgeStyle;rounded=0;orthogonalLoop=1;jettySize=auto;html=1;exitX=0.5;exitY=1;exitDx=0;exitDy=0;entryX=0.5;entryY=0;entryDx=0;entryDy=0;" edge="1" parent="XkJKcijfX6JkoBigPXJS-1" source="XkJKcijfX6JkoBigPXJS-3" target="XkJKcijfX6JkoBigPXJS-4">
          <mxGeometry relative="1" as="geometry" />
        </mxCell>
        <mxCell id="XkJKcijfX6JkoBigPXJS-3" value="造成暴击时" style="rounded=1;whiteSpace=wrap;html=1;" vertex="1" parent="XkJKcijfX6JkoBigPXJS-1">
          <mxGeometry x="147" y="110" width="120" height="60" as="geometry" />
        </mxCell>
        <mxCell id="XkJKcijfX6JkoBigPXJS-14" style="edgeStyle=orthogonalEdgeStyle;rounded=0;orthogonalLoop=1;jettySize=auto;html=1;exitX=0.5;exitY=1;exitDx=0;exitDy=0;entryX=0.5;entryY=0;entryDx=0;entryDy=0;" edge="1" parent="XkJKcijfX6JkoBigPXJS-1" source="XkJKcijfX6JkoBigPXJS-4" target="XkJKcijfX6JkoBigPXJS-5">
          <mxGeometry relative="1" as="geometry" />
        </mxCell>
        <mxCell id="XkJKcijfX6JkoBigPXJS-4" value="造成伤害时" style="rounded=1;whiteSpace=wrap;html=1;" vertex="1" parent="XkJKcijfX6JkoBigPXJS-1">
          <mxGeometry x="147" y="200" width="120" height="60" as="geometry" />
        </mxCell>
        <mxCell id="XkJKcijfX6JkoBigPXJS-15" style="edgeStyle=orthogonalEdgeStyle;rounded=0;orthogonalLoop=1;jettySize=auto;html=1;exitX=0.5;exitY=1;exitDx=0;exitDy=0;entryX=0.5;entryY=0;entryDx=0;entryDy=0;" edge="1" parent="XkJKcijfX6JkoBigPXJS-1" source="XkJKcijfX6JkoBigPXJS-5" target="XkJKcijfX6JkoBigPXJS-6">
          <mxGeometry relative="1" as="geometry" />
        </mxCell>
        <mxCell id="XkJKcijfX6JkoBigPXJS-5" value="受到暴击时" style="rounded=1;whiteSpace=wrap;html=1;" vertex="1" parent="XkJKcijfX6JkoBigPXJS-1">
          <mxGeometry x="147" y="291.5" width="120" height="60" as="geometry" />
        </mxCell>
        <mxCell id="XkJKcijfX6JkoBigPXJS-16" style="edgeStyle=orthogonalEdgeStyle;rounded=0;orthogonalLoop=1;jettySize=auto;html=1;exitX=0.5;exitY=1;exitDx=0;exitDy=0;entryX=0.5;entryY=0;entryDx=0;entryDy=0;" edge="1" parent="XkJKcijfX6JkoBigPXJS-1" source="XkJKcijfX6JkoBigPXJS-6" target="XkJKcijfX6JkoBigPXJS-8">
          <mxGeometry relative="1" as="geometry" />
        </mxCell>
        <mxCell id="XkJKcijfX6JkoBigPXJS-6" value="受到伤害时" style="rounded=1;whiteSpace=wrap;html=1;" vertex="1" parent="XkJKcijfX6JkoBigPXJS-1">
          <mxGeometry x="147" y="380" width="120" height="60" as="geometry" />
        </mxCell>
        <mxCell id="XkJKcijfX6JkoBigPXJS-17" style="edgeStyle=orthogonalEdgeStyle;rounded=0;orthogonalLoop=1;jettySize=auto;html=1;exitX=0.5;exitY=1;exitDx=0;exitDy=0;" edge="1" parent="XkJKcijfX6JkoBigPXJS-1" source="XkJKcijfX6JkoBigPXJS-8" target="XkJKcijfX6JkoBigPXJS-9">
          <mxGeometry relative="1" as="geometry" />
        </mxCell>
        <mxCell id="XkJKcijfX6JkoBigPXJS-8" value="计算兵力" style="rounded=0;whiteSpace=wrap;html=1;" vertex="1" parent="XkJKcijfX6JkoBigPXJS-1">
          <mxGeometry x="147" y="470" width="120" height="60" as="geometry" />
        </mxCell>
        <mxCell id="XkJKcijfX6JkoBigPXJS-18" style="edgeStyle=orthogonalEdgeStyle;rounded=0;orthogonalLoop=1;jettySize=auto;html=1;exitX=0.5;exitY=1;exitDx=0;exitDy=0;entryX=0.5;entryY=0;entryDx=0;entryDy=0;" edge="1" parent="XkJKcijfX6JkoBigPXJS-1" source="XkJKcijfX6JkoBigPXJS-9" target="XkJKcijfX6JkoBigPXJS-10">
          <mxGeometry relative="1" as="geometry" />
        </mxCell>
        <mxCell id="XkJKcijfX6JkoBigPXJS-9" value="造成伤害后" style="rounded=1;whiteSpace=wrap;html=1;" vertex="1" parent="XkJKcijfX6JkoBigPXJS-1">
          <mxGeometry x="147" y="560" width="120" height="60" as="geometry" />
        </mxCell>
        <mxCell id="XkJKcijfX6JkoBigPXJS-19" style="edgeStyle=orthogonalEdgeStyle;rounded=0;orthogonalLoop=1;jettySize=auto;html=1;exitX=0.5;exitY=1;exitDx=0;exitDy=0;entryX=0.5;entryY=0;entryDx=0;entryDy=0;entryPerimeter=0;" edge="1" parent="XkJKcijfX6JkoBigPXJS-1" source="XkJKcijfX6JkoBigPXJS-10" target="XkJKcijfX6JkoBigPXJS-11">
          <mxGeometry relative="1" as="geometry" />
        </mxCell>
        <mxCell id="XkJKcijfX6JkoBigPXJS-10" value="受到伤害后" style="rounded=1;whiteSpace=wrap;html=1;" vertex="1" parent="XkJKcijfX6JkoBigPXJS-1">
          <mxGeometry x="147" y="650" width="120" height="60" as="geometry" />
        </mxCell>
        <mxCell id="XkJKcijfX6JkoBigPXJS-11" value="执行伤害流程结束" style="strokeWidth=2;html=1;shape=mxgraph.flowchart.terminator;whiteSpace=wrap;" vertex="1" parent="XkJKcijfX6JkoBigPXJS-1">
          <mxGeometry x="157" y="740" width="100" height="60" as="geometry" />
        </mxCell>
      </root>
    </mxGraphModel>
  </diagram>
  <diagram name="反击流程" id="hSGxkndfaZmdWVw1kdE5">
    <mxGraphModel dx="1731" dy="1152" grid="1" gridSize="10" guides="1" tooltips="1" connect="1" arrows="1" fold="1" page="1" pageScale="1" pageWidth="413" pageHeight="583" math="0" shadow="0">
      <root>
        <mxCell id="6LBRvwxXoyOnB8-tk3uc-0" />
        <mxCell id="6LBRvwxXoyOnB8-tk3uc-1" parent="6LBRvwxXoyOnB8-tk3uc-0" />
        <mxCell id="6LBRvwxXoyOnB8-tk3uc-8" style="edgeStyle=orthogonalEdgeStyle;rounded=0;orthogonalLoop=1;jettySize=auto;html=1;exitX=0.5;exitY=1;exitDx=0;exitDy=0;exitPerimeter=0;entryX=0.5;entryY=0;entryDx=0;entryDy=0;" edge="1" parent="6LBRvwxXoyOnB8-tk3uc-1" source="6LBRvwxXoyOnB8-tk3uc-2" target="6LBRvwxXoyOnB8-tk3uc-3">
          <mxGeometry relative="1" as="geometry" />
        </mxCell>
        <mxCell id="6LBRvwxXoyOnB8-tk3uc-2" value="反击开始" style="strokeWidth=2;html=1;shape=mxgraph.flowchart.terminator;whiteSpace=wrap;" vertex="1" parent="6LBRvwxXoyOnB8-tk3uc-1">
          <mxGeometry x="157" y="20" width="100" height="60" as="geometry" />
        </mxCell>
        <mxCell id="6LBRvwxXoyOnB8-tk3uc-9" style="edgeStyle=orthogonalEdgeStyle;rounded=0;orthogonalLoop=1;jettySize=auto;html=1;exitX=0.5;exitY=1;exitDx=0;exitDy=0;entryX=0.5;entryY=0;entryDx=0;entryDy=0;" edge="1" parent="6LBRvwxXoyOnB8-tk3uc-1" source="6LBRvwxXoyOnB8-tk3uc-3" target="6LBRvwxXoyOnB8-tk3uc-4">
          <mxGeometry relative="1" as="geometry" />
        </mxCell>
        <mxCell id="6LBRvwxXoyOnB8-tk3uc-3" value="行动前" style="rounded=1;whiteSpace=wrap;html=1;" vertex="1" parent="6LBRvwxXoyOnB8-tk3uc-1">
          <mxGeometry x="147" y="110" width="120" height="60" as="geometry" />
        </mxCell>
        <mxCell id="6LBRvwxXoyOnB8-tk3uc-10" style="edgeStyle=orthogonalEdgeStyle;rounded=0;orthogonalLoop=1;jettySize=auto;html=1;exitX=0.5;exitY=1;exitDx=0;exitDy=0;entryX=0.5;entryY=0;entryDx=0;entryDy=0;" edge="1" parent="6LBRvwxXoyOnB8-tk3uc-1" source="6LBRvwxXoyOnB8-tk3uc-4" target="6LBRvwxXoyOnB8-tk3uc-5">
          <mxGeometry relative="1" as="geometry" />
        </mxCell>
        <mxCell id="6LBRvwxXoyOnB8-tk3uc-4" value="反击时" style="rounded=1;whiteSpace=wrap;html=1;" vertex="1" parent="6LBRvwxXoyOnB8-tk3uc-1">
          <mxGeometry x="147" y="200" width="120" height="60" as="geometry" />
        </mxCell>
        <mxCell id="6LBRvwxXoyOnB8-tk3uc-11" style="edgeStyle=orthogonalEdgeStyle;rounded=0;orthogonalLoop=1;jettySize=auto;html=1;exitX=0.5;exitY=1;exitDx=0;exitDy=0;entryX=0.5;entryY=0;entryDx=0;entryDy=0;" edge="1" parent="6LBRvwxXoyOnB8-tk3uc-1" source="6LBRvwxXoyOnB8-tk3uc-5" target="6LBRvwxXoyOnB8-tk3uc-6">
          <mxGeometry relative="1" as="geometry" />
        </mxCell>
        <mxCell id="6LBRvwxXoyOnB8-tk3uc-5" value="执行反击buff" style="rounded=0;whiteSpace=wrap;html=1;" vertex="1" parent="6LBRvwxXoyOnB8-tk3uc-1">
          <mxGeometry x="147" y="290" width="120" height="60" as="geometry" />
        </mxCell>
        <mxCell id="6LBRvwxXoyOnB8-tk3uc-12" style="edgeStyle=orthogonalEdgeStyle;rounded=0;orthogonalLoop=1;jettySize=auto;html=1;exitX=0.5;exitY=1;exitDx=0;exitDy=0;entryX=0.5;entryY=0;entryDx=0;entryDy=0;entryPerimeter=0;" edge="1" parent="6LBRvwxXoyOnB8-tk3uc-1" source="6LBRvwxXoyOnB8-tk3uc-6" target="6LBRvwxXoyOnB8-tk3uc-7">
          <mxGeometry relative="1" as="geometry" />
        </mxCell>
        <mxCell id="6LBRvwxXoyOnB8-tk3uc-6" value="行动后" style="rounded=1;whiteSpace=wrap;html=1;" vertex="1" parent="6LBRvwxXoyOnB8-tk3uc-1">
          <mxGeometry x="147" y="380" width="120" height="60" as="geometry" />
        </mxCell>
        <mxCell id="6LBRvwxXoyOnB8-tk3uc-7" value="反击结束" style="strokeWidth=2;html=1;shape=mxgraph.flowchart.terminator;whiteSpace=wrap;" vertex="1" parent="6LBRvwxXoyOnB8-tk3uc-1">
          <mxGeometry x="157" y="470" width="100" height="60" as="geometry" />
        </mxCell>
      </root>
    </mxGraphModel>
  </diagram>
</mxfile>
